ISO-10303-21;
HEADER;
FILE_DESCRIPTION (( 'STEP AP203' ),
    '1' );
FILE_NAME ('RM-JJ-00084186-01.step',
    '2026-04-24T06:51:34',
    ( '1' ),
    ( '' ),
    'SwSTEP 2.0',
    'SolidWorks 2022',
    '' );
FILE_SCHEMA (( 'CONFIG_CONTROL_DESIGN' ));
ENDSEC;

DATA;
#1 = CARTESIAN_POINT ( 'NONE',  ( 44.99999999999994316, -1.647987302177966740E-13, -10.00000000000000000 ) ) ;
#2 = DIRECTION ( 'NONE',  ( -1.000000000000000000, 0.000000000000000000, 0.000000000000000000 ) ) ;
#3 = AXIS2_PLACEMENT_3D ( 'NONE', #664, #617, #135 ) ;
#4 = DIRECTION ( 'NONE',  ( 0.8571673007021125557, 1.049727191138618942E-16, -0.5150380749100536004 ) ) ;
#5 = VERTEX_POINT ( 'NONE', #514 ) ;
#6 = DATE_TIME_ROLE ( 'creation_date' ) ;
#7 = FACE_OUTER_BOUND ( 'NONE', #416, .T. ) ;
#8 = ADVANCED_FACE ( 'NONE', ( #45 ), #239, .F. ) ;
#9 = LINE ( 'NONE', #522, #366 ) ;
#10 = EDGE_LOOP ( 'NONE', ( #406, #192, #301, #85 ) ) ;
#11 = LINE ( 'NONE', #641, #56 ) ;
#12 = CARTESIAN_POINT ( 'NONE',  ( 0.000000000000000000, 0.000000000000000000, -10.00000000000000000 ) ) ;
#13 = CARTESIAN_POINT ( 'NONE',  ( 95.99999999999991473, -1.632186309653393558E-13, -10.00000000000000000 ) ) ;
#14 = PLANE ( 'NONE',  #33 ) ;
#15 = CARTESIAN_POINT ( 'NONE',  ( -75.00000000000001421, -7.500000000000000888, -10.00000000000000000 ) ) ;
#16 = LINE ( 'NONE', #643, #466 ) ;
#17 = EDGE_CURVE ( 'NONE', #47, #35, #562, .T. ) ;
#18 = DIRECTION ( 'NONE',  ( 0.000000000000000000, -0.000000000000000000, 1.000000000000000000 ) ) ;
#19 = CARTESIAN_POINT ( 'NONE',  ( -100.0000000000000000, -7.500000000000000888, -10.00000000000000000 ) ) ;
#20 = ORIENTED_EDGE ( 'NONE', *, *, #362, .F. ) ;
#21 = DIRECTION ( 'NONE',  ( 1.000000000000000000, -0.000000000000000000, -0.000000000000000000 ) ) ;
#22 = DIRECTION ( 'NONE',  ( -0.000000000000000000, -0.000000000000000000, -1.000000000000000000 ) ) ;
#23 = VECTOR ( 'NONE', #250, 1000.000000000000000 ) ;
#24 = ORIENTED_EDGE ( 'NONE', *, *, #380, .T. ) ;
#25 = COORDINATED_UNIVERSAL_TIME_OFFSET ( 8, 0, .AHEAD. ) ;
#26 = PRODUCT_DEFINITION ( '未知', '', #228, #463 ) ;
#27 = FACE_OUTER_BOUND ( 'NONE', #452, .T. ) ;
#28 = ORIENTED_EDGE ( 'NONE', *, *, #69, .F. ) ;
#29 = PERSON_AND_ORGANIZATION_ROLE ( 'design_owner' ) ;
#30 = VERTEX_POINT ( 'NONE', #630 ) ;
#31 = DIRECTION ( 'NONE',  ( 0.000000000000000000, 1.000000000000000000, 0.000000000000000000 ) ) ;
#32 = ORIENTED_EDGE ( 'NONE', *, *, #663, .T. ) ;
#33 = AXIS2_PLACEMENT_3D ( 'NONE', #114, #260, #475 ) ;
#34 = EDGE_CURVE ( 'NONE', #35, #174, #168, .T. ) ;
#35 = VERTEX_POINT ( 'NONE', #589 ) ;
#36 = DIRECTION ( 'NONE',  ( -0.000000000000000000, -0.000000000000000000, -1.000000000000000000 ) ) ;
#37 = ORIENTED_EDGE ( 'NONE', *, *, #558, .F. ) ;
#38 = APPLICATION_CONTEXT ( 'configuration controlled 3d designs of mechanical parts and assemblies' ) ;
#39 = CARTESIAN_POINT ( 'NONE',  ( 100.0000000000000000, -7.500000000000000888, 7.000000000000000000 ) ) ;
#40 = ORIENTED_EDGE ( 'NONE', *, *, #17, .T. ) ;
#41 = APPROVAL_STATUS ( 'not_yet_approved' ) ;
#42 = AXIS2_PLACEMENT_3D ( 'NONE', #583, #152, #2 ) ;
#43 = CARTESIAN_POINT ( 'NONE',  ( -100.0000000000000000, -7.500000000000000888, 7.000000000000000000 ) ) ;
#44 = APPROVAL ( #141, '未指定' ) ;
#45 = FACE_OUTER_BOUND ( 'NONE', #334, .T. ) ;
#46 = CYLINDRICAL_SURFACE ( 'NONE', #536, 2.499999999999988454 ) ;
#47 = VERTEX_POINT ( 'NONE', #204 ) ;
#48 = PRODUCT_DEFINITION_SHAPE ( 'NONE', 'NONE',  #26 ) ;
#49 = FACE_OUTER_BOUND ( 'NONE', #478, .T. ) ;
#50 = CARTESIAN_POINT ( 'NONE',  ( -45.00000000000001421, 7.499999999999999112, -10.00000000000000000 ) ) ;
#51 = DATE_AND_TIME ( #462, #279 ) ;
#52 = EDGE_CURVE ( 'NONE', #47, #174, #107, .T. ) ;
#53 = DIRECTION ( 'NONE',  ( -1.000000000000000000, 0.000000000000000000, 0.000000000000000000 ) ) ;
#54 = AXIS2_PLACEMENT_3D ( 'NONE', #271, #427, #119 ) ;
#55 = AXIS2_PLACEMENT_3D ( 'NONE', #520, #405, #202 ) ;
#56 = VECTOR ( 'NONE', #600, 1000.000000000000000 ) ;
#57 = FACE_OUTER_BOUND ( 'NONE', #624, .T. ) ;
#58 = ORIENTED_EDGE ( 'NONE', *, *, #338, .T. ) ;
#59 = DIRECTION ( 'NONE',  ( -0.000000000000000000, -0.000000000000000000, -1.000000000000000000 ) ) ;
#60 = CARTESIAN_POINT ( 'NONE',  ( 100.0000000000000000, 7.499999999999999112, -10.00000000000000000 ) ) ;
#61 = VERTEX_POINT ( 'NONE', #60 ) ;
#62 = CARTESIAN_POINT ( 'NONE',  ( -45.00000000000001421, 7.499999999999999112, -10.00000000000000000 ) ) ;
#63 = CARTESIAN_POINT ( 'NONE',  ( -45.00000000000001421, -7.500000000000000888, 2.000000000000000000 ) ) ;
#64 = CONICAL_SURFACE ( 'NONE', #98, 2.500000000000002220, 1.029744258676655200 ) ;
#65 = CARTESIAN_POINT ( 'NONE',  ( -75.00000000000001421, 7.499999999999999112, -10.00000000000000000 ) ) ;
#66 = VECTOR ( 'NONE', #67, 1000.000000000000000 ) ;
#67 = DIRECTION ( 'NONE',  ( 1.000000000000000000, 0.000000000000000000, 0.000000000000000000 ) ) ;
#68 = CARTESIAN_POINT ( 'NONE',  ( 97.00000000000000000, -4.500000000000000888, 10.00000000000000000 ) ) ;
#69 = EDGE_CURVE ( 'NONE', #70, #79, #9, .T. ) ;
#70 = VERTEX_POINT ( 'NONE', #533 ) ;
#71 = DIRECTION ( 'NONE',  ( -1.000000000000000000, 0.000000000000000000, 0.000000000000000000 ) ) ;
#72 = CARTESIAN_POINT ( 'NONE',  ( 0.000000000000000000, 0.000000000000000000, -10.00000000000000000 ) ) ;
#73 = ORIENTED_EDGE ( 'NONE', *, *, #527, .F. ) ;
#74 =( NAMED_UNIT ( * ) SI_UNIT ( $, .STERADIAN. ) SOLID_ANGLE_UNIT ( ) );
#75 = APPLICATION_CONTEXT ( 'configuration controlled 3d designs of mechanical parts and assemblies' ) ;
#76 = DIRECTION ( 'NONE',  ( -0.000000000000000000, -0.000000000000000000, -1.000000000000000000 ) ) ;
#77 = VECTOR ( 'NONE', #221, 1000.000000000000000 ) ;
#78 = VECTOR ( 'NONE', #426, 1000.000000000000000 ) ;
#79 = VERTEX_POINT ( 'NONE', #415 ) ;
#80 = SECURITY_CLASSIFICATION ( '', '', #563 ) ;
#81 = ORIENTED_EDGE ( 'NONE', *, *, #242, .F. ) ;
#82 = LINE ( 'NONE', #185, #637 ) ;
#83 = ORIENTED_EDGE ( 'NONE', *, *, #310, .F. ) ;
#84 = DIRECTION ( 'NONE',  ( -0.000000000000000000, -0.000000000000000000, -1.000000000000000000 ) ) ;
#85 = ORIENTED_EDGE ( 'NONE', *, *, #380, .F. ) ;
#86 = AXIS2_PLACEMENT_3D ( 'NONE', #65, #164, #412 ) ;
#87 = ADVANCED_FACE ( 'NONE', ( #207 ), #64, .F. ) ;
#88 = PERSON_AND_ORGANIZATION_ROLE ( 'classification_officer' ) ;
#89 = DIRECTION ( 'NONE',  ( -1.000000000000000000, 0.000000000000000000, 0.000000000000000000 ) ) ;
#90 = LINE ( 'NONE', #92, #136 ) ;
#91 = ORIENTED_EDGE ( 'NONE', *, *, #519, .F. ) ;
#92 = CARTESIAN_POINT ( 'NONE',  ( -100.0000000000000000, -7.500000000000000888, 7.000000000000000000 ) ) ;
#93 = ORIENTED_EDGE ( 'NONE', *, *, #498, .F. ) ;
#94 = DIRECTION ( 'NONE',  ( -0.000000000000000000, -1.000000000000000000, -0.000000000000000000 ) ) ;
#95 = ADVANCED_FACE ( 'NONE', ( #57 ), #14, .F. ) ;
#96 = VERTEX_POINT ( 'NONE', #269 ) ;
#97 = APPROVAL_ROLE ( '' ) ;
#98 = AXIS2_PLACEMENT_3D ( 'NONE', #210, #201, #153 ) ;
#99 = LINE ( 'NONE', #13, #268 ) ;
#100 = EDGE_CURVE ( 'NONE', #251, #30, #418, .T. ) ;
#101 = ORIENTED_EDGE ( 'NONE', *, *, #577, .F. ) ;
#102 = DIRECTION ( 'NONE',  ( -0.000000000000000000, 1.000000000000000000, -0.000000000000000000 ) ) ;
#103 = CARTESIAN_POINT ( 'NONE',  ( 44.99999999999994316, -1.647987302177966740E-13, 4.999999999999999112 ) ) ;
#104 = EDGE_CURVE ( 'NONE', #79, #496, #518, .T. ) ;
#105 = ORIENTED_EDGE ( 'NONE', *, *, #472, .F. ) ;
#106 = DIRECTION ( 'NONE',  ( 1.000000000000000000, -0.000000000000000000, 0.000000000000000000 ) ) ;
#107 = LINE ( 'NONE', #635, #128 ) ;
#108 = CARTESIAN_POINT ( 'NONE',  ( 90.99999999999994316, -1.635247926651262063E-13, -10.00000000000000178 ) ) ;
#109 = VECTOR ( 'NONE', #190, 1000.000000000000000 ) ;
#110 = AXIS2_PLACEMENT_3D ( 'NONE', #371, #633, #157 ) ;
#111 = CARTESIAN_POINT ( 'NONE',  ( 100.0000000000000000, 7.499999999999999112, 7.000000000000000000 ) ) ;
#112 = ORIENTED_EDGE ( 'NONE', *, *, #616, .F. ) ;
#113 = DIRECTION ( 'NONE',  ( -0.000000000000000000, -0.000000000000000000, -1.000000000000000000 ) ) ;
#114 = CARTESIAN_POINT ( 'NONE',  ( 100.0000000000000000, -7.500000000000000888, 10.00000000000000000 ) ) ;
#115 = CARTESIAN_POINT ( 'NONE',  ( 100.0000000000000000, -7.500000000000000888, 7.000000000000000000 ) ) ;
#116 = EDGE_CURVE ( 'NONE', #177, #431, #161, .T. ) ;
#117 = CARTESIAN_POINT ( 'NONE',  ( 0.000000000000000000, 4.499999999999999112, 10.00000000000000000 ) ) ;
#118 = CARTESIAN_POINT ( 'NONE',  ( -100.0000000000000000, -7.500000000000000888, -10.00000000000000000 ) ) ;
#119 = DIRECTION ( 'NONE',  ( -1.000000000000000000, 0.000000000000000000, 0.000000000000000000 ) ) ;
#120 = ORIENTED_EDGE ( 'NONE', *, *, #310, .T. ) ;
#121 = DIRECTION ( 'NONE',  ( 0.000000000000000000, 1.000000000000000000, 0.000000000000000000 ) ) ;
#122 = CARTESIAN_POINT ( 'NONE',  ( -100.0000000000000000, -7.500000000000000888, 10.00000000000000000 ) ) ;
#123 = ORIENTED_EDGE ( 'NONE', *, *, #104, .F. ) ;
#124 = DIRECTION ( 'NONE',  ( -1.000000000000000000, 0.000000000000000000, -0.000000000000000000 ) ) ;
#125 = ORIENTED_EDGE ( 'NONE', *, *, #543, .F. ) ;
#126 =( BOUNDED_CURVE ( )  B_SPLINE_CURVE ( 3, ( #111, #312, #369, #593 ),
 .UNSPECIFIED., .F., .T. ) 
 B_SPLINE_CURVE_WITH_KNOTS ( ( 4, 4 ),
 ( 3.141592653589793116, 4.712388980384689674 ),
 .UNSPECIFIED. ) 
 CURVE ( )  GEOMETRIC_REPRESENTATION_ITEM ( )  RATIONAL_B_SPLINE_CURVE ( ( 1.000000000000000000, 0.8047378541243649375, 0.8047378541243649375, 1.000000000000000000 ) ) 
 REPRESENTATION_ITEM ( '' )  );
#127 = CARTESIAN_POINT ( 'NONE',  ( 100.0000000000000000, -7.500000000000000888, -10.00000000000000000 ) ) ;
#128 = VECTOR ( 'NONE', #318, 1000.000000000000114 ) ;
#129 = VERTEX_POINT ( 'NONE', #217 ) ;
#130 = LOCAL_TIME ( 14, 51, 34.00000000000000000, #246 ) ;
#131 = ORIENTED_EDGE ( 'NONE', *, *, #482, .F. ) ;
#132 = CARTESIAN_POINT ( 'NONE',  ( 100.0000000000000000, -7.500000000000000888, 10.00000000000000000 ) ) ;
#133 = ADVANCED_FACE ( 'NONE', ( #359 ), #535, .F. ) ;
#134 = ORIENTED_EDGE ( 'NONE', *, *, #352, .F. ) ;
#135 = DIRECTION ( 'NONE',  ( -1.000000000000000000, 0.000000000000000000, 0.000000000000000000 ) ) ;
#136 = VECTOR ( 'NONE', #124, 1000.000000000000000 ) ;
#137 = EDGE_CURVE ( 'NONE', #174, #35, #443, .T. ) ;
#138 = VECTOR ( 'NONE', #240, 1000.000000000000000 ) ;
#139 = FACE_OUTER_BOUND ( 'NONE', #640, .T. ) ;
#140 = ORIENTED_EDGE ( 'NONE', *, *, #656, .F. ) ;
#141 = APPROVAL_STATUS ( 'not_yet_approved' ) ;
#142 = CARTESIAN_POINT ( 'NONE',  ( 100.0000000000000000, -7.500000000000000888, 7.000000000000000000 ) ) ;
#143 = VERTEX_POINT ( 'NONE', #584 ) ;
#144 = APPROVAL_DATE_TIME ( #295, #532 ) ;
#145 = CARTESIAN_POINT ( 'NONE',  ( 44.99999999999995026, -1.647987302177966740E-13, -10.00000000000000178 ) ) ;
#146 = ORIENTED_EDGE ( 'NONE', *, *, #69, .T. ) ;
#147 = PERSON_AND_ORGANIZATION ( #581, #524 ) ;
#148 = AXIS2_PLACEMENT_3D ( 'NONE', #72, #173, #399 ) ;
#149 = DIRECTION ( 'NONE',  ( -1.000000000000000000, 0.000000000000000000, 0.000000000000000000 ) ) ;
#150 = EDGE_CURVE ( 'NONE', #458, #251, #126, .T. ) ;
#151 = DIRECTION ( 'NONE',  ( -0.000000000000000000, -0.000000000000000000, -1.000000000000000000 ) ) ;
#152 = DIRECTION ( 'NONE',  ( -0.000000000000000000, -0.000000000000000000, -1.000000000000000000 ) ) ;
#153 = DIRECTION ( 'NONE',  ( -1.000000000000000000, 0.000000000000000000, 0.000000000000000000 ) ) ;
#154 = FACE_OUTER_BOUND ( 'NONE', #339, .T. ) ;
#155 = CARTESIAN_POINT ( 'NONE',  ( 93.49999999999992895, -1.635247926651262063E-13, 4.999999999999999112 ) ) ;
#156 = ORIENTED_EDGE ( 'NONE', *, *, #564, .F. ) ;
#157 = DIRECTION ( 'NONE',  ( 0.000000000000000000, -0.000000000000000000, -1.000000000000000000 ) ) ;
#158 = VECTOR ( 'NONE', #76, 1000.000000000000000 ) ;
#159 = AXIS2_PLACEMENT_3D ( 'NONE', #501, #550, #337 ) ;
#160 = CC_DESIGN_APPROVAL ( #44, ( #80 ) ) ;
#161 = LINE ( 'NONE', #1, #513 ) ;
#162 = CC_DESIGN_PERSON_AND_ORGANIZATION_ASSIGNMENT ( #147, #88, ( #80 ) ) ;
#163 = LINE ( 'NONE', #474, #401 ) ;
#164 = DIRECTION ( 'NONE',  ( -1.000000000000000000, 0.000000000000000000, 0.000000000000000000 ) ) ;
#165 = CARTESIAN_POINT ( 'NONE',  ( 47.49999999999993605, -1.647987302177966740E-13, -10.00000000000000178 ) ) ;
#166 = CARTESIAN_POINT ( 'NONE',  ( 47.49999999999993605, -1.647987302177966740E-13, 4.999999999999999112 ) ) ;
#167 = LINE ( 'NONE', #377, #392 ) ;
#168 = CIRCLE ( 'NONE', #193, 2.500000000000002220 ) ;
#169 = ADVANCED_FACE ( 'NONE', ( #529, #263, #473 ), #578, .T. ) ;
#170 = DIRECTION ( 'NONE',  ( -1.000000000000000000, 0.000000000000000000, -0.000000000000000000 ) ) ;
#171 = ORIENTED_EDGE ( 'NONE', *, *, #642, .T. ) ;
#172 = DIRECTION ( 'NONE',  ( 1.000000000000000000, 0.000000000000000000, 0.000000000000000000 ) ) ;
#173 = DIRECTION ( 'NONE',  ( 0.000000000000000000, 0.000000000000000000, -1.000000000000000000 ) ) ;
#174 = VERTEX_POINT ( 'NONE', #423 ) ;
#175 = APPROVAL_STATUS ( 'not_yet_approved' ) ;
#176 = DIRECTION ( 'NONE',  ( 0.8571673007021114454, 1.049727191138617586E-16, -0.5150380749100555988 ) ) ;
#177 = VERTEX_POINT ( 'NONE', #103 ) ;
#178 = PERSON_AND_ORGANIZATION ( #581, #524 ) ;
#179 = VECTOR ( 'NONE', #22, 1000.000000000000000 ) ;
#180 = VECTOR ( 'NONE', #102, 1000.000000000000000 ) ;
#181 = ORIENTED_EDGE ( 'NONE', *, *, #429, .F. ) ;
#182 =( LENGTH_UNIT ( ) NAMED_UNIT ( * ) SI_UNIT ( .MILLI., .METRE. ) );
#183 = ADVANCED_FACE ( 'NONE', ( #303 ), #639, .F. ) ;
#184 = ORIENTED_EDGE ( 'NONE', *, *, #429, .T. ) ;
#185 = CARTESIAN_POINT ( 'NONE',  ( 100.0000000000000000, -7.500000000000000888, -10.00000000000000000 ) ) ;
#186 = ADVANCED_FACE ( 'NONE', ( #27 ), #231, .F. ) ;
#187 = VERTEX_POINT ( 'NONE', #439 ) ;
#188 = PERSON_AND_ORGANIZATION ( #581, #524 ) ;
#189 = CARTESIAN_POINT ( 'NONE',  ( -100.0000000000000000, 7.499999999999999112, 8.757359312880714342 ) ) ;
#190 = DIRECTION ( 'NONE',  ( -0.000000000000000000, -1.000000000000000000, -0.000000000000000000 ) ) ;
#191 = ADVANCED_FACE ( 'NONE', ( #139 ), #647, .F. ) ;
#192 = ORIENTED_EDGE ( 'NONE', *, *, #410, .F. ) ;
#193 = AXIS2_PLACEMENT_3D ( 'NONE', #307, #151, #255 ) ;
#194 = AXIS2_PLACEMENT_3D ( 'NONE', #206, #302, #254 ) ;
#195 = LOCAL_TIME ( 14, 51, 34.00000000000000000, #25 ) ;
#196 = LINE ( 'NONE', #409, #213 ) ;
#197 = VERTEX_POINT ( 'NONE', #68 ) ;
#198 = COORDINATED_UNIVERSAL_TIME_OFFSET ( 8, 0, .AHEAD. ) ;
#199 = ORIENTED_EDGE ( 'NONE', *, *, #564, .T. ) ;
#200 = CARTESIAN_POINT ( 'NONE',  ( 0.000000000000000000, -4.500000000000000888, 10.00000000000000000 ) ) ;
#201 = DIRECTION ( 'NONE',  ( -0.000000000000000000, -0.000000000000000000, -1.000000000000000000 ) ) ;
#202 = DIRECTION ( 'NONE',  ( 0.000000000000000000, 0.000000000000000000, -1.000000000000000000 ) ) ;
#203 = PRODUCT_RELATED_PRODUCT_CATEGORY ( 'detail', '', ( #356 ) ) ;
#204 = CARTESIAN_POINT ( 'NONE',  ( 93.49999999999992895, -1.635247926651262063E-13, 6.502151547568899126 ) ) ;
#205 = EDGE_LOOP ( 'NONE', ( #441, #93, #456, #402 ) ) ;
#206 = CARTESIAN_POINT ( 'NONE',  ( -75.00000000000001421, 7.499999999999999112, 2.000000000000000000 ) ) ;
#207 = FACE_OUTER_BOUND ( 'NONE', #323, .T. ) ;
#208 = ORIENTED_EDGE ( 'NONE', *, *, #300, .F. ) ;
#209 = DIRECTION ( 'NONE',  ( 0.000000000000000000, 0.000000000000000000, 1.000000000000000000 ) ) ;
#210 = CARTESIAN_POINT ( 'NONE',  ( 93.49999999999992895, -1.635247926651262063E-13, 4.999999999999999112 ) ) ;
#211 = CC_DESIGN_DATE_AND_TIME_ASSIGNMENT ( #51, #6, ( #26 ) ) ;
#212 = ORIENTED_EDGE ( 'NONE', *, *, #17, .F. ) ;
#213 = VECTOR ( 'NONE', #576, 1000.000000000000000 ) ;
#214 = CARTESIAN_POINT ( 'NONE',  ( 47.49999999999993605, -1.647987302177966740E-13, -10.00000000000000000 ) ) ;
#215 = AXIS2_PLACEMENT_3D ( 'NONE', #488, #607, #170 ) ;
#216 = VECTOR ( 'NONE', #257, 1000.000000000000000 ) ;
#217 = CARTESIAN_POINT ( 'NONE',  ( -100.0000000000000000, 7.499999999999999112, -10.00000000000000000 ) ) ;
#218 = ORIENTED_EDGE ( 'NONE', *, *, #262, .F. ) ;
#219 = DIRECTION ( 'NONE',  ( -1.000000000000000000, 0.000000000000000000, 0.000000000000000000 ) ) ;
#220 =( BOUNDED_CURVE ( )  B_SPLINE_CURVE ( 3, ( #547, #189, #450, #665 ),
 .UNSPECIFIED., .F., .T. ) 
 B_SPLINE_CURVE_WITH_KNOTS ( ( 4, 4 ),
 ( 3.141592653589793116, 4.712388980384689674 ),
 .UNSPECIFIED. ) 
 CURVE ( )  GEOMETRIC_REPRESENTATION_ITEM ( )  RATIONAL_B_SPLINE_CURVE ( ( 1.000000000000000000, 0.8047378541243649375, 0.8047378541243649375, 1.000000000000000000 ) ) 
 REPRESENTATION_ITEM ( '' )  );
#221 = DIRECTION ( 'NONE',  ( -1.000000000000000000, -0.000000000000000000, -0.000000000000000000 ) ) ;
#222 = FACE_OUTER_BOUND ( 'NONE', #445, .T. ) ;
#223 = EDGE_CURVE ( 'NONE', #489, #396, #90, .T. ) ;
#224 = DIRECTION ( 'NONE',  ( 0.000000000000000000, 0.000000000000000000, -1.000000000000000000 ) ) ;
#225 = ORIENTED_EDGE ( 'NONE', *, *, #676, .F. ) ;
#226 = DIRECTION ( 'NONE',  ( -0.000000000000000000, -1.000000000000000000, -0.000000000000000000 ) ) ;
#227 = CARTESIAN_POINT ( 'NONE',  ( -75.00000000000001421, 7.499999999999999112, 2.000000000000000000 ) ) ;
#228 = PRODUCT_DEFINITION_FORMATION_WITH_SPECIFIED_SOURCE ( '任何', '', #356, .NOT_KNOWN. ) ;
#229 = ORIENTED_EDGE ( 'NONE', *, *, #676, .T. ) ;
#230 = APPROVAL_DATE_TIME ( #559, #587 ) ;
#231 = PLANE ( 'NONE',  #215 ) ;
#232 = EDGE_LOOP ( 'NONE', ( #582, #613, #370, #81, #494, #516, #440, #146 ) ) ;
#233 = ADVANCED_FACE ( 'NONE', ( #646 ), #481, .T. ) ;
#234 = ORIENTED_EDGE ( 'NONE', *, *, #34, .F. ) ;
#235 = EDGE_CURVE ( 'NONE', #187, #461, #16, .T. ) ;
#236 = CIRCLE ( 'NONE', #561, 2.499999999999988454 ) ;
#237 = VERTEX_POINT ( 'NONE', #127 ) ;
#238 = ADVANCED_FACE ( 'NONE', ( #548 ), #387, .T. ) ;
#239 = CYLINDRICAL_SURFACE ( 'NONE', #3, 2.499999999999995115 ) ;
#240 = DIRECTION ( 'NONE',  ( -0.000000000000000000, -0.000000000000000000, -1.000000000000000000 ) ) ;
#241 = DIRECTION ( 'NONE',  ( -1.000000000000000000, 0.000000000000000000, 0.000000000000000000 ) ) ;
#242 = EDGE_CURVE ( 'NONE', #326, #129, #344, .T. ) ;
#243 = ORIENTED_EDGE ( 'NONE', *, *, #352, .T. ) ;
#244 = CARTESIAN_POINT ( 'NONE',  ( -100.0000000000000000, -7.500000000000000888, 7.000000000000000000 ) ) ;
#245 = VERTEX_POINT ( 'NONE', #19 ) ;
#246 = COORDINATED_UNIVERSAL_TIME_OFFSET ( 8, 0, .AHEAD. ) ;
#247 = CONICAL_SURFACE ( 'NONE', #572, 2.499999999999995115, 1.029744258676652757 ) ;
#248 = AXIS2_PLACEMENT_3D ( 'NONE', #214, #534, #219 ) ;
#249 = LOCAL_TIME ( 14, 51, 34.00000000000000000, #288 ) ;
#250 = DIRECTION ( 'NONE',  ( -0.000000000000000000, -0.000000000000000000, -1.000000000000000000 ) ) ;
#251 = VERTEX_POINT ( 'NONE', #436 ) ;
#252 = CARTESIAN_POINT ( 'NONE',  ( 47.49999999999993605, -1.647987302177966740E-13, -10.00000000000000178 ) ) ;
#253 = ORIENTED_EDGE ( 'NONE', *, *, #289, .T. ) ;
#254 = DIRECTION ( 'NONE',  ( 1.000000000000000000, 0.000000000000000000, -0.000000000000000000 ) ) ;
#255 = DIRECTION ( 'NONE',  ( -1.000000000000000000, 0.000000000000000000, 0.000000000000000000 ) ) ;
#256 = AXIS2_PLACEMENT_3D ( 'NONE', #274, #291, #484 ) ;
#257 = DIRECTION ( 'NONE',  ( -0.000000000000000000, -0.000000000000000000, -1.000000000000000000 ) ) ;
#258 = AXIS2_PLACEMENT_3D ( 'NONE', #165, #373, #420 ) ;
#259 = EDGE_CURVE ( 'NONE', #129, #245, #604, .T. ) ;
#260 = DIRECTION ( 'NONE',  ( -1.000000000000000000, 0.000000000000000000, 0.000000000000000000 ) ) ;
#261 = PLANE ( 'NONE',  #110 ) ;
#262 = EDGE_CURVE ( 'NONE', #143, #129, #666, .T. ) ;
#263 = FACE_BOUND ( 'NONE', #586, .T. ) ;
#264 = CYLINDRICAL_SURFACE ( 'NONE', #248, 2.499999999999995115 ) ;
#265 = DIRECTION ( 'NONE',  ( -1.000000000000000000, 0.000000000000000000, -0.000000000000000000 ) ) ;
#266 = ORIENTED_EDGE ( 'NONE', *, *, #289, .F. ) ;
#267 = LINE ( 'NONE', #539, #551 ) ;
#268 = VECTOR ( 'NONE', #367, 1000.000000000000000 ) ;
#269 = CARTESIAN_POINT ( 'NONE',  ( 95.99999999999991473, -1.632186309653393558E-13, -10.00000000000000178 ) ) ;
#270 = LINE ( 'NONE', #497, #138 ) ;
#271 = CARTESIAN_POINT ( 'NONE',  ( 93.49999999999992895, -1.635247926651262063E-13, 4.999999999999999112 ) ) ;
#272 = ORIENTED_EDGE ( 'NONE', *, *, #537, .F. ) ;
#273 = LINE ( 'NONE', #486, #479 ) ;
#274 = CARTESIAN_POINT ( 'NONE',  ( -97.00000000000000000, 0.000000000000000000, 7.000000000000000000 ) ) ;
#275 = ORIENTED_EDGE ( 'NONE', *, *, #150, .F. ) ;
#276 = CARTESIAN_POINT ( 'NONE',  ( 0.000000000000000000, 0.000000000000000000, 0.000000000000000000 ) ) ;
#277 = VECTOR ( 'NONE', #106, 1000.000000000000000 ) ;
#278 = FACE_OUTER_BOUND ( 'NONE', #594, .T. ) ;
#279 = LOCAL_TIME ( 14, 51, 34.00000000000000000, #390 ) ;
#280 = VERTEX_POINT ( 'NONE', #379 ) ;
#281 = CC_DESIGN_PERSON_AND_ORGANIZATION_ASSIGNMENT ( #188, #298, ( #228 ) ) ;
#282 = ORIENTED_EDGE ( 'NONE', *, *, #358, .T. ) ;
#283 = DIRECTION ( 'NONE',  ( -1.000000000000000000, -0.000000000000000000, -0.000000000000000000 ) ) ;
#284 = ORIENTED_EDGE ( 'NONE', *, *, #660, .F. ) ;
#285 = ADVANCED_FACE ( 'NONE', ( #565 ), #341, .F. ) ;
#286 = PERSON_AND_ORGANIZATION ( #581, #524 ) ;
#287 = ORIENTED_EDGE ( 'NONE', *, *, #305, .F. ) ;
#288 = COORDINATED_UNIVERSAL_TIME_OFFSET ( 8, 0, .AHEAD. ) ;
#289 = EDGE_CURVE ( 'NONE', #461, #177, #521, .T. ) ;
#290 = APPLICATION_PROTOCOL_DEFINITION ( 'international standard', 'config_control_design', 1994, #38 ) ;
#291 = DIRECTION ( 'NONE',  ( 0.000000000000000000, -1.000000000000000000, 0.000000000000000000 ) ) ;
#292 = ORIENTED_EDGE ( 'NONE', *, *, #223, .F. ) ;
#293 = CARTESIAN_POINT ( 'NONE',  ( -100.0000000000000000, 7.499999999999999112, 7.000000000000000000 ) ) ;
#294 = ORIENTED_EDGE ( 'NONE', *, *, #259, .T. ) ;
#295 = DATE_AND_TIME ( #457, #130 ) ;
#296 = CARTESIAN_POINT ( 'NONE',  ( -100.0000000000000000, -7.500000000000000888, 7.000000000000000000 ) ) ;
#297 = VERTEX_POINT ( 'NONE', #383 ) ;
#298 = PERSON_AND_ORGANIZATION_ROLE ( 'design_supplier' ) ;
#299 = CYLINDRICAL_SURFACE ( 'NONE', #634, 2.499999999999988454 ) ;
#300 = EDGE_CURVE ( 'NONE', #5, #667, #652, .T. ) ;
#301 = ORIENTED_EDGE ( 'NONE', *, *, #358, .F. ) ;
#302 = DIRECTION ( 'NONE',  ( 0.000000000000000000, 0.000000000000000000, 1.000000000000000000 ) ) ;
#303 = FACE_OUTER_BOUND ( 'NONE', #336, .T. ) ;
#304 = ORIENTED_EDGE ( 'NONE', *, *, #388, .F. ) ;
#305 = EDGE_CURVE ( 'NONE', #197, #251, #602, .T. ) ;
#306 = CARTESIAN_POINT ( 'NONE',  ( 98.75735931288072322, -6.257359312880714342, 9.999999999999998224 ) ) ;
#307 = CARTESIAN_POINT ( 'NONE',  ( 93.49999999999992895, -1.635247926651262063E-13, 4.999999999999999112 ) ) ;
#308 = AXIS2_PLACEMENT_3D ( 'NONE', #155, #365, #372 ) ;
#309 = ORIENTED_EDGE ( 'NONE', *, *, #509, .F. ) ;
#310 = EDGE_CURVE ( 'NONE', #396, #245, #328, .T. ) ;
#311 = CARTESIAN_POINT ( 'NONE',  ( -45.00000000000001421, -7.500000000000000888, -10.00000000000000000 ) ) ;
#312 = CARTESIAN_POINT ( 'NONE',  ( 100.0000000000000000, 7.499999999999999112, 8.757359312880714342 ) ) ;
#313 = ORIENTED_EDGE ( 'NONE', *, *, #543, .T. ) ;
#314 = LINE ( 'NONE', #311, #321 ) ;
#315 = DIRECTION ( 'NONE',  ( 0.000000000000000000, 0.000000000000000000, -1.000000000000000000 ) ) ;
#316 = CARTESIAN_POINT ( 'NONE',  ( -75.00000000000001421, 7.499999999999999112, 2.000000000000000000 ) ) ;
#317 = ADVANCED_FACE ( 'NONE', ( #278 ), #493, .T. ) ;
#318 = DIRECTION ( 'NONE',  ( -0.8571673007021125557, 0.000000000000000000, -0.5150380749100536004 ) ) ;
#319 = CLOSED_SHELL ( 'NONE', ( #8, #404, #347, #87, #233, #95, #596, #285, #477, #186, #169, #238, #385, #487, #317, #133, #425, #183, #191, #331, #629, #554 ) ) ;
#320 = CARTESIAN_POINT ( 'NONE',  ( -97.00000000000000000, -4.500000000000000888, 10.00000000000000000 ) ) ;
#321 = VECTOR ( 'NONE', #209, 1000.000000000000000 ) ;
#322 = CARTESIAN_POINT ( 'NONE',  ( 97.00000000000000000, 0.000000000000000000, 7.000000000000000000 ) ) ;
#323 = EDGE_LOOP ( 'NONE', ( #648, #40, #424 ) ) ;
#324 = PLANE ( 'NONE',  #669 ) ;
#325 = DIRECTION ( 'NONE',  ( 0.000000000000000000, 0.000000000000000000, -1.000000000000000000 ) ) ;
#326 = VERTEX_POINT ( 'NONE', #293 ) ;
#327 = APPLICATION_PROTOCOL_DEFINITION ( 'international standard', 'config_control_design', 1994, #75 ) ;
#328 = LINE ( 'NONE', #122, #158 ) ;
#329 = ORIENTED_EDGE ( 'NONE', *, *, #498, .T. ) ;
#330 = CARTESIAN_POINT ( 'NONE',  ( 93.49999999999992895, -1.635247926651262063E-13, -10.00000000000000178 ) ) ;
#331 = ADVANCED_FACE ( 'NONE', ( #677 ), #46, .F. ) ;
#332 = CIRCLE ( 'NONE', #42, 2.499999999999995115 ) ;
#333 =( BOUNDED_CURVE ( )  B_SPLINE_CURVE ( 3, ( #465, #306, #407, #142 ),
 .UNSPECIFIED., .F., .T. ) 
 B_SPLINE_CURVE_WITH_KNOTS ( ( 4, 4 ),
 ( 4.712388980384689674, 6.283185307179586232 ),
 .UNSPECIFIED. ) 
 CURVE ( )  GEOMETRIC_REPRESENTATION_ITEM ( )  RATIONAL_B_SPLINE_CURVE ( ( 1.000000000000000000, 0.8047378541243649375, 0.8047378541243649375, 1.000000000000000000 ) ) 
 REPRESENTATION_ITEM ( '' )  );
#334 = EDGE_LOOP ( 'NONE', ( #266, #549, #603, #345 ) ) ;
#335 = LINE ( 'NONE', #662, #368 ) ;
#336 = EDGE_LOOP ( 'NONE', ( #313, #123, #28, #507 ) ) ;
#337 = DIRECTION ( 'NONE',  ( -1.000000000000000000, 0.000000000000000000, 0.000000000000000000 ) ) ;
#338 = EDGE_CURVE ( 'NONE', #605, #197, #517, .T. ) ;
#339 = EDGE_LOOP ( 'NONE', ( #140, #354, #253 ) ) ;
#340 = APPROVAL_ROLE ( '' ) ;
#341 = PLANE ( 'NONE',  #400 ) ;
#342 = APPROVAL_PERSON_ORGANIZATION ( #504, #587, #340 ) ;
#343 = ORIENTED_EDGE ( 'NONE', *, *, #52, .T. ) ;
#344 = LINE ( 'NONE', #506, #179 ) ;
#345 = ORIENTED_EDGE ( 'NONE', *, *, #116, .F. ) ;
#346 = SHAPE_DEFINITION_REPRESENTATION ( #48, #601 ) ;
#347 = ADVANCED_FACE ( 'NONE', ( #621 ), #299, .F. ) ;
#348 = LINE ( 'NONE', #43, #180 ) ;
#349 = ORIENTED_EDGE ( 'NONE', *, *, #482, .T. ) ;
#350 = DATE_AND_TIME ( #672, #249 ) ;
#351 = CARTESIAN_POINT ( 'NONE',  ( 100.0000000000000000, 7.499999999999999112, 7.000000000000000000 ) ) ;
#352 = EDGE_CURVE ( 'NONE', #197, #489, #333, .T. ) ;
#353 = VECTOR ( 'NONE', #4, 1000.000000000000114 ) ;
#354 = ORIENTED_EDGE ( 'NONE', *, *, #235, .T. ) ;
#355 = VECTOR ( 'NONE', #283, 1000.000000000000000 ) ;
#356 = PRODUCT ( 'RM-JJ-00084186-01', 'RM-JJ-00084186-01', '', ( #491 ) ) ;
#357 = CARTESIAN_POINT ( 'NONE',  ( -100.0000000000000000, -7.500000000000000000, 8.757359312880714342 ) ) ;
#358 = EDGE_CURVE ( 'NONE', #605, #396, #528, .T. ) ;
#359 = FACE_OUTER_BOUND ( 'NONE', #205, .T. ) ;
#360 = CARTESIAN_POINT ( 'NONE',  ( 93.49999999999992895, -1.635247926651262063E-13, -10.00000000000000000 ) ) ;
#361 = DIRECTION ( 'NONE',  ( 0.000000000000000000, 0.000000000000000000, 1.000000000000000000 ) ) ;
#362 = EDGE_CURVE ( 'NONE', #177, #461, #332, .T. ) ;
#363 = ORIENTED_EDGE ( 'NONE', *, *, #558, .T. ) ;
#364 = PLANE ( 'NONE',  #194 ) ;
#365 = DIRECTION ( 'NONE',  ( -0.000000000000000000, -0.000000000000000000, -1.000000000000000000 ) ) ;
#366 = VECTOR ( 'NONE', #361, 1000.000000000000000 ) ;
#367 = DIRECTION ( 'NONE',  ( -0.000000000000000000, -0.000000000000000000, -1.000000000000000000 ) ) ;
#368 = VECTOR ( 'NONE', #553, 1000.000000000000000 ) ;
#369 = CARTESIAN_POINT ( 'NONE',  ( 98.75735931288072322, 6.257359312880714342, 9.999999999999998224 ) ) ;
#370 = ORIENTED_EDGE ( 'NONE', *, *, #262, .T. ) ;
#371 = CARTESIAN_POINT ( 'NONE',  ( -100.0000000000000000, 7.499999999999999112, 10.00000000000000000 ) ) ;
#372 = DIRECTION ( 'NONE',  ( -1.000000000000000000, 0.000000000000000000, 0.000000000000000000 ) ) ;
#373 = DIRECTION ( 'NONE',  ( -0.000000000000000000, -0.000000000000000000, -1.000000000000000000 ) ) ;
#374 = CARTESIAN_POINT ( 'NONE',  ( 97.00000000000000000, 0.000000000000000000, 10.00000000000000000 ) ) ;
#375 = ORIENTED_EDGE ( 'NONE', *, *, #104, .T. ) ;
#376 = VECTOR ( 'NONE', #470, 1000.000000000000000 ) ;
#377 = CARTESIAN_POINT ( 'NONE',  ( -75.00000000000001421, -7.500000000000000888, -10.00000000000000000 ) ) ;
#378 = CC_DESIGN_APPROVAL ( #532, ( #228 ) ) ;
#379 = CARTESIAN_POINT ( 'NONE',  ( 49.99999999999992895, -1.644925685180098235E-13, -10.00000000000000178 ) ) ;
#380 = EDGE_CURVE ( 'NONE', #30, #605, #196, .T. ) ;
#381 = ORIENTED_EDGE ( 'NONE', *, *, #616, .T. ) ;
#382 = LINE ( 'NONE', #316, #670 ) ;
#383 = CARTESIAN_POINT ( 'NONE',  ( -45.00000000000001421, -7.500000000000000888, -10.00000000000000000 ) ) ;
#384 = EDGE_LOOP ( 'NONE', ( #234, #608, #229, #112 ) ) ;
#385 = ADVANCED_FACE ( 'NONE', ( #49 ), #625, .T. ) ;
#386 =( NAMED_UNIT ( * ) PLANE_ANGLE_UNIT ( ) SI_UNIT ( $, .RADIAN. ) );
#387 = CYLINDRICAL_SURFACE ( 'NONE', #256, 3.000000000000000000 ) ;
#388 = EDGE_CURVE ( 'NONE', #280, #431, #434, .T. ) ;
#389 = ORIENTED_EDGE ( 'NONE', *, *, #116, .T. ) ;
#390 = COORDINATED_UNIVERSAL_TIME_OFFSET ( 8, 0, .AHEAD. ) ;
#391 = AXIS2_PLACEMENT_3D ( 'NONE', #12, #315, #265 ) ;
#392 = VECTOR ( 'NONE', #113, 1000.000000000000000 ) ;
#393 = EDGE_LOOP ( 'NONE', ( #156, #304 ) ) ;
#394 = DIRECTION ( 'NONE',  ( 1.000000000000000000, 0.000000000000000000, 0.000000000000000000 ) ) ;
#395 = EDGE_CURVE ( 'NONE', #5, #143, #460, .T. ) ;
#396 = VERTEX_POINT ( 'NONE', #244 ) ;
#397 = ORIENTED_EDGE ( 'NONE', *, *, #100, .T. ) ;
#398 = DATE_TIME_ROLE ( 'classification_date' ) ;
#399 = DIRECTION ( 'NONE',  ( -1.000000000000000000, 0.000000000000000000, -0.000000000000000000 ) ) ;
#400 = AXIS2_PLACEMENT_3D ( 'NONE', #451, #560, #325 ) ;
#401 = VECTOR ( 'NONE', #59, 1000.000000000000000 ) ;
#402 = ORIENTED_EDGE ( 'NONE', *, *, #300, .T. ) ;
#403 = PERSON_AND_ORGANIZATION_ROLE ( 'creator' ) ;
#404 = ADVANCED_FACE ( 'NONE', ( #154 ), #247, .F. ) ;
#405 = DIRECTION ( 'NONE',  ( 1.000000000000000000, -0.000000000000000000, 0.000000000000000000 ) ) ;
#406 = ORIENTED_EDGE ( 'NONE', *, *, #645, .F. ) ;
#407 = CARTESIAN_POINT ( 'NONE',  ( 100.0000000000000000, -7.500000000000000000, 8.757359312880714342 ) ) ;
#408 = EDGE_LOOP ( 'NONE', ( #566, #538, #575 ) ) ;
#409 = CARTESIAN_POINT ( 'NONE',  ( -97.00000000000000000, 0.000000000000000000, 10.00000000000000000 ) ) ;
#410 = EDGE_CURVE ( 'NONE', #396, #326, #348, .T. ) ;
#411 = AXIS2_PLACEMENT_3D ( 'NONE', #50, #467, #224 ) ;
#412 = DIRECTION ( 'NONE',  ( 0.000000000000000000, 0.000000000000000000, 1.000000000000000000 ) ) ;
#413 = DIRECTION ( 'NONE',  ( -1.000000000000000000, 0.000000000000000000, 0.000000000000000000 ) ) ;
#414 = EDGE_CURVE ( 'NONE', #458, #61, #568, .T. ) ;
#415 = CARTESIAN_POINT ( 'NONE',  ( -45.00000000000001421, 7.499999999999999112, 2.000000000000000000 ) ) ;
#416 = EDGE_LOOP ( 'NONE', ( #349, #208, #73, #375 ) ) ;
#417 = DIRECTION ( 'NONE',  ( -0.000000000000000000, -0.000000000000000000, -1.000000000000000000 ) ) ;
#418 = LINE ( 'NONE', #117, #476 ) ;
#419 = EDGE_LOOP ( 'NONE', ( #101, #20, #389, #199 ) ) ;
#420 = DIRECTION ( 'NONE',  ( -1.000000000000000000, 0.000000000000000000, 0.000000000000000000 ) ) ;
#421 = CARTESIAN_POINT ( 'NONE',  ( -45.00000000000001421, 7.499999999999999112, 2.000000000000000000 ) ) ;
#422 = FACE_OUTER_BOUND ( 'NONE', #232, .T. ) ;
#423 = CARTESIAN_POINT ( 'NONE',  ( 90.99999999999992895, -1.635247926651262063E-13, 4.999999999999999112 ) ) ;
#424 = ORIENTED_EDGE ( 'NONE', *, *, #34, .T. ) ;
#425 = ADVANCED_FACE ( 'NONE', ( #7 ), #364, .F. ) ;
#426 = DIRECTION ( 'NONE',  ( -1.000000000000000000, -0.000000000000000000, -0.000000000000000000 ) ) ;
#427 = DIRECTION ( 'NONE',  ( -0.000000000000000000, -0.000000000000000000, -1.000000000000000000 ) ) ;
#428 = CARTESIAN_POINT ( 'NONE',  ( 0.000000000000000000, 4.499999999999999112, 7.000000000000000000 ) ) ;
#429 = EDGE_CURVE ( 'NONE', #458, #489, #508, .T. ) ;
#430 = DIRECTION ( 'NONE',  ( -0.000000000000000000, -1.000000000000000000, -0.000000000000000000 ) ) ;
#431 = VERTEX_POINT ( 'NONE', #145 ) ;
#432 = VECTOR ( 'NONE', #430, 1000.000000000000000 ) ;
#433 = LINE ( 'NONE', #62, #455 ) ;
#434 = CIRCLE ( 'NONE', #523, 2.499999999999988454 ) ;
#435 = CC_DESIGN_APPROVAL ( #587, ( #26 ) ) ;
#436 = CARTESIAN_POINT ( 'NONE',  ( 97.00000000000000000, 4.499999999999999112, 10.00000000000000000 ) ) ;
#437 = EDGE_LOOP ( 'NONE', ( #105, #619, #381, #363 ) ) ;
#438 = CARTESIAN_POINT ( 'NONE',  ( -75.00000000000001421, -7.500000000000000888, 2.000000000000000000 ) ) ;
#439 = CARTESIAN_POINT ( 'NONE',  ( 47.49999999999992895, -1.647987302177966740E-13, 6.502151547568899126 ) ) ;
#440 = ORIENTED_EDGE ( 'NONE', *, *, #660, .T. ) ;
#441 = ORIENTED_EDGE ( 'NONE', *, *, #505, .T. ) ;
#442 = LINE ( 'NONE', #132, #659 ) ;
#443 = CIRCLE ( 'NONE', #308, 2.500000000000002220 ) ;
#444 = LOCAL_TIME ( 14, 51, 34.00000000000000000, #198 ) ;
#445 = EDGE_LOOP ( 'NONE', ( #655, #653, #275, #309 ) ) ;
#446 = DIRECTION ( 'NONE',  ( 0.000000000000000000, 0.000000000000000000, 1.000000000000000000 ) ) ;
#447 = CC_DESIGN_DATE_AND_TIME_ASSIGNMENT ( #350, #398, ( #80 ) ) ;
#448 = EDGE_LOOP ( 'NONE', ( #91, #284, #468, #671 ) ) ;
#449 = PERSON_AND_ORGANIZATION ( #581, #524 ) ;
#450 = CARTESIAN_POINT ( 'NONE',  ( -98.75735931288072322, 6.257359312880714342, 9.999999999999998224 ) ) ;
#451 = CARTESIAN_POINT ( 'NONE',  ( -100.0000000000000000, -7.500000000000000888, 10.00000000000000000 ) ) ;
#452 = EDGE_LOOP ( 'NONE', ( #58, #552, #397, #24 ) ) ;
#453 = CARTESIAN_POINT ( 'NONE',  ( 47.49999999999993605, -1.647987302177966740E-13, 4.999999999999999112 ) ) ;
#454 = CC_DESIGN_PERSON_AND_ORGANIZATION_ASSIGNMENT ( #178, #614, ( #26 ) ) ;
#455 = VECTOR ( 'NONE', #226, 1000.000000000000000 ) ;
#456 = ORIENTED_EDGE ( 'NONE', *, *, #395, .F. ) ;
#457 = CALENDAR_DATE ( 2026, 24, 4 ) ;
#458 = VERTEX_POINT ( 'NONE', #351 ) ;
#459 = APPROVAL_ROLE ( '' ) ;
#460 = LINE ( 'NONE', #631, #216 ) ;
#461 = VERTEX_POINT ( 'NONE', #571 ) ;
#462 = CALENDAR_DATE ( 2026, 24, 4 ) ;
#463 = DESIGN_CONTEXT ( 'detailed design', #75, 'design' ) ;
#464 = CC_DESIGN_PERSON_AND_ORGANIZATION_ASSIGNMENT ( #286, #29, ( #356 ) ) ;
#465 = CARTESIAN_POINT ( 'NONE',  ( 97.00000000000000000, -4.500000000000000888, 10.00000000000000000 ) ) ;
#466 = VECTOR ( 'NONE', #176, 1000.000000000000000 ) ;
#467 = DIRECTION ( 'NONE',  ( 1.000000000000000000, 0.000000000000000000, 0.000000000000000000 ) ) ;
#468 = ORIENTED_EDGE ( 'NONE', *, *, #663, .F. ) ;
#469 = CARTESIAN_POINT ( 'NONE',  ( 100.0000000000000000, 7.499999999999999112, 10.00000000000000000 ) ) ;
#470 = DIRECTION ( 'NONE',  ( -0.000000000000000000, -1.000000000000000000, -0.000000000000000000 ) ) ;
#471 = CARTESIAN_POINT ( 'NONE',  ( -75.00000000000001421, -7.500000000000000888, 2.000000000000000000 ) ) ;
#472 = EDGE_CURVE ( 'NONE', #35, #96, #99, .T. ) ;
#473 = FACE_OUTER_BOUND ( 'NONE', #448, .T. ) ;
#474 = CARTESIAN_POINT ( 'NONE',  ( 49.99999999999993605, -1.644925685180098235E-13, -10.00000000000000000 ) ) ;
#475 = DIRECTION ( 'NONE',  ( 0.000000000000000000, 0.000000000000000000, 1.000000000000000000 ) ) ;
#476 = VECTOR ( 'NONE', #627, 1000.000000000000000 ) ;
#477 = ADVANCED_FACE ( 'NONE', ( #588 ), #324, .F. ) ;
#478 = EDGE_LOOP ( 'NONE', ( #282, #292, #134, #530 ) ) ;
#479 = VECTOR ( 'NONE', #21, 1000.000000000000000 ) ;
#480 = FACE_OUTER_BOUND ( 'NONE', #419, .T. ) ;
#481 = PLANE ( 'NONE',  #148 ) ;
#482 = EDGE_CURVE ( 'NONE', #496, #667, #531, .T. ) ;
#483 = CARTESIAN_POINT ( 'NONE',  ( -100.0000000000000000, -7.500000000000000888, 10.00000000000000000 ) ) ;
#484 = DIRECTION ( 'NONE',  ( 0.000000000000000000, 0.000000000000000000, -1.000000000000000000 ) ) ;
#485 = ORIENTED_EDGE ( 'NONE', *, *, #137, .T. ) ;
#486 = CARTESIAN_POINT ( 'NONE',  ( -100.0000000000000000, 7.499999999999999112, 7.000000000000000000 ) ) ;
#487 = ADVANCED_FACE ( 'NONE', ( #222 ), #544, .T. ) ;
#488 = CARTESIAN_POINT ( 'NONE',  ( 0.000000000000000000, 0.000000000000000000, 10.00000000000000000 ) ) ;
#489 = VERTEX_POINT ( 'NONE', #115 ) ;
#490 = VECTOR ( 'NONE', #618, 1000.000000000000000 ) ;
#491 = MECHANICAL_CONTEXT ( 'NONE', #38, 'mechanical' ) ;
#492 = AXIS2_PLACEMENT_3D ( 'NONE', #330, #495, #89 ) ;
#493 = CYLINDRICAL_SURFACE ( 'NONE', #609, 3.000000000000000000 ) ;
#494 = ORIENTED_EDGE ( 'NONE', *, *, #509, .T. ) ;
#495 = DIRECTION ( 'NONE',  ( -0.000000000000000000, -0.000000000000000000, -1.000000000000000000 ) ) ;
#496 = VERTEX_POINT ( 'NONE', #63 ) ;
#497 = CARTESIAN_POINT ( 'NONE',  ( 90.99999999999994316, -1.635247926651262063E-13, -10.00000000000000000 ) ) ;
#498 = EDGE_CURVE ( 'NONE', #143, #557, #11, .T. ) ;
#499 = EDGE_LOOP ( 'NONE', ( #83, #555, #590, #294 ) ) ;
#500 = CC_DESIGN_PERSON_AND_ORGANIZATION_ASSIGNMENT ( #567, #403, ( #228 ) ) ;
#501 = CARTESIAN_POINT ( 'NONE',  ( 47.49999999999993605, -1.647987302177966740E-13, 4.999999999999999112 ) ) ;
#502 =( GEOMETRIC_REPRESENTATION_CONTEXT ( 3 ) GLOBAL_UNCERTAINTY_ASSIGNED_CONTEXT ( ( #591 ) ) GLOBAL_UNIT_ASSIGNED_CONTEXT ( ( #182, #386, #74 ) ) REPRESENTATION_CONTEXT ( 'NONE', 'WORKASPACE' ) );
#503 = ORIENTED_EDGE ( 'NONE', *, *, #642, .F. ) ;
#504 = PERSON_AND_ORGANIZATION ( #581, #524 ) ;
#505 = EDGE_CURVE ( 'NONE', #667, #557, #167, .T. ) ;
#506 = CARTESIAN_POINT ( 'NONE',  ( -100.0000000000000000, 7.499999999999999112, 10.00000000000000000 ) ) ;
#507 = ORIENTED_EDGE ( 'NONE', *, *, #519, .T. ) ;
#508 = LINE ( 'NONE', #39, #636 ) ;
#509 = EDGE_CURVE ( 'NONE', #326, #458, #273, .T. ) ;
#510 = APPROVAL_DATE_TIME ( #570, #44 ) ;
#511 = CARTESIAN_POINT ( 'NONE',  ( -98.75735931288072322, -6.257359312880714342, 9.999999999999998224 ) ) ;
#512 = AXIS2_PLACEMENT_3D ( 'NONE', #166, #36, #241 ) ;
#513 = VECTOR ( 'NONE', #632, 1000.000000000000000 ) ;
#514 = CARTESIAN_POINT ( 'NONE',  ( -75.00000000000001421, 7.499999999999999112, 2.000000000000000000 ) ) ;
#515 = DIRECTION ( 'NONE',  ( -0.000000000000000000, -0.000000000000000000, -1.000000000000000000 ) ) ;
#516 = ORIENTED_EDGE ( 'NONE', *, *, #414, .T. ) ;
#517 = LINE ( 'NONE', #200, #277 ) ;
#518 = LINE ( 'NONE', #421, #376 ) ;
#519 = EDGE_CURVE ( 'NONE', #70, #297, #433, .T. ) ;
#520 = CARTESIAN_POINT ( 'NONE',  ( 0.000000000000000000, -4.500000000000000888, 7.000000000000000000 ) ) ;
#521 = CIRCLE ( 'NONE', #512, 2.499999999999995115 ) ;
#522 = CARTESIAN_POINT ( 'NONE',  ( -45.00000000000001421, 7.499999999999999112, -10.00000000000000000 ) ) ;
#523 = AXIS2_PLACEMENT_3D ( 'NONE', #252, #417, #53 ) ;
#524 = ORGANIZATION ( '未指定', '未指定', '' ) ;
#525 = ORIENTED_EDGE ( 'NONE', *, *, #259, .F. ) ;
#526 = CARTESIAN_POINT ( 'NONE',  ( 93.49999999999992895, -1.635247926651262063E-13, -10.00000000000000178 ) ) ;
#527 = EDGE_CURVE ( 'NONE', #79, #5, #382, .T. ) ;
#528 =( BOUNDED_CURVE ( )  B_SPLINE_CURVE ( 3, ( #668, #511, #357, #296 ),
 .UNSPECIFIED., .F., .T. ) 
 B_SPLINE_CURVE_WITH_KNOTS ( ( 4, 4 ),
 ( 1.570796326794896558, 3.141592653589793116 ),
 .UNSPECIFIED. ) 
 CURVE ( )  GEOMETRIC_REPRESENTATION_ITEM ( )  RATIONAL_B_SPLINE_CURVE ( ( 1.000000000000000000, 0.8047378541243649375, 0.8047378541243649375, 1.000000000000000000 ) ) 
 REPRESENTATION_ITEM ( '' )  );
#529 = FACE_BOUND ( 'NONE', #393, .T. ) ;
#530 = ORIENTED_EDGE ( 'NONE', *, *, #338, .F. ) ;
#531 = LINE ( 'NONE', #471, #78 ) ;
#532 = APPROVAL ( #41, '未指定' ) ;
#533 = CARTESIAN_POINT ( 'NONE',  ( -45.00000000000001421, 7.499999999999999112, -10.00000000000000000 ) ) ;
#534 = DIRECTION ( 'NONE',  ( -0.000000000000000000, -0.000000000000000000, -1.000000000000000000 ) ) ;
#535 = PLANE ( 'NONE',  #86 ) ;
#536 = AXIS2_PLACEMENT_3D ( 'NONE', #360, #579, #413 ) ;
#537 = EDGE_CURVE ( 'NONE', #245, #557, #267, .T. ) ;
#538 = ORIENTED_EDGE ( 'NONE', *, *, #656, .T. ) ;
#539 = CARTESIAN_POINT ( 'NONE',  ( -100.0000000000000000, -7.500000000000000888, -10.00000000000000000 ) ) ;
#540 = DIRECTION ( 'NONE',  ( 0.000000000000000000, 0.000000000000000000, 1.000000000000000000 ) ) ;
#541 = VERTEX_POINT ( 'NONE', #108 ) ;
#542 = MANIFOLD_SOLID_BREP ( 'M6 螺纹孔1', #319 ) ;
#543 = EDGE_CURVE ( 'NONE', #297, #496, #314, .T. ) ;
#544 = CYLINDRICAL_SURFACE ( 'NONE', #612, 3.000000000000000000 ) ;
#545 = CARTESIAN_POINT ( 'NONE',  ( -100.0000000000000000, -7.500000000000000888, -10.00000000000000000 ) ) ;
#546 = EDGE_LOOP ( 'NONE', ( #615, #598, #131, #125, #622, #503, #569, #120 ) ) ;
#547 = CARTESIAN_POINT ( 'NONE',  ( -100.0000000000000000, 7.499999999999999112, 7.000000000000000000 ) ) ;
#548 = FACE_OUTER_BOUND ( 'NONE', #10, .T. ) ;
#549 = ORIENTED_EDGE ( 'NONE', *, *, #577, .T. ) ;
#550 = DIRECTION ( 'NONE',  ( -0.000000000000000000, -0.000000000000000000, -1.000000000000000000 ) ) ;
#551 = VECTOR ( 'NONE', #172, 1000.000000000000000 ) ;
#552 = ORIENTED_EDGE ( 'NONE', *, *, #305, .T. ) ;
#553 = DIRECTION ( 'NONE',  ( -0.8571673007021114454, 0.000000000000000000, -0.5150380749100555988 ) ) ;
#554 = ADVANCED_FACE ( 'NONE', ( #480 ), #264, .F. ) ;
#555 = ORIENTED_EDGE ( 'NONE', *, *, #410, .T. ) ;
#556 = CARTESIAN_POINT ( 'NONE',  ( -100.0000000000000000, 7.499999999999999112, -10.00000000000000000 ) ) ;
#557 = VERTEX_POINT ( 'NONE', #15 ) ;
#558 = EDGE_CURVE ( 'NONE', #541, #96, #236, .T. ) ;
#559 = DATE_AND_TIME ( #657, #195 ) ;
#560 = DIRECTION ( 'NONE',  ( 1.000000000000000000, 0.000000000000000000, 0.000000000000000000 ) ) ;
#561 = AXIS2_PLACEMENT_3D ( 'NONE', #526, #592, #638 ) ;
#562 = LINE ( 'NONE', #580, #353 ) ;
#563 = SECURITY_CLASSIFICATION_LEVEL ( 'unclassified' ) ;
#564 = EDGE_CURVE ( 'NONE', #431, #280, #649, .T. ) ;
#565 = FACE_OUTER_BOUND ( 'NONE', #499, .T. ) ;
#566 = ORIENTED_EDGE ( 'NONE', *, *, #235, .F. ) ;
#567 = PERSON_AND_ORGANIZATION ( #581, #524 ) ;
#568 = LINE ( 'NONE', #469, #23 ) ;
#569 = ORIENTED_EDGE ( 'NONE', *, *, #223, .T. ) ;
#570 = DATE_AND_TIME ( #675, #444 ) ;
#571 = CARTESIAN_POINT ( 'NONE',  ( 49.99999999999993605, -1.644925685180098235E-13, 4.999999999999999112 ) ) ;
#572 = AXIS2_PLACEMENT_3D ( 'NONE', #453, #515, #623 ) ;
#573 = CONICAL_SURFACE ( 'NONE', #159, 2.499999999999995115, 1.029744258676652757 ) ;
#574 = APPROVAL_PERSON_ORGANIZATION ( #620, #44, #459 ) ;
#575 = ORIENTED_EDGE ( 'NONE', *, *, #362, .T. ) ;
#576 = DIRECTION ( 'NONE',  ( 0.000000000000000000, -1.000000000000000000, 0.000000000000000000 ) ) ;
#577 = EDGE_CURVE ( 'NONE', #461, #280, #163, .T. ) ;
#578 = PLANE ( 'NONE',  #391 ) ;
#579 = DIRECTION ( 'NONE',  ( -0.000000000000000000, -0.000000000000000000, -1.000000000000000000 ) ) ;
#580 = CARTESIAN_POINT ( 'NONE',  ( 95.99999999999992895, -1.632186309653393558E-13, 4.999999999999999112 ) ) ;
#581 = PERSON ( '未指定', '未指定', '未指定', ('未指定'), ('未指定'), ('未指定') ) ;
#582 = ORIENTED_EDGE ( 'NONE', *, *, #527, .T. ) ;
#583 = CARTESIAN_POINT ( 'NONE',  ( 47.49999999999993605, -1.647987302177966740E-13, 4.999999999999999112 ) ) ;
#584 = CARTESIAN_POINT ( 'NONE',  ( -75.00000000000001421, 7.499999999999999112, -10.00000000000000000 ) ) ;
#585 = APPROVAL_PERSON_ORGANIZATION ( #449, #532, #97 ) ;
#586 = EDGE_LOOP ( 'NONE', ( #37, #225 ) ) ;
#587 = APPROVAL ( #175, '未指定' ) ;
#588 = FACE_OUTER_BOUND ( 'NONE', #546, .T. ) ;
#589 = CARTESIAN_POINT ( 'NONE',  ( 95.99999999999992895, -1.632186309653393558E-13, 4.999999999999999112 ) ) ;
#590 = ORIENTED_EDGE ( 'NONE', *, *, #242, .T. ) ;
#591 = UNCERTAINTY_MEASURE_WITH_UNIT (LENGTH_MEASURE( 1.000000000000000082E-05 ), #182, 'distance_accuracy_value', 'NONE');
#592 = DIRECTION ( 'NONE',  ( -0.000000000000000000, -0.000000000000000000, -1.000000000000000000 ) ) ;
#593 = CARTESIAN_POINT ( 'NONE',  ( 97.00000000000000000, 4.499999999999999112, 10.00000000000000000 ) ) ;
#594 = EDGE_LOOP ( 'NONE', ( #243, #181, #661, #287 ) ) ;
#595 = LINE ( 'NONE', #118, #66 ) ;
#596 = ADVANCED_FACE ( 'NONE', ( #422 ), #261, .F. ) ;
#597 = DIRECTION ( 'NONE',  ( 0.000000000000000000, 1.000000000000000000, 0.000000000000000000 ) ) ;
#598 = ORIENTED_EDGE ( 'NONE', *, *, #505, .F. ) ;
#599 = AXIS2_PLACEMENT_3D ( 'NONE', #276, #446, #394 ) ;
#600 = DIRECTION ( 'NONE',  ( -0.000000000000000000, -1.000000000000000000, -0.000000000000000000 ) ) ;
#601 = ADVANCED_BREP_SHAPE_REPRESENTATION ( 'RM-JJ-00084186-01', ( #542, #599 ), #502 ) ;
#602 = LINE ( 'NONE', #374, #490 ) ;
#603 = ORIENTED_EDGE ( 'NONE', *, *, #388, .T. ) ;
#604 = LINE ( 'NONE', #545, #432 ) ;
#605 = VERTEX_POINT ( 'NONE', #320 ) ;
#606 = FACE_OUTER_BOUND ( 'NONE', #408, .T. ) ;
#607 = DIRECTION ( 'NONE',  ( 0.000000000000000000, 0.000000000000000000, -1.000000000000000000 ) ) ;
#608 = ORIENTED_EDGE ( 'NONE', *, *, #472, .T. ) ;
#609 = AXIS2_PLACEMENT_3D ( 'NONE', #322, #597, #540 ) ;
#610 = LINE ( 'NONE', #556, #355 ) ;
#611 = EDGE_CURVE ( 'NONE', #297, #237, #595, .T. ) ;
#612 = AXIS2_PLACEMENT_3D ( 'NONE', #428, #71, #644 ) ;
#613 = ORIENTED_EDGE ( 'NONE', *, *, #395, .T. ) ;
#614 = PERSON_AND_ORGANIZATION_ROLE ( 'creator' ) ;
#615 = ORIENTED_EDGE ( 'NONE', *, *, #537, .T. ) ;
#616 = EDGE_CURVE ( 'NONE', #174, #541, #270, .T. ) ;
#617 = DIRECTION ( 'NONE',  ( -0.000000000000000000, -0.000000000000000000, -1.000000000000000000 ) ) ;
#618 = DIRECTION ( 'NONE',  ( 0.000000000000000000, 1.000000000000000000, 0.000000000000000000 ) ) ;
#619 = ORIENTED_EDGE ( 'NONE', *, *, #137, .F. ) ;
#620 = PERSON_AND_ORGANIZATION ( #581, #524 ) ;
#621 = FACE_OUTER_BOUND ( 'NONE', #384, .T. ) ;
#622 = ORIENTED_EDGE ( 'NONE', *, *, #611, .T. ) ;
#623 = DIRECTION ( 'NONE',  ( -1.000000000000000000, 0.000000000000000000, 0.000000000000000000 ) ) ;
#624 = EDGE_LOOP ( 'NONE', ( #658, #184, #171, #32 ) ) ;
#625 = CYLINDRICAL_SURFACE ( 'NONE', #55, 3.000000000000000000 ) ;
#626 = CIRCLE ( 'NONE', #492, 2.499999999999988454 ) ;
#627 = DIRECTION ( 'NONE',  ( -1.000000000000000000, 0.000000000000000000, 0.000000000000000000 ) ) ;
#628 = CARTESIAN_POINT ( 'NONE',  ( 93.49999999999992895, -1.635247926651262063E-13, -10.00000000000000000 ) ) ;
#629 = ADVANCED_FACE ( 'NONE', ( #606 ), #573, .F. ) ;
#630 = CARTESIAN_POINT ( 'NONE',  ( -97.00000000000000000, 4.499999999999999112, 10.00000000000000000 ) ) ;
#631 = CARTESIAN_POINT ( 'NONE',  ( -75.00000000000001421, 7.499999999999999112, -10.00000000000000000 ) ) ;
#632 = DIRECTION ( 'NONE',  ( -0.000000000000000000, -0.000000000000000000, -1.000000000000000000 ) ) ;
#633 = DIRECTION ( 'NONE',  ( 0.000000000000000000, -1.000000000000000000, 0.000000000000000000 ) ) ;
#634 = AXIS2_PLACEMENT_3D ( 'NONE', #628, #673, #149 ) ;
#635 = CARTESIAN_POINT ( 'NONE',  ( 90.99999999999992895, -1.635247926651262063E-13, 4.999999999999999112 ) ) ;
#636 = VECTOR ( 'NONE', #94, 1000.000000000000000 ) ;
#637 = VECTOR ( 'NONE', #31, 1000.000000000000000 ) ;
#638 = DIRECTION ( 'NONE',  ( -1.000000000000000000, 0.000000000000000000, 0.000000000000000000 ) ) ;
#639 = PLANE ( 'NONE',  #411 ) ;
#640 = EDGE_LOOP ( 'NONE', ( #212, #343, #485 ) ) ;
#641 = CARTESIAN_POINT ( 'NONE',  ( -75.00000000000001421, 7.499999999999999112, -10.00000000000000000 ) ) ;
#642 = EDGE_CURVE ( 'NONE', #489, #237, #442, .T. ) ;
#643 = CARTESIAN_POINT ( 'NONE',  ( 49.99999999999993605, -1.644925685180098235E-13, 4.999999999999999112 ) ) ;
#644 = DIRECTION ( 'NONE',  ( 0.000000000000000000, 0.000000000000000000, 1.000000000000000000 ) ) ;
#645 = EDGE_CURVE ( 'NONE', #326, #30, #220, .T. ) ;
#646 = FACE_OUTER_BOUND ( 'NONE', #674, .T. ) ;
#647 = CONICAL_SURFACE ( 'NONE', #54, 2.500000000000002220, 1.029744258676655200 ) ;
#648 = ORIENTED_EDGE ( 'NONE', *, *, #52, .F. ) ;
#649 = CIRCLE ( 'NONE', #258, 2.499999999999988454 ) ;
#650 = DIRECTION ( 'NONE',  ( -1.000000000000000000, -0.000000000000000000, -0.000000000000000000 ) ) ;
#651 = CC_DESIGN_SECURITY_CLASSIFICATION ( #80, ( #228 ) ) ;
#652 = LINE ( 'NONE', #227, #109 ) ;
#653 = ORIENTED_EDGE ( 'NONE', *, *, #100, .F. ) ;
#654 = CARTESIAN_POINT ( 'NONE',  ( -100.0000000000000000, 7.499999999999999112, -10.00000000000000000 ) ) ;
#655 = ORIENTED_EDGE ( 'NONE', *, *, #645, .T. ) ;
#656 = EDGE_CURVE ( 'NONE', #187, #177, #335, .T. ) ;
#657 = CALENDAR_DATE ( 2026, 24, 4 ) ;
#658 = ORIENTED_EDGE ( 'NONE', *, *, #414, .F. ) ;
#659 = VECTOR ( 'NONE', #84, 1000.000000000000000 ) ;
#660 = EDGE_CURVE ( 'NONE', #61, #70, #610, .T. ) ;
#661 = ORIENTED_EDGE ( 'NONE', *, *, #150, .T. ) ;
#662 = CARTESIAN_POINT ( 'NONE',  ( 44.99999999999994316, -1.647987302177966740E-13, 4.999999999999999112 ) ) ;
#663 = EDGE_CURVE ( 'NONE', #237, #61, #82, .T. ) ;
#664 = CARTESIAN_POINT ( 'NONE',  ( 47.49999999999993605, -1.647987302177966740E-13, -10.00000000000000000 ) ) ;
#665 = CARTESIAN_POINT ( 'NONE',  ( -97.00000000000000000, 4.499999999999999112, 10.00000000000000000 ) ) ;
#666 = LINE ( 'NONE', #654, #77 ) ;
#667 = VERTEX_POINT ( 'NONE', #438 ) ;
#668 = CARTESIAN_POINT ( 'NONE',  ( -97.00000000000000000, -4.500000000000000888, 10.00000000000000000 ) ) ;
#669 = AXIS2_PLACEMENT_3D ( 'NONE', #483, #121, #18 ) ;
#670 = VECTOR ( 'NONE', #650, 1000.000000000000000 ) ;
#671 = ORIENTED_EDGE ( 'NONE', *, *, #611, .F. ) ;
#672 = CALENDAR_DATE ( 2026, 24, 4 ) ;
#673 = DIRECTION ( 'NONE',  ( -0.000000000000000000, -0.000000000000000000, -1.000000000000000000 ) ) ;
#674 = EDGE_LOOP ( 'NONE', ( #329, #272, #525, #218 ) ) ;
#675 = CALENDAR_DATE ( 2026, 24, 4 ) ;
#676 = EDGE_CURVE ( 'NONE', #96, #541, #626, .T. ) ;
#677 = FACE_OUTER_BOUND ( 'NONE', #437, .T. ) ;
ENDSEC;
END-ISO-10303-21;
