ISO-10303-21;
HEADER;
FILE_DESCRIPTION (( 'STEP AP203' ),
    '1' );
FILE_NAME ('RM-JJ-00083841-01.step',
    '2026-04-24T06:59:35',
    ( '1' ),
    ( '' ),
    'SwSTEP 2.0',
    'SolidWorks 2022',
    '' );
FILE_SCHEMA (( 'CONFIG_CONTROL_DESIGN' ));
ENDSEC;

DATA;
#1 = EDGE_LOOP ( 'NONE', ( #929, #998, #115, #917 ) ) ;
#2 = LINE ( 'NONE', #632, #655 ) ;
#3 = VERTEX_POINT ( 'NONE', #217 ) ;
#4 = DIRECTION ( 'NONE',  ( 0.000000000000000000, 0.000000000000000000, 1.000000000000000000 ) ) ;
#5 = VECTOR ( 'NONE', #920, 1000.000000000000000 ) ;
#6 = CIRCLE ( 'NONE', #201, 4.999999999999999112 ) ;
#7 = EDGE_LOOP ( 'NONE', ( #244, #379 ) ) ;
#8 = DIRECTION ( 'NONE',  ( 0.000000000000000000, -1.000000000000000000, 0.000000000000000000 ) ) ;
#9 = ORIENTED_EDGE ( 'NONE', *, *, #750, .F. ) ;
#10 = PLANE ( 'NONE',  #335 ) ;
#11 = CYLINDRICAL_SURFACE ( 'NONE', #394, 0.5000000000000004441 ) ;
#12 = ORIENTED_EDGE ( 'NONE', *, *, #858, .T. ) ;
#13 = CARTESIAN_POINT ( 'NONE',  ( -7.999999999999996447, 1.000000000000007772, 6.000000000000000000 ) ) ;
#14 = ORIENTED_EDGE ( 'NONE', *, *, #221, .T. ) ;
#15 = DIRECTION ( 'NONE',  ( 1.000000000000000000, -0.000000000000000000, -0.000000000000000000 ) ) ;
#16 = PLANE ( 'NONE',  #811 ) ;
#17 = EDGE_CURVE ( 'NONE', #154, #3, #71, .T. ) ;
#18 = ORIENTED_EDGE ( 'NONE', *, *, #409, .T. ) ;
#19 = DIRECTION ( 'NONE',  ( 1.000000000000000000, 0.000000000000000000, 0.000000000000000000 ) ) ;
#20 = CARTESIAN_POINT ( 'NONE',  ( 14.00000000000001066, 6.499999999999997335, 0.5999999999999989786 ) ) ;
#21 = CARTESIAN_POINT ( 'NONE',  ( -8.999999999999998224, 12.50000000000000000, 6.000000000000000000 ) ) ;
#22 = ORIENTED_EDGE ( 'NONE', *, *, #114, .F. ) ;
#23 = VECTOR ( 'NONE', #19, 1000.000000000000000 ) ;
#24 = DIRECTION ( 'NONE',  ( -0.000000000000000000, -0.000000000000000000, 1.000000000000000000 ) ) ;
#25 = AXIS2_PLACEMENT_3D ( 'NONE', #626, #939, #609 ) ;
#26 = ADVANCED_FACE ( 'NONE', ( #210 ), #129, .F. ) ;
#27 = DIRECTION ( 'NONE',  ( 0.000000000000000000, 0.000000000000000000, -1.000000000000000000 ) ) ;
#28 = CARTESIAN_POINT ( 'NONE',  ( 2.099999999999997868, -6.000000000000003553, -6.000000000000000000 ) ) ;
#29 = ORIENTED_EDGE ( 'NONE', *, *, #654, .T. ) ;
#30 = DIRECTION ( 'NONE',  ( -0.000000000000000000, -0.000000000000000000, 1.000000000000000000 ) ) ;
#31 = DIRECTION ( 'NONE',  ( -0.000000000000000000, -0.000000000000000000, 1.000000000000000000 ) ) ;
#32 = ORIENTED_EDGE ( 'NONE', *, *, #606, .T. ) ;
#33 = CARTESIAN_POINT ( 'NONE',  ( 14.00000000000001066, 6.499999999999997335, -6.000000000000000888 ) ) ;
#34 = ORIENTED_EDGE ( 'NONE', *, *, #820, .F. ) ;
#35 = PRODUCT_DEFINITION_SHAPE ( 'NONE', 'NONE',  #681 ) ;
#36 = VECTOR ( 'NONE', #662, 1000.000000000000000 ) ;
#37 = DIRECTION ( 'NONE',  ( -0.000000000000000000, -0.000000000000000000, 1.000000000000000000 ) ) ;
#38 = AXIS2_PLACEMENT_3D ( 'NONE', #148, #786, #75 ) ;
#39 = EDGE_CURVE ( 'NONE', #982, #683, #127, .T. ) ;
#40 = ORIENTED_EDGE ( 'NONE', *, *, #454, .F. ) ;
#41 = DIRECTION ( 'NONE',  ( -0.000000000000000000, -0.000000000000000000, 1.000000000000000000 ) ) ;
#42 = CARTESIAN_POINT ( 'NONE',  ( 14.00000000000001066, 6.499999999999997335, -6.000000000000000888 ) ) ;
#43 = ORIENTED_EDGE ( 'NONE', *, *, #891, .F. ) ;
#44 = EDGE_CURVE ( 'NONE', #203, #526, #895, .T. ) ;
#45 = FACE_OUTER_BOUND ( 'NONE', #152, .T. ) ;
#46 = CARTESIAN_POINT ( 'NONE',  ( -1.825698672451220991E-16, -6.000000000000003553, 6.000000000000000000 ) ) ;
#47 = AXIS2_PLACEMENT_3D ( 'NONE', #737, #648, #333 ) ;
#48 = VERTEX_POINT ( 'NONE', #21 ) ;
#49 = PLANE ( 'NONE',  #573 ) ;
#50 = CARTESIAN_POINT ( 'NONE',  ( -14.00000000000001066, 6.499999999999997335, 0.5999999999999989786 ) ) ;
#51 = CC_DESIGN_DATE_AND_TIME_ASSIGNMENT ( #778, #701, ( #681 ) ) ;
#52 = VECTOR ( 'NONE', #759, 1000.000000000000000 ) ;
#53 = DIRECTION ( 'NONE',  ( -0.000000000000000000, 0.000000000000000000, 1.000000000000000000 ) ) ;
#54 = CARTESIAN_POINT ( 'NONE',  ( 8.000000000000003553, 24.50000000000000355, 6.000000000000000000 ) ) ;
#55 = ORIENTED_EDGE ( 'NONE', *, *, #91, .T. ) ;
#56 = CARTESIAN_POINT ( 'NONE',  ( 14.00000000000001066, 6.499999999999997335, 0.5999999999999989786 ) ) ;
#57 = DIRECTION ( 'NONE',  ( 0.000000000000000000, 0.000000000000000000, 1.000000000000000000 ) ) ;
#58 = LINE ( 'NONE', #134, #234 ) ;
#59 = ADVANCED_FACE ( 'NONE', ( #90 ), #16, .F. ) ;
#60 = DIRECTION ( 'NONE',  ( 1.000000000000000000, 0.000000000000000000, 0.000000000000000000 ) ) ;
#61 = ORIENTED_EDGE ( 'NONE', *, *, #507, .T. ) ;
#62 = CARTESIAN_POINT ( 'NONE',  ( -11.25000000000001066, 6.499999999999997335, 0.5999999999999989786 ) ) ;
#63 = CARTESIAN_POINT ( 'NONE',  ( -14.00000000000001066, 6.499999999999997335, -6.000000000000000888 ) ) ;
#64 = ORIENTED_EDGE ( 'NONE', *, *, #582, .T. ) ;
#65 = VERTEX_POINT ( 'NONE', #404 ) ;
#66 = CARTESIAN_POINT ( 'NONE',  ( -1.825698672451220991E-16, -6.000000000000003553, 6.000000000000000000 ) ) ;
#67 = ORIENTED_EDGE ( 'NONE', *, *, #338, .F. ) ;
#68 = CARTESIAN_POINT ( 'NONE',  ( -7.499999999999996447, 0.5000000000000011102, -6.000000000000000000 ) ) ;
#69 = CIRCLE ( 'NONE', #990, 4.999999999999999112 ) ;
#70 = CIRCLE ( 'NONE', #38, 0.5000000000000004441 ) ;
#71 = CIRCLE ( 'NONE', #738, 2.099999999999997868 ) ;
#72 = ORIENTED_EDGE ( 'NONE', *, *, #425, .T. ) ;
#73 = LINE ( 'NONE', #942, #198 ) ;
#74 = DATE_AND_TIME ( #760, #283 ) ;
#75 = DIRECTION ( 'NONE',  ( -1.000000000000000000, 0.000000000000000000, 0.000000000000000000 ) ) ;
#76 = EDGE_LOOP ( 'NONE', ( #659, #79, #904, #547 ) ) ;
#77 = CARTESIAN_POINT ( 'NONE',  ( 9.000000000000005329, 12.50000000000000000, 6.000000000000000000 ) ) ;
#78 = CARTESIAN_POINT ( 'NONE',  ( -8.999999999999998224, 12.50000000000000000, 6.000000000000000000 ) ) ;
#79 = ORIENTED_EDGE ( 'NONE', *, *, #527, .F. ) ;
#80 = LINE ( 'NONE', #396, #429 ) ;
#81 = VERTEX_POINT ( 'NONE', #575 ) ;
#82 = DIRECTION ( 'NONE',  ( 0.000000000000000000, 0.000000000000000000, -1.000000000000000000 ) ) ;
#83 = ADVANCED_FACE ( 'NONE', ( #101 ), #11, .F. ) ;
#84 = CARTESIAN_POINT ( 'NONE',  ( -14.00000000000001066, 6.499999999999997335, 5.999999999999999112 ) ) ;
#85 = VECTOR ( 'NONE', #384, 1000.000000000000000 ) ;
#86 = VERTEX_POINT ( 'NONE', #643 ) ;
#87 = DIRECTION ( 'NONE',  ( 0.000000000000000000, 0.000000000000000000, -1.000000000000000000 ) ) ;
#88 = ORIENTED_EDGE ( 'NONE', *, *, #441, .F. ) ;
#89 = CARTESIAN_POINT ( 'NONE',  ( -7.499999999999996447, 0.5000000000000011102, 6.000000000000000000 ) ) ;
#90 = FACE_OUTER_BOUND ( 'NONE', #549, .T. ) ;
#91 = EDGE_CURVE ( 'NONE', #743, #416, #357, .T. ) ;
#92 = ORIENTED_EDGE ( 'NONE', *, *, #794, .F. ) ;
#93 = VECTOR ( 'NONE', #413, 1000.000000000000000 ) ;
#94 = DIRECTION ( 'NONE',  ( -0.000000000000000000, -0.000000000000000000, 1.000000000000000000 ) ) ;
#95 = DIRECTION ( 'NONE',  ( -0.000000000000000000, -0.000000000000000000, 1.000000000000000000 ) ) ;
#96 = CARTESIAN_POINT ( 'NONE',  ( 11.25000000000001243, 6.499999999999997335, 5.999999999999999112 ) ) ;
#97 = EDGE_CURVE ( 'NONE', #899, #946, #657, .T. ) ;
#98 = ORIENTED_EDGE ( 'NONE', *, *, #409, .F. ) ;
#99 = CARTESIAN_POINT ( 'NONE',  ( -14.00000000000001066, 6.499999999999997335, -6.000000000000000888 ) ) ;
#100 = DIRECTION ( 'NONE',  ( -0.000000000000000000, -0.000000000000000000, 1.000000000000000000 ) ) ;
#101 = FACE_OUTER_BOUND ( 'NONE', #346, .T. ) ;
#102 = EDGE_LOOP ( 'NONE', ( #542, #421 ) ) ;
#103 = VECTOR ( 'NONE', #824, 1000.000000000000114 ) ;
#104 = LINE ( 'NONE', #968, #717 ) ;
#105 = CIRCLE ( 'NONE', #188, 2.749999999999997335 ) ;
#106 = ORGANIZATION ( '未指定', '未指定', '' ) ;
#107 = PLANE ( 'NONE',  #215 ) ;
#108 = CARTESIAN_POINT ( 'NONE',  ( -1.825698672451220991E-16, -6.000000000000003553, -6.000000000000000000 ) ) ;
#109 = VERTEX_POINT ( 'NONE', #886 ) ;
#110 = FACE_OUTER_BOUND ( 'NONE', #987, .T. ) ;
#111 = CARTESIAN_POINT ( 'NONE',  ( 8.000000000000003553, 11.49999999999999289, -6.000000000000000000 ) ) ;
#112 = EDGE_LOOP ( 'NONE', ( #783, #402, #426, #540 ) ) ;
#113 = DIRECTION ( 'NONE',  ( 0.000000000000000000, -1.000000000000000000, 0.000000000000000000 ) ) ;
#114 = EDGE_CURVE ( 'NONE', #323, #48, #518, .T. ) ;
#115 = ORIENTED_EDGE ( 'NONE', *, *, #705, .T. ) ;
#116 = VECTOR ( 'NONE', #153, 1000.000000000000000 ) ;
#117 = CARTESIAN_POINT ( 'NONE',  ( -7.999999999999996447, 1.000000000000001110, -6.000000000000000000 ) ) ;
#118 = AXIS2_PLACEMENT_3D ( 'NONE', #520, #741, #901 ) ;
#119 = EDGE_CURVE ( 'NONE', #522, #405, #165, .T. ) ;
#120 = ORIENTED_EDGE ( 'NONE', *, *, #1014, .T. ) ;
#121 = FACE_BOUND ( 'NONE', #442, .T. ) ;
#122 = CARTESIAN_POINT ( 'NONE',  ( -19.00000000000001066, 6.499999999999998224, 5.999999999999999112 ) ) ;
#123 = ORIENTED_EDGE ( 'NONE', *, *, #620, .F. ) ;
#124 = ADVANCED_FACE ( 'NONE', ( #581 ), #251, .F. ) ;
#125 = DIRECTION ( 'NONE',  ( -0.7071067811865451302, 0.7071067811865500152, 0.000000000000000000 ) ) ;
#126 = APPROVAL_STATUS ( 'not_yet_approved' ) ;
#127 = CIRCLE ( 'NONE', #229, 4.999999999999999112 ) ;
#128 = CARTESIAN_POINT ( 'NONE',  ( 19.00000000000001776, 12.50000000000000000, 6.000000000000000000 ) ) ;
#129 = CYLINDRICAL_SURFACE ( 'NONE', #309, 2.099999999999998757 ) ;
#130 = ADVANCED_FACE ( 'NONE', ( #586 ), #490, .F. ) ;
#131 = DIRECTION ( 'NONE',  ( 1.000000000000000000, 0.000000000000000000, 0.000000000000000000 ) ) ;
#132 =( NAMED_UNIT ( * ) SI_UNIT ( $, .STERADIAN. ) SOLID_ANGLE_UNIT ( ) );
#133 = VECTOR ( 'NONE', #138, 1000.000000000000000 ) ;
#134 = CARTESIAN_POINT ( 'NONE',  ( -7.999999999999996447, 1.000000000000001110, -6.000000000000000000 ) ) ;
#135 = VECTOR ( 'NONE', #877, 1000.000000000000000 ) ;
#136 = EDGE_LOOP ( 'NONE', ( #475, #224, #341, #450 ) ) ;
#137 = ORIENTED_EDGE ( 'NONE', *, *, #1011, .F. ) ;
#138 = DIRECTION ( 'NONE',  ( -0.000000000000000000, 1.000000000000000000, -0.000000000000000000 ) ) ;
#139 = LINE ( 'NONE', #228, #362 ) ;
#140 = ORIENTED_EDGE ( 'NONE', *, *, #891, .T. ) ;
#141 = ORIENTED_EDGE ( 'NONE', *, *, #745, .F. ) ;
#142 = DIRECTION ( 'NONE',  ( 0.000000000000000000, 0.000000000000000000, -1.000000000000000000 ) ) ;
#143 = COORDINATED_UNIVERSAL_TIME_OFFSET ( 8, 0, .AHEAD. ) ;
#144 = DIRECTION ( 'NONE',  ( 0.7071067811865500152, -0.7071067811865451302, 0.000000000000000000 ) ) ;
#145 = EDGE_CURVE ( 'NONE', #86, #248, #890, .T. ) ;
#146 = ORIENTED_EDGE ( 'NONE', *, *, #582, .F. ) ;
#147 = DIRECTION ( 'NONE',  ( 1.000000000000000000, 0.000000000000000000, 0.000000000000000000 ) ) ;
#148 = CARTESIAN_POINT ( 'NONE',  ( -7.499999999999996447, 1.000000000000001110, -6.000000000000000000 ) ) ;
#149 = VECTOR ( 'NONE', #176, 1000.000000000000000 ) ;
#150 = VECTOR ( 'NONE', #579, 1000.000000000000000 ) ;
#151 = ADVANCED_FACE ( 'NONE', ( #408 ), #184, .F. ) ;
#152 = EDGE_LOOP ( 'NONE', ( #595, #616, #61, #72 ) ) ;
#153 = DIRECTION ( 'NONE',  ( -0.000000000000000000, -0.000000000000000000, 1.000000000000000000 ) ) ;
#154 = VERTEX_POINT ( 'NONE', #28 ) ;
#155 = FACE_OUTER_BOUND ( 'NONE', #410, .T. ) ;
#156 = ORIENTED_EDGE ( 'NONE', *, *, #830, .T. ) ;
#157 = LINE ( 'NONE', #232, #116 ) ;
#158 = EDGE_CURVE ( 'NONE', #946, #323, #420, .T. ) ;
#159 = EDGE_CURVE ( 'NONE', #470, #840, #322, .T. ) ;
#160 = DIRECTION ( 'NONE',  ( -0.000000000000000000, -0.000000000000000000, 1.000000000000000000 ) ) ;
#161 = ORIENTED_EDGE ( 'NONE', *, *, #425, .F. ) ;
#162 = DIRECTION ( 'NONE',  ( -0.000000000000000000, -0.000000000000000000, 1.000000000000000000 ) ) ;
#163 = EDGE_CURVE ( 'NONE', #3, #154, #213, .T. ) ;
#164 = LINE ( 'NONE', #965, #253 ) ;
#165 = LINE ( 'NONE', #966, #373 ) ;
#166 = AXIS2_PLACEMENT_3D ( 'NONE', #108, #41, #354 ) ;
#167 = VECTOR ( 'NONE', #270, 1000.000000000000000 ) ;
#168 = ORIENTED_EDGE ( 'NONE', *, *, #388, .F. ) ;
#169 = FACE_OUTER_BOUND ( 'NONE', #809, .T. ) ;
#170 = CYLINDRICAL_SURFACE ( 'NONE', #866, 4.999999999999999112 ) ;
#171 = ADVANCED_FACE ( 'NONE', ( #985 ), #275, .F. ) ;
#172 = DIRECTION ( 'NONE',  ( -0.000000000000000000, -0.000000000000000000, 1.000000000000000000 ) ) ;
#173 = ADVANCED_FACE ( 'NONE', ( #756 ), #918, .F. ) ;
#174 = SECURITY_CLASSIFICATION_LEVEL ( 'unclassified' ) ;
#175 = ORIENTED_EDGE ( 'NONE', *, *, #202, .F. ) ;
#176 = DIRECTION ( 'NONE',  ( -0.000000000000000000, -0.000000000000000000, 1.000000000000000000 ) ) ;
#177 = DIRECTION ( 'NONE',  ( -0.000000000000000000, -0.000000000000000000, 1.000000000000000000 ) ) ;
#178 = DIRECTION ( 'NONE',  ( -1.000000000000000000, 0.000000000000000000, 0.000000000000000000 ) ) ;
#179 = PERSON_AND_ORGANIZATION_ROLE ( 'design_supplier' ) ;
#180 = AXIS2_PLACEMENT_3D ( 'NONE', #813, #822, #199 ) ;
#181 = ORIENTED_EDGE ( 'NONE', *, *, #835, .F. ) ;
#182 = CARTESIAN_POINT ( 'NONE',  ( -19.99999999999998934, -12.50000000000000000, 6.000000000000000000 ) ) ;
#183 = CARTESIAN_POINT ( 'NONE',  ( -7.999999999999996447, 11.49999999999999289, -6.000000000000000000 ) ) ;
#184 = CYLINDRICAL_SURFACE ( 'NONE', #617, 0.5000000000000004441 ) ;
#185 = EDGE_LOOP ( 'NONE', ( #645, #844, #360, #870 ) ) ;
#186 = CIRCLE ( 'NONE', #762, 4.999999999999999112 ) ;
#187 = LINE ( 'NONE', #506, #103 ) ;
#188 = AXIS2_PLACEMENT_3D ( 'NONE', #42, #31, #512 ) ;
#189 = DIRECTION ( 'NONE',  ( 0.000000000000000000, -0.000000000000000000, -1.000000000000000000 ) ) ;
#190 = APPROVAL_DATE_TIME ( #649, #825 ) ;
#191 = ORIENTED_EDGE ( 'NONE', *, *, #675, .T. ) ;
#192 = CARTESIAN_POINT ( 'NONE',  ( 7.500000000000003553, 0.5000000000000011102, -6.000000000000000000 ) ) ;
#193 = AXIS2_PLACEMENT_3D ( 'NONE', #807, #730, #897 ) ;
#194 = EDGE_LOOP ( 'NONE', ( #293, #850, #746, #688 ) ) ;
#195 = CARTESIAN_POINT ( 'NONE',  ( -14.00000000000001066, 6.499999999999997335, 5.999999999999999112 ) ) ;
#196 = ADVANCED_FACE ( 'NONE', ( #694 ), #369, .F. ) ;
#197 = EDGE_LOOP ( 'NONE', ( #593, #137, #855, #667 ) ) ;
#198 = VECTOR ( 'NONE', #553, 1000.000000000000000 ) ;
#199 = DIRECTION ( 'NONE',  ( 1.000000000000000000, 0.000000000000000000, 0.000000000000000000 ) ) ;
#200 = CYLINDRICAL_SURFACE ( 'NONE', #118, 2.749999999999999112 ) ;
#201 = AXIS2_PLACEMENT_3D ( 'NONE', #478, #177, #489 ) ;
#202 = EDGE_CURVE ( 'NONE', #848, #960, #298, .T. ) ;
#203 = VERTEX_POINT ( 'NONE', #212 ) ;
#204 = APPLICATION_CONTEXT ( 'configuration controlled 3d designs of mechanical parts and assemblies' ) ;
#205 = CARTESIAN_POINT ( 'NONE',  ( 16.75000000000001066, 6.499999999999997335, 0.5999999999999989786 ) ) ;
#206 = ORIENTED_EDGE ( 'NONE', *, *, #345, .F. ) ;
#207 = CARTESIAN_POINT ( 'NONE',  ( 20.00000000000001066, -12.50000000000000000, 6.000000000000000000 ) ) ;
#208 = DIRECTION ( 'NONE',  ( 0.7071067811865500152, 0.7071067811865451302, 0.000000000000000000 ) ) ;
#209 = CARTESIAN_POINT ( 'NONE',  ( -8.999999999999998224, 12.50000000000000000, -6.000000000000000000 ) ) ;
#210 = FACE_OUTER_BOUND ( 'NONE', #211, .T. ) ;
#211 = EDGE_LOOP ( 'NONE', ( #88, #583, #909, #156 ) ) ;
#212 = CARTESIAN_POINT ( 'NONE',  ( -11.25000000000001066, 6.499999999999997335, 0.5999999999999989786 ) ) ;
#213 = CIRCLE ( 'NONE', #166, 2.099999999999997868 ) ;
#214 = PERSON ( '未指定', '未指定', '未指定', ('未指定'), ('未指定'), ('未指定') ) ;
#215 = AXIS2_PLACEMENT_3D ( 'NONE', #832, #514, #419 ) ;
#216 = CARTESIAN_POINT ( 'NONE',  ( 20.00000000000001066, -11.50000000000000000, 6.000000000000000000 ) ) ;
#217 = CARTESIAN_POINT ( 'NONE',  ( -2.099999999999997868, -6.000000000000003553, -6.000000000000000000 ) ) ;
#218 = EDGE_LOOP ( 'NONE', ( #18, #350, #967, #638 ) ) ;
#219 = CARTESIAN_POINT ( 'NONE',  ( 0.000000000000000000, 0.000000000000000000, 6.000000000000000000 ) ) ;
#220 = APPROVAL_DATE_TIME ( #550, #697 ) ;
#221 = EDGE_CURVE ( 'NONE', #386, #787, #483, .T. ) ;
#222 = CYLINDRICAL_SURFACE ( 'NONE', #383, 2.099999999999998757 ) ;
#223 = APPLICATION_CONTEXT ( 'configuration controlled 3d designs of mechanical parts and assemblies' ) ;
#224 = ORIENTED_EDGE ( 'NONE', *, *, #835, .T. ) ;
#225 = DIRECTION ( 'NONE',  ( -0.000000000000000000, -0.000000000000000000, 1.000000000000000000 ) ) ;
#226 = VERTEX_POINT ( 'NONE', #280 ) ;
#227 = APPROVAL_STATUS ( 'not_yet_approved' ) ;
#228 = CARTESIAN_POINT ( 'NONE',  ( -18.99999999999998934, -12.50000000000000000, 6.000000000000000000 ) ) ;
#229 = AXIS2_PLACEMENT_3D ( 'NONE', #372, #496, #801 ) ;
#230 = ADVANCED_FACE ( 'NONE', ( #684, #535 ), #49, .F. ) ;
#231 = VERTEX_POINT ( 'NONE', #205 ) ;
#232 = CARTESIAN_POINT ( 'NONE',  ( 9.000000000000010658, 6.499999999999998224, 5.999999999999999112 ) ) ;
#233 = CARTESIAN_POINT ( 'NONE',  ( 19.00000000000001776, 12.50000000000000000, 6.000000000000000000 ) ) ;
#234 = VECTOR ( 'NONE', #1001, 1000.000000000000000 ) ;
#235 = VECTOR ( 'NONE', #427, 1000.000000000000000 ) ;
#236 = EDGE_CURVE ( 'NONE', #976, #318, #1013, .T. ) ;
#237 = EDGE_CURVE ( 'NONE', #923, #203, #999, .T. ) ;
#238 = EDGE_LOOP ( 'NONE', ( #727, #146, #930, #505 ) ) ;
#239 = CARTESIAN_POINT ( 'NONE',  ( 7.500000000000003553, 1.000000000000000888, -6.000000000000000000 ) ) ;
#240 = CARTESIAN_POINT ( 'NONE',  ( -19.99999999999998934, -12.50000000000000000, 6.000000000000000000 ) ) ;
#241 = EDGE_CURVE ( 'NONE', #295, #672, #289, .T. ) ;
#242 = ORIENTED_EDGE ( 'NONE', *, *, #864, .T. ) ;
#243 = CARTESIAN_POINT ( 'NONE',  ( -8.999999999999998224, 12.50000000000000000, 6.000000000000000000 ) ) ;
#244 = ORIENTED_EDGE ( 'NONE', *, *, #44, .F. ) ;
#245 = LINE ( 'NONE', #233, #485 ) ;
#246 = CARTESIAN_POINT ( 'NONE',  ( 7.500000000000003553, 0.5000000000000011102, -6.000000000000000000 ) ) ;
#247 = PERSON_AND_ORGANIZATION ( #214, #106 ) ;
#248 = VERTEX_POINT ( 'NONE', #771 ) ;
#249 = DIRECTION ( 'NONE',  ( -0.7071067811865451302, -0.7071067811865500152, -0.000000000000000000 ) ) ;
#250 = LINE ( 'NONE', #719, #467 ) ;
#251 = CYLINDRICAL_SURFACE ( 'NONE', #327, 4.999999999999999112 ) ;
#252 = VECTOR ( 'NONE', #628, 1000.000000000000000 ) ;
#253 = VECTOR ( 'NONE', #561, 1000.000000000000114 ) ;
#254 = EDGE_LOOP ( 'NONE', ( #513, #12 ) ) ;
#255 = CARTESIAN_POINT ( 'NONE',  ( 16.75000000000000711, 6.499999999999997335, 5.999999999999999112 ) ) ;
#256 = CARTESIAN_POINT ( 'NONE',  ( 19.00000000000001776, 12.50000000000000000, 6.000000000000000000 ) ) ;
#257 = DIRECTION ( 'NONE',  ( 0.000000000000000000, 0.000000000000000000, 1.000000000000000000 ) ) ;
#258 = VERTEX_POINT ( 'NONE', #363 ) ;
#259 = DIRECTION ( 'NONE',  ( -0.000000000000000000, -0.000000000000000000, 1.000000000000000000 ) ) ;
#260 = CARTESIAN_POINT ( 'NONE',  ( -19.99999999999998934, 11.50000000000000000, 6.000000000000000000 ) ) ;
#261 = DIRECTION ( 'NONE',  ( 1.000000000000000000, 0.000000000000000000, 0.000000000000000000 ) ) ;
#262 = ORIENTED_EDGE ( 'NONE', *, *, #97, .F. ) ;
#263 = DIRECTION ( 'NONE',  ( 1.000000000000000000, 0.000000000000000000, 0.000000000000000000 ) ) ;
#264 = ADVANCED_FACE ( 'NONE', ( #766 ), #841, .F. ) ;
#265 = DIRECTION ( 'NONE',  ( -0.000000000000000000, -0.000000000000000000, 1.000000000000000000 ) ) ;
#266 = PERSON_AND_ORGANIZATION ( #214, #106 ) ;
#267 = ORIENTED_EDGE ( 'NONE', *, *, #521, .F. ) ;
#268 = VECTOR ( 'NONE', #863, 1000.000000000000114 ) ;
#269 = VECTOR ( 'NONE', #57, 1000.000000000000000 ) ;
#270 = DIRECTION ( 'NONE',  ( -1.000000000000000000, -0.000000000000000000, -0.000000000000000000 ) ) ;
#271 = ORIENTED_EDGE ( 'NONE', *, *, #163, .T. ) ;
#272 = EDGE_CURVE ( 'NONE', #109, #526, #608, .T. ) ;
#273 = DIRECTION ( 'NONE',  ( 0.7071067811865500152, 0.7071067811865451302, -0.000000000000000000 ) ) ;
#274 = ORIENTED_EDGE ( 'NONE', *, *, #565, .T. ) ;
#275 = CYLINDRICAL_SURFACE ( 'NONE', #902, 2.749999999999997335 ) ;
#276 = CARTESIAN_POINT ( 'NONE',  ( 8.000000000000003553, 0.5000000000000011102, -6.000000000000000000 ) ) ;
#277 = EDGE_CURVE ( 'NONE', #1004, #493, #619, .T. ) ;
#278 = EDGE_LOOP ( 'NONE', ( #872, #271 ) ) ;
#279 = VECTOR ( 'NONE', #689, 1000.000000000000000 ) ;
#280 = CARTESIAN_POINT ( 'NONE',  ( 9.000000000000010658, 6.499999999999998224, 5.999999999999999112 ) ) ;
#281 = COORDINATED_UNIVERSAL_TIME_OFFSET ( 8, 0, .AHEAD. ) ;
#282 = VECTOR ( 'NONE', #590, 1000.000000000000000 ) ;
#283 = LOCAL_TIME ( 14, 59, 35.00000000000000000, #785 ) ;
#284 = ORIENTED_EDGE ( 'NONE', *, *, #454, .T. ) ;
#285 = DIRECTION ( 'NONE',  ( 1.000000000000000000, 0.000000000000000000, 0.000000000000000000 ) ) ;
#286 = LINE ( 'NONE', #621, #670 ) ;
#287 = ORIENTED_EDGE ( 'NONE', *, *, #498, .T. ) ;
#288 = ORIENTED_EDGE ( 'NONE', *, *, #922, .F. ) ;
#289 = LINE ( 'NONE', #438, #52 ) ;
#290 = PERSON_AND_ORGANIZATION ( #214, #106 ) ;
#291 = CARTESIAN_POINT ( 'NONE',  ( 15.74999999999993783, -15.75000000000004441, -6.000000000000000000 ) ) ;
#292 = UNCERTAINTY_MEASURE_WITH_UNIT (LENGTH_MEASURE( 1.000000000000000082E-05 ), #614, 'distance_accuracy_value', 'NONE');
#293 = ORIENTED_EDGE ( 'NONE', *, *, #668, .F. ) ;
#294 = ADVANCED_FACE ( 'NONE', ( #528, #121, #932, #451 ), #375, .F. ) ;
#295 = VERTEX_POINT ( 'NONE', #776 ) ;
#296 = DIRECTION ( 'NONE',  ( 1.000000000000000000, 0.000000000000000000, 0.000000000000000000 ) ) ;
#297 = PERSON_AND_ORGANIZATION ( #214, #106 ) ;
#298 = CIRCLE ( 'NONE', #944, 4.999999999999999112 ) ;
#299 = AXIS2_PLACEMENT_3D ( 'NONE', #46, #753, #508 ) ;
#300 = DIRECTION ( 'NONE',  ( -0.000000000000000000, -1.000000000000000000, -0.000000000000000000 ) ) ;
#301 = ORIENTED_EDGE ( 'NONE', *, *, #345, .T. ) ;
#302 = ADVANCED_FACE ( 'NONE', ( #434 ), #380, .F. ) ;
#303 = CARTESIAN_POINT ( 'NONE',  ( -11.25000000000001243, 6.499999999999997335, 5.999999999999999112 ) ) ;
#304 = LINE ( 'NONE', #376, #269 ) ;
#305 = CARTESIAN_POINT ( 'NONE',  ( -19.99999999999998934, -11.49999999999999289, -6.000000000000000000 ) ) ;
#306 = ORIENTED_EDGE ( 'NONE', *, *, #521, .T. ) ;
#307 = CARTESIAN_POINT ( 'NONE',  ( -19.99999999999998934, 11.50000000000000000, -6.000000000000000000 ) ) ;
#308 = LINE ( 'NONE', #538, #736 ) ;
#309 = AXIS2_PLACEMENT_3D ( 'NONE', #997, #692, #60 ) ;
#310 = ADVANCED_FACE ( 'NONE', ( #45 ), #358, .F. ) ;
#311 = ORIENTED_EDGE ( 'NONE', *, *, #388, .T. ) ;
#312 = DIRECTION ( 'NONE',  ( 1.000000000000000000, 0.000000000000000000, 0.000000000000000000 ) ) ;
#313 = CARTESIAN_POINT ( 'NONE',  ( 2.099999999999999201, -6.000000000000003553, 6.000000000000000000 ) ) ;
#314 = VECTOR ( 'NONE', #464, 1000.000000000000000 ) ;
#315 = EDGE_CURVE ( 'NONE', #840, #1004, #414, .T. ) ;
#316 = VECTOR ( 'NONE', #842, 1000.000000000000114 ) ;
#317 = LOCAL_TIME ( 14, 59, 35.00000000000000000, #281 ) ;
#318 = VERTEX_POINT ( 'NONE', #307 ) ;
#319 = LINE ( 'NONE', #77, #532 ) ;
#320 = VERTEX_POINT ( 'NONE', #476 ) ;
#321 = CARTESIAN_POINT ( 'NONE',  ( 19.00000000000001066, 6.499999999999997335, 5.999999999999999112 ) ) ;
#322 = LINE ( 'NONE', #246, #382 ) ;
#323 = VERTEX_POINT ( 'NONE', #387 ) ;
#324 = CARTESIAN_POINT ( 'NONE',  ( -18.99999999999998224, 12.50000000000000000, 6.000000000000000000 ) ) ;
#325 = ORIENTED_EDGE ( 'NONE', *, *, #352, .T. ) ;
#326 = FACE_OUTER_BOUND ( 'NONE', #640, .T. ) ;
#327 = AXIS2_PLACEMENT_3D ( 'NONE', #84, #172, #261 ) ;
#328 = CARTESIAN_POINT ( 'NONE',  ( -8.999999999999998224, 12.50000000000000000, 6.000000000000000000 ) ) ;
#329 = EDGE_LOOP ( 'NONE', ( #181, #831, #948, #242 ) ) ;
#330 = DIRECTION ( 'NONE',  ( -0.000000000000000000, -0.000000000000000000, 1.000000000000000000 ) ) ;
#331 = EDGE_CURVE ( 'NONE', #258, #560, #319, .T. ) ;
#332 = FACE_OUTER_BOUND ( 'NONE', #774, .T. ) ;
#333 = DIRECTION ( 'NONE',  ( -1.000000000000000000, 0.000000000000000000, 0.000000000000000000 ) ) ;
#334 = AXIS2_PLACEMENT_3D ( 'NONE', #494, #578, #660 ) ;
#335 = AXIS2_PLACEMENT_3D ( 'NONE', #958, #397, #661 ) ;
#336 = ORIENTED_EDGE ( 'NONE', *, *, #272, .T. ) ;
#337 = PLANE ( 'NONE',  #334 ) ;
#338 = EDGE_CURVE ( 'NONE', #960, #848, #69, .T. ) ;
#339 = CARTESIAN_POINT ( 'NONE',  ( -9.000000000000010658, 6.499999999999997335, 5.999999999999999112 ) ) ;
#340 = CARTESIAN_POINT ( 'NONE',  ( -7.999999999999996447, 11.49999999999999289, -6.000000000000000000 ) ) ;
#341 = ORIENTED_EDGE ( 'NONE', *, *, #773, .T. ) ;
#342 = DIRECTION ( 'NONE',  ( -0.000000000000000000, -0.000000000000000000, 1.000000000000000000 ) ) ;
#343 = LINE ( 'NONE', #122, #991 ) ;
#344 = EDGE_CURVE ( 'NONE', #226, #791, #186, .T. ) ;
#345 = EDGE_CURVE ( 'NONE', #618, #564, #559, .T. ) ;
#346 = EDGE_LOOP ( 'NONE', ( #732, #477, #777, #499 ) ) ;
#347 = FACE_OUTER_BOUND ( 'NONE', #329, .T. ) ;
#348 = ADVANCED_FACE ( 'NONE', ( #723 ), #570, .F. ) ;
#349 = AXIS2_PLACEMENT_3D ( 'NONE', #563, #162, #548 ) ;
#350 = ORIENTED_EDGE ( 'NONE', *, *, #527, .T. ) ;
#351 = LINE ( 'NONE', #111, #235 ) ;
#352 = EDGE_CURVE ( 'NONE', #1004, #320, #2, .T. ) ;
#353 = ORIENTED_EDGE ( 'NONE', *, *, #714, .F. ) ;
#354 = DIRECTION ( 'NONE',  ( 1.000000000000000000, 0.000000000000000000, 0.000000000000000000 ) ) ;
#355 = DIRECTION ( 'NONE',  ( -0.000000000000000000, -0.000000000000000000, 1.000000000000000000 ) ) ;
#356 = VERTEX_POINT ( 'NONE', #961 ) ;
#357 = CIRCLE ( 'NONE', #47, 0.5000000000000004441 ) ;
#358 = CYLINDRICAL_SURFACE ( 'NONE', #735, 2.749999999999997335 ) ;
#359 = DIRECTION ( 'NONE',  ( -0.000000000000000000, -0.000000000000000000, 1.000000000000000000 ) ) ;
#360 = ORIENTED_EDGE ( 'NONE', *, *, #750, .T. ) ;
#361 = EDGE_CURVE ( 'NONE', #763, #258, #73, .T. ) ;
#362 = VECTOR ( 'NONE', #847, 1000.000000000000114 ) ;
#363 = CARTESIAN_POINT ( 'NONE',  ( 9.000000000000005329, 12.50000000000000000, 6.000000000000000000 ) ) ;
#364 = PERSON_AND_ORGANIZATION ( #214, #106 ) ;
#365 = CIRCLE ( 'NONE', #945, 0.5000000000000004441 ) ;
#366 = CARTESIAN_POINT ( 'NONE',  ( 15.75000000000007638, 15.74999999999996625, -6.000000000000000000 ) ) ;
#367 = DIRECTION ( 'NONE',  ( 1.000000000000000000, 0.000000000000000000, 0.000000000000000000 ) ) ;
#368 = ORIENTED_EDGE ( 'NONE', *, *, #773, .F. ) ;
#369 = PLANE ( 'NONE',  #748 ) ;
#370 = CARTESIAN_POINT ( 'NONE',  ( -19.99999999999998934, -12.50000000000000000, -6.000000000000000000 ) ) ;
#371 = APPROVAL ( #227, '未指定' ) ;
#372 = CARTESIAN_POINT ( 'NONE',  ( -14.00000000000001066, 6.499999999999997335, 0.5999999999999989786 ) ) ;
#373 = VECTOR ( 'NONE', #257, 1000.000000000000000 ) ;
#374 = ORIENTED_EDGE ( 'NONE', *, *, #705, .F. ) ;
#375 = PLANE ( 'NONE',  #833 ) ;
#376 = CARTESIAN_POINT ( 'NONE',  ( -19.99999999999998934, -11.49999999999999289, 6.000000000000000000 ) ) ;
#377 = DIRECTION ( 'NONE',  ( -0.000000000000000000, -0.000000000000000000, 1.000000000000000000 ) ) ;
#378 = EDGE_CURVE ( 'NONE', #295, #823, #868, .T. ) ;
#379 = ORIENTED_EDGE ( 'NONE', *, *, #1014, .F. ) ;
#380 = CYLINDRICAL_SURFACE ( 'NONE', #633, 4.999999999999999112 ) ;
#381 = APPLICATION_PROTOCOL_DEFINITION ( 'international standard', 'config_control_design', 1994, #223 ) ;
#382 = VECTOR ( 'NONE', #970, 1000.000000000000000 ) ;
#383 = AXIS2_PLACEMENT_3D ( 'NONE', #926, #440, #453 ) ;
#384 = DIRECTION ( 'NONE',  ( 1.000000000000000000, 0.000000000000000000, 0.000000000000000000 ) ) ;
#385 = LOCAL_TIME ( 14, 59, 35.00000000000000000, #827 ) ;
#386 = VERTEX_POINT ( 'NONE', #947 ) ;
#387 = CARTESIAN_POINT ( 'NONE',  ( -7.999999999999996447, 11.49999999999999645, 6.000000000000000000 ) ) ;
#388 = EDGE_CURVE ( 'NONE', #848, #226, #157, .T. ) ;
#389 = LINE ( 'NONE', #1019, #834 ) ;
#390 = ORIENTED_EDGE ( 'NONE', *, *, #864, .F. ) ;
#391 = CARTESIAN_POINT ( 'NONE',  ( 20.00000000000001066, 11.50000000000000000, 6.000000000000000000 ) ) ;
#392 = EDGE_LOOP ( 'NONE', ( #390, #368 ) ) ;
#393 = CARTESIAN_POINT ( 'NONE',  ( -18.99999999999998934, -12.50000000000000000, -6.000000000000000000 ) ) ;
#394 = AXIS2_PLACEMENT_3D ( 'NONE', #959, #878, #725 ) ;
#395 = ORIENTED_EDGE ( 'NONE', *, *, #931, .T. ) ;
#396 = CARTESIAN_POINT ( 'NONE',  ( -7.999999999999996447, 24.50000000000000355, 6.000000000000000000 ) ) ;
#397 = DIRECTION ( 'NONE',  ( -1.000000000000000000, 0.000000000000000000, -0.000000000000000000 ) ) ;
#398 = DIRECTION ( 'NONE',  ( 0.7071067811865451302, -0.7071067811865500152, 0.000000000000000000 ) ) ;
#399 = VECTOR ( 'NONE', #818, 1000.000000000000000 ) ;
#400 = EDGE_LOOP ( 'NONE', ( #715, #972 ) ) ;
#401 = DIRECTION ( 'NONE',  ( -1.000000000000000000, 0.000000000000000000, -0.000000000000000000 ) ) ;
#402 = ORIENTED_EDGE ( 'NONE', *, *, #789, .T. ) ;
#403 = CYLINDRICAL_SURFACE ( 'NONE', #574, 2.749999999999999112 ) ;
#404 = CARTESIAN_POINT ( 'NONE',  ( 19.00000000000001776, 12.50000000000000000, -6.000000000000000000 ) ) ;
#405 = VERTEX_POINT ( 'NONE', #391 ) ;
#406 = FACE_BOUND ( 'NONE', #828, .T. ) ;
#407 = LINE ( 'NONE', #556, #415 ) ;
#408 = FACE_OUTER_BOUND ( 'NONE', #76, .T. ) ;
#409 = EDGE_CURVE ( 'NONE', #323, #416, #80, .T. ) ;
#410 = EDGE_LOOP ( 'NONE', ( #168, #67, #284, #287 ) ) ;
#411 = DIRECTION ( 'NONE',  ( 0.000000000000000000, -0.000000000000000000, 1.000000000000000000 ) ) ;
#412 = FACE_BOUND ( 'NONE', #278, .T. ) ;
#413 = DIRECTION ( 'NONE',  ( 0.000000000000000000, 1.000000000000000000, 0.000000000000000000 ) ) ;
#414 = CIRCLE ( 'NONE', #516, 0.5000000000000004441 ) ;
#415 = VECTOR ( 'NONE', #15, 1000.000000000000000 ) ;
#416 = VERTEX_POINT ( 'NONE', #13 ) ;
#417 = CARTESIAN_POINT ( 'NONE',  ( 2.099999999999998757, -6.000000000000003553, 6.000000000000000000 ) ) ;
#418 = EDGE_CURVE ( 'NONE', #48, #618, #639, .T. ) ;
#419 = DIRECTION ( 'NONE',  ( 0.000000000000000000, -0.000000000000000000, -1.000000000000000000 ) ) ;
#420 = LINE ( 'NONE', #340, #36 ) ;
#421 = ORIENTED_EDGE ( 'NONE', *, *, #221, .F. ) ;
#422 = CARTESIAN_POINT ( 'NONE',  ( 8.000000000000003553, 11.49999999999999645, -6.000000000000000000 ) ) ;
#423 = VECTOR ( 'NONE', #676, 1000.000000000000114 ) ;
#424 = DIRECTION ( 'NONE',  ( 0.000000000000000000, 0.000000000000000000, -1.000000000000000000 ) ) ;
#425 = EDGE_CURVE ( 'NONE', #231, #248, #682, .T. ) ;
#426 = ORIENTED_EDGE ( 'NONE', *, *, #361, .F. ) ;
#427 = DIRECTION ( 'NONE',  ( 0.000000000000000000, 0.000000000000000000, -1.000000000000000000 ) ) ;
#428 = ADVANCED_FACE ( 'NONE', ( #406, #169 ), #480, .F. ) ;
#429 = VECTOR ( 'NONE', #8, 1000.000000000000000 ) ;
#430 = ORIENTED_EDGE ( 'NONE', *, *, #989, .F. ) ;
#431 = AXIS2_PLACEMENT_3D ( 'NONE', #78, #647, #869 ) ;
#432 = CARTESIAN_POINT ( 'NONE',  ( -19.99999999999998934, 12.50000000000000000, 6.000000000000000000 ) ) ;
#433 = ORIENTED_EDGE ( 'NONE', *, *, #610, .F. ) ;
#434 = FACE_OUTER_BOUND ( 'NONE', #758, .T. ) ;
#435 = CYLINDRICAL_SURFACE ( 'NONE', #903, 4.999999999999999112 ) ;
#436 = VERTEX_POINT ( 'NONE', #324 ) ;
#437 = EDGE_CURVE ( 'NONE', #618, #946, #646, .T. ) ;
#438 = CARTESIAN_POINT ( 'NONE',  ( -18.99999999999998934, -12.50000000000000000, 6.000000000000000000 ) ) ;
#439 = CARTESIAN_POINT ( 'NONE',  ( 8.000000000000003553, 1.000000000000007772, -6.000000000000000000 ) ) ;
#440 = DIRECTION ( 'NONE',  ( -0.000000000000000000, -0.000000000000000000, 1.000000000000000000 ) ) ;
#441 = EDGE_CURVE ( 'NONE', #3, #386, #488, .T. ) ;
#442 = EDGE_LOOP ( 'NONE', ( #984, #533 ) ) ;
#443 = CIRCLE ( 'NONE', #531, 4.999999999999999112 ) ;
#444 = DIRECTION ( 'NONE',  ( -1.000000000000000000, 0.000000000000000000, 0.000000000000000000 ) ) ;
#445 = FACE_OUTER_BOUND ( 'NONE', #197, .T. ) ;
#446 = AXIS2_PLACEMENT_3D ( 'NONE', #919, #208, #767 ) ;
#447 = ADVANCED_FACE ( 'NONE', ( #584 ), #337, .F. ) ;
#448 = LINE ( 'NONE', #370, #85 ) ;
#449 = ORIENTED_EDGE ( 'NONE', *, *, #571, .T. ) ;
#450 = ORIENTED_EDGE ( 'NONE', *, *, #484, .F. ) ;
#451 = FACE_OUTER_BOUND ( 'NONE', #612, .T. ) ;
#452 = DIRECTION ( 'NONE',  ( 1.000000000000000000, 0.000000000000000000, 0.000000000000000000 ) ) ;
#453 = DIRECTION ( 'NONE',  ( 1.000000000000000000, 0.000000000000000000, 0.000000000000000000 ) ) ;
#454 = EDGE_CURVE ( 'NONE', #960, #791, #104, .T. ) ;
#455 = ORIENTED_EDGE ( 'NONE', *, *, #418, .F. ) ;
#456 = VECTOR ( 'NONE', #752, 1000.000000000000000 ) ;
#457 = ORIENTED_EDGE ( 'NONE', *, *, #331, .T. ) ;
#458 = DIRECTION ( 'NONE',  ( -1.000000000000000000, 0.000000000000000000, -0.000000000000000000 ) ) ;
#459 = CALENDAR_DATE ( 2026, 24, 4 ) ;
#460 = CARTESIAN_POINT ( 'NONE',  ( 9.000000000000005329, 12.50000000000000000, -6.000000000000000000 ) ) ;
#461 = CC_DESIGN_PERSON_AND_ORGANIZATION_ASSIGNMENT ( #297, #543, ( #681 ) ) ;
#462 = ADVANCED_FACE ( 'NONE', ( #110 ), #894, .F. ) ;
#463 = ORIENTED_EDGE ( 'NONE', *, *, #39, .T. ) ;
#464 = DIRECTION ( 'NONE',  ( 0.000000000000000000, 0.000000000000000000, -1.000000000000000000 ) ) ;
#465 = APPROVAL_ROLE ( '' ) ;
#466 = AXIS2_PLACEMENT_3D ( 'NONE', #182, #664, #411 ) ;
#467 = VECTOR ( 'NONE', #4, 1000.000000000000000 ) ;
#468 = CARTESIAN_POINT ( 'NONE',  ( 8.000000000000003553, 11.49999999999999645, 6.000000000000000000 ) ) ;
#469 = CC_DESIGN_APPROVAL ( #371, ( #981 ) ) ;
#470 = VERTEX_POINT ( 'NONE', #733 ) ;
#471 = EDGE_CURVE ( 'NONE', #109, #923, #602, .T. ) ;
#472 = CARTESIAN_POINT ( 'NONE',  ( 14.00000000000001066, 6.499999999999997335, 5.999999999999999112 ) ) ;
#473 = ORIENTED_EDGE ( 'NONE', *, *, #44, .T. ) ;
#474 = FACE_BOUND ( 'NONE', #400, .T. ) ;
#475 = ORIENTED_EDGE ( 'NONE', *, *, #644, .F. ) ;
#476 = CARTESIAN_POINT ( 'NONE',  ( 8.000000000000003553, 1.000000000000007772, 6.000000000000000000 ) ) ;
#477 = ORIENTED_EDGE ( 'NONE', *, *, #159, .F. ) ;
#478 = CARTESIAN_POINT ( 'NONE',  ( -14.00000000000001066, 6.499999999999997335, 5.999999999999999112 ) ) ;
#479 = ORIENTED_EDGE ( 'NONE', *, *, #237, .T. ) ;
#480 = PLANE ( 'NONE',  #912 ) ;
#481 = ORIENTED_EDGE ( 'NONE', *, *, #922, .T. ) ;
#482 = CARTESIAN_POINT ( 'NONE',  ( -19.00000000000001066, 6.499999999999998224, 0.5999999999999989786 ) ) ;
#483 = CIRCLE ( 'NONE', #865, 2.099999999999999201 ) ;
#484 = EDGE_CURVE ( 'NONE', #982, #751, #888, .T. ) ;
#485 = VECTOR ( 'NONE', #884, 1000.000000000000000 ) ;
#486 = CARTESIAN_POINT ( 'NONE',  ( -7.999999999999996447, 0.000000000000000000, -6.000000000000000000 ) ) ;
#487 = ORIENTED_EDGE ( 'NONE', *, *, #378, .T. ) ;
#488 = LINE ( 'NONE', #804, #781 ) ;
#489 = DIRECTION ( 'NONE',  ( 1.000000000000000000, 0.000000000000000000, 0.000000000000000000 ) ) ;
#490 = PLANE ( 'NONE',  #193 ) ;
#491 = EDGE_CURVE ( 'NONE', #154, #787, #817, .T. ) ;
#492 = PERSON_AND_ORGANIZATION_ROLE ( 'creator' ) ;
#493 = VERTEX_POINT ( 'NONE', #422 ) ;
#494 = CARTESIAN_POINT ( 'NONE',  ( 19.00000000000001776, 12.50000000000000000, 6.000000000000000000 ) ) ;
#495 = FACE_OUTER_BOUND ( 'NONE', #754, .T. ) ;
#496 = DIRECTION ( 'NONE',  ( -0.000000000000000000, -0.000000000000000000, 1.000000000000000000 ) ) ;
#497 = CALENDAR_DATE ( 2026, 24, 4 ) ;
#498 = EDGE_CURVE ( 'NONE', #791, #226, #443, .T. ) ;
#499 = ORIENTED_EDGE ( 'NONE', *, *, #352, .F. ) ;
#500 = DIRECTION ( 'NONE',  ( 1.000000000000000000, 0.000000000000000000, 0.000000000000000000 ) ) ;
#501 = CARTESIAN_POINT ( 'NONE',  ( 9.000000000000010658, 6.499999999999998224, 0.5999999999999989786 ) ) ;
#502 = DIRECTION ( 'NONE',  ( 0.000000000000000000, 0.000000000000000000, -1.000000000000000000 ) ) ;
#503 = VECTOR ( 'NONE', #700, 1000.000000000000000 ) ;
#504 = VECTOR ( 'NONE', #273, 1000.000000000000114 ) ;
#505 = ORIENTED_EDGE ( 'NONE', *, *, #675, .F. ) ;
#506 = CARTESIAN_POINT ( 'NONE',  ( -19.99999999999998934, 11.50000000000000000, 6.000000000000000000 ) ) ;
#507 = EDGE_CURVE ( 'NONE', #81, #231, #900, .T. ) ;
#508 = DIRECTION ( 'NONE',  ( 1.000000000000000000, 0.000000000000000000, 0.000000000000000000 ) ) ;
#509 = COORDINATED_UNIVERSAL_TIME_OFFSET ( 8, 0, .AHEAD. ) ;
#510 = ORIENTED_EDGE ( 'NONE', *, *, #361, .T. ) ;
#511 = PRODUCT ( 'RM-JJ-00083841-01', 'RM-JJ-00083841-01', '', ( #524 ) ) ;
#512 = DIRECTION ( 'NONE',  ( 1.000000000000000000, 0.000000000000000000, 0.000000000000000000 ) ) ;
#513 = ORIENTED_EDGE ( 'NONE', *, *, #963, .T. ) ;
#514 = DIRECTION ( 'NONE',  ( 0.000000000000000000, -1.000000000000000000, 0.000000000000000000 ) ) ;
#515 = EDGE_CURVE ( 'NONE', #436, #976, #187, .T. ) ;
#516 = AXIS2_PLACEMENT_3D ( 'NONE', #239, #711, #1018 ) ;
#517 = ORIENTED_EDGE ( 'NONE', *, *, #534, .T. ) ;
#518 = LINE ( 'NONE', #328, #423 ) ;
#519 = CLOSED_SHELL ( 'NONE', ( #580, #302, #171, #124, #957, #836, #196, #940, #130, #462, #294, #713, #709, #230, #971, #310, #428, #815, #780, #173, #348, #26, #755, #630, #59, #1002, #264, #447, #151, #83 ) ) ;
#520 = CARTESIAN_POINT ( 'NONE',  ( -14.00000000000001066, 6.499999999999997335, 5.999999999999999112 ) ) ;
#521 = EDGE_CURVE ( 'NONE', #320, #560, #810, .T. ) ;
#522 = VERTEX_POINT ( 'NONE', #1007 ) ;
#523 = CARTESIAN_POINT ( 'NONE',  ( 20.00000000000001066, -11.50000000000000000, 6.000000000000000000 ) ) ;
#524 = MECHANICAL_CONTEXT ( 'NONE', #204, 'mechanical' ) ;
#525 = LINE ( 'NONE', #128, #698 ) ;
#526 = VERTEX_POINT ( 'NONE', #768 ) ;
#527 = EDGE_CURVE ( 'NONE', #416, #899, #58, .T. ) ;
#528 = FACE_BOUND ( 'NONE', #102, .T. ) ;
#529 = CARTESIAN_POINT ( 'NONE',  ( -18.99999999999998224, 12.50000000000000000, -6.000000000000000000 ) ) ;
#530 = ORIENTED_EDGE ( 'NONE', *, *, #437, .F. ) ;
#531 = AXIS2_PLACEMENT_3D ( 'NONE', #740, #30, #263 ) ;
#532 = VECTOR ( 'NONE', #249, 1000.000000000000114 ) ;
#533 = ORIENTED_EDGE ( 'NONE', *, *, #344, .F. ) ;
#534 = EDGE_CURVE ( 'NONE', #672, #663, #448, .T. ) ;
#535 = FACE_OUTER_BOUND ( 'NONE', #921, .T. ) ;
#536 = APPROVAL_ROLE ( '' ) ;
#537 = AXIS2_PLACEMENT_3D ( 'NONE', #50, #685, #690 ) ;
#538 = CARTESIAN_POINT ( 'NONE',  ( -7.499999999999996447, 0.5000000000000011102, 6.000000000000000000 ) ) ;
#539 = CARTESIAN_POINT ( 'NONE',  ( -1.825698672451220991E-16, -6.000000000000003553, -6.000000000000000000 ) ) ;
#540 = ORIENTED_EDGE ( 'NONE', *, *, #802, .T. ) ;
#541 = DIRECTION ( 'NONE',  ( 0.000000000000000000, 0.000000000000000000, -1.000000000000000000 ) ) ;
#542 = ORIENTED_EDGE ( 'NONE', *, *, #830, .F. ) ;
#543 = PERSON_AND_ORGANIZATION_ROLE ( 'creator' ) ;
#544 = EDGE_CURVE ( 'NONE', #356, #663, #691, .T. ) ;
#545 = DIRECTION ( 'NONE',  ( 0.000000000000000000, 0.000000000000000000, 1.000000000000000000 ) ) ;
#546 = CC_DESIGN_PERSON_AND_ORGANIZATION_ASSIGNMENT ( #247, #179, ( #981 ) ) ;
#547 = ORIENTED_EDGE ( 'NONE', *, *, #601, .F. ) ;
#548 = DIRECTION ( 'NONE',  ( 1.000000000000000000, 0.000000000000000000, 0.000000000000000000 ) ) ;
#549 = EDGE_LOOP ( 'NONE', ( #769, #141, #288, #704 ) ) ;
#550 = DATE_AND_TIME ( #695, #317 ) ;
#551 = CARTESIAN_POINT ( 'NONE',  ( 9.000000000000005329, 12.50000000000000000, 6.000000000000000000 ) ) ;
#552 = ORIENTED_EDGE ( 'NONE', *, *, #418, .T. ) ;
#553 = DIRECTION ( 'NONE',  ( -1.000000000000000000, -0.000000000000000000, -0.000000000000000000 ) ) ;
#554 = VECTOR ( 'NONE', #342, 1000.000000000000000 ) ;
#555 = AXIS2_PLACEMENT_3D ( 'NONE', #432, #113, #189 ) ;
#556 = CARTESIAN_POINT ( 'NONE',  ( 8.000000000000003553, 0.5000000000000011102, 6.000000000000000000 ) ) ;
#557 = APPROVAL_PERSON_ORGANIZATION ( #266, #825, #568 ) ;
#558 = ORIENTED_EDGE ( 'NONE', *, *, #277, .T. ) ;
#559 = LINE ( 'NONE', #952, #252 ) ;
#560 = VERTEX_POINT ( 'NONE', #468 ) ;
#561 = DIRECTION ( 'NONE',  ( -0.7071067811865451302, 0.7071067811865500152, -0.000000000000000000 ) ) ;
#562 = ORIENTED_EDGE ( 'NONE', *, *, #158, .F. ) ;
#563 = CARTESIAN_POINT ( 'NONE',  ( 14.00000000000001066, 6.499999999999997335, 0.5999999999999989786 ) ) ;
#564 = VERTEX_POINT ( 'NONE', #529 ) ;
#565 = EDGE_CURVE ( 'NONE', #48, #436, #615, .T. ) ;
#566 = CARTESIAN_POINT ( 'NONE',  ( -14.00000000000001066, 6.499999999999997335, 5.999999999999999112 ) ) ;
#567 = DIRECTION ( 'NONE',  ( -0.000000000000000000, -0.000000000000000000, 1.000000000000000000 ) ) ;
#568 = APPROVAL_ROLE ( '' ) ;
#569 = ORIENTED_EDGE ( 'NONE', *, *, #163, .F. ) ;
#570 = PLANE ( 'NONE',  #880 ) ;
#571 = EDGE_CURVE ( 'NONE', #607, #295, #139, .T. ) ;
#572 = DIRECTION ( 'NONE',  ( 0.000000000000000000, 1.000000000000000000, 0.000000000000000000 ) ) ;
#573 = AXIS2_PLACEMENT_3D ( 'NONE', #62, #142, #845 ) ;
#574 = AXIS2_PLACEMENT_3D ( 'NONE', #566, #160, #950 ) ;
#575 = CARTESIAN_POINT ( 'NONE',  ( 16.75000000000000711, 6.499999999999997335, -6.000000000000000888 ) ) ;
#576 = CC_DESIGN_SECURITY_CLASSIFICATION ( #658, ( #981 ) ) ;
#577 = ORIENTED_EDGE ( 'NONE', *, *, #338, .T. ) ;
#578 = DIRECTION ( 'NONE',  ( -0.7071067811865500152, -0.7071067811865451302, -0.000000000000000000 ) ) ;
#579 = DIRECTION ( 'NONE',  ( 0.000000000000000000, 0.000000000000000000, 1.000000000000000000 ) ) ;
#580 = ADVANCED_FACE ( 'NONE', ( #934 ), #222, .F. ) ;
#581 = FACE_OUTER_BOUND ( 'NONE', #136, .T. ) ;
#582 = EDGE_CURVE ( 'NONE', #663, #823, #286, .T. ) ;
#583 = ORIENTED_EDGE ( 'NONE', *, *, #17, .F. ) ;
#584 = FACE_OUTER_BOUND ( 'NONE', #194, .T. ) ;
#585 = CARTESIAN_POINT ( 'NONE',  ( -19.99999999999998934, 12.50000000000000000, -6.000000000000000000 ) ) ;
#586 = FACE_OUTER_BOUND ( 'NONE', #693, .T. ) ;
#587 = PERSON_AND_ORGANIZATION_ROLE ( 'classification_officer' ) ;
#588 = VERTEX_POINT ( 'NONE', #216 ) ;
#589 = CARTESIAN_POINT ( 'NONE',  ( -9.000000000000010658, 6.499999999999997335, 5.999999999999999112 ) ) ;
#590 = DIRECTION ( 'NONE',  ( 0.000000000000000000, 1.000000000000000000, 0.000000000000000000 ) ) ;
#591 = VECTOR ( 'NONE', #881, 1000.000000000000114 ) ;
#592 = CIRCLE ( 'NONE', #1009, 4.999999999999999112 ) ;
#593 = ORIENTED_EDGE ( 'NONE', *, *, #571, .F. ) ;
#594 = CARTESIAN_POINT ( 'NONE',  ( -9.000000000000010658, 6.499999999999997335, 0.5999999999999989786 ) ) ;
#595 = ORIENTED_EDGE ( 'NONE', *, *, #145, .F. ) ;
#596 = CC_DESIGN_PERSON_AND_ORGANIZATION_ASSIGNMENT ( #916, #492, ( #981 ) ) ;
#597 = FACE_OUTER_BOUND ( 'NONE', #112, .T. ) ;
#598 = ORIENTED_EDGE ( 'NONE', *, *, #789, .F. ) ;
#599 = CARTESIAN_POINT ( 'NONE',  ( 14.00000000000001066, 6.499999999999997335, 5.999999999999999112 ) ) ;
#600 = CARTESIAN_POINT ( 'NONE',  ( 19.00000000000000355, -12.50000000000000000, 6.000000000000000000 ) ) ;
#601 = EDGE_CURVE ( 'NONE', #631, #743, #308, .T. ) ;
#602 = CIRCLE ( 'NONE', #977, 2.749999999999997335 ) ;
#603 = ORIENTED_EDGE ( 'NONE', *, *, #277, .F. ) ;
#604 = AXIS2_PLACEMENT_3D ( 'NONE', #729, #27, #790 ) ;
#605 = DIRECTION ( 'NONE',  ( -0.000000000000000000, -0.000000000000000000, 1.000000000000000000 ) ) ;
#606 = EDGE_CURVE ( 'NONE', #65, #522, #686, .T. ) ;
#607 = VERTEX_POINT ( 'NONE', #703 ) ;
#608 = LINE ( 'NONE', #851, #797 ) ;
#609 = DIRECTION ( 'NONE',  ( 1.000000000000000000, 0.000000000000000000, 0.000000000000000000 ) ) ;
#610 = EDGE_CURVE ( 'NONE', #923, #109, #782, .T. ) ;
#611 = VERTEX_POINT ( 'NONE', #460 ) ;
#612 = EDGE_LOOP ( 'NONE', ( #98, #879, #274, #699, #624, #449, #487, #29, #876, #687, #510, #457, #267, #816, #9, #55 ) ) ;
#613 = DIRECTION ( 'NONE',  ( 0.000000000000000000, 0.000000000000000000, -1.000000000000000000 ) ) ;
#614 =( LENGTH_UNIT ( ) NAMED_UNIT ( * ) SI_UNIT ( .MILLI., .METRE. ) );
#615 = LINE ( 'NONE', #708, #819 ) ;
#616 = ORIENTED_EDGE ( 'NONE', *, *, #963, .F. ) ;
#617 = AXIS2_PLACEMENT_3D ( 'NONE', #720, #502, #178 ) ;
#618 = VERTEX_POINT ( 'NONE', #209 ) ;
#619 = LINE ( 'NONE', #994, #133 ) ;
#620 = EDGE_CURVE ( 'NONE', #318, #622, #1016, .T. ) ;
#621 = CARTESIAN_POINT ( 'NONE',  ( 19.00000000000000355, -12.50000000000000000, 6.000000000000000000 ) ) ;
#622 = VERTEX_POINT ( 'NONE', #305 ) ;
#623 = CARTESIAN_POINT ( 'NONE',  ( 14.00000000000001066, 6.499999999999997335, 5.999999999999999112 ) ) ;
#624 = ORIENTED_EDGE ( 'NONE', *, *, #714, .T. ) ;
#625 = CARTESIAN_POINT ( 'NONE',  ( -1.749999999999966693, 1.749999999999954481, -6.000000000000000000 ) ) ;
#626 = CARTESIAN_POINT ( 'NONE',  ( -14.00000000000001066, 6.499999999999997335, 0.5999999999999989786 ) ) ;
#627 = ORIENTED_EDGE ( 'NONE', *, *, #119, .T. ) ;
#628 = DIRECTION ( 'NONE',  ( -1.000000000000000000, -0.000000000000000000, -0.000000000000000000 ) ) ;
#629 = DIRECTION ( 'NONE',  ( 0.7071067811865500152, 0.7071067811865451302, -0.000000000000000000 ) ) ;
#630 = ADVANCED_FACE ( 'NONE', ( #779 ), #857, .F. ) ;
#631 = VERTEX_POINT ( 'NONE', #68 ) ;
#632 = CARTESIAN_POINT ( 'NONE',  ( 8.000000000000003553, 1.000000000000000888, 6.000000000000000000 ) ) ;
#633 = AXIS2_PLACEMENT_3D ( 'NONE', #623, #225, #838 ) ;
#634 = CIRCLE ( 'NONE', #928, 2.749999999999997335 ) ;
#635 = LINE ( 'NONE', #812, #656 ) ;
#636 = APPROVAL_PERSON_ORGANIZATION ( #938, #371, #465 ) ;
#637 = PRODUCT_RELATED_PRODUCT_CATEGORY ( 'detail', '', ( #511 ) ) ;
#638 = ORIENTED_EDGE ( 'NONE', *, *, #158, .T. ) ;
#639 = LINE ( 'NONE', #243, #314 ) ;
#640 = EDGE_LOOP ( 'NONE', ( #206, #775, #262, #935, #395, #678, #558, #707, #941, #32, #34, #1012, #887, #993, #123, #481 ) ) ;
#641 = LINE ( 'NONE', #953, #718 ) ;
#642 = ADVANCED_BREP_SHAPE_REPRESENTATION ( 'RM-JJ-00083841-01', ( #808, #992 ), #799 ) ;
#643 = CARTESIAN_POINT ( 'NONE',  ( 11.25000000000001421, 6.499999999999997335, -6.000000000000000888 ) ) ;
#644 = EDGE_CURVE ( 'NONE', #683, #982, #882, .T. ) ;
#645 = ORIENTED_EDGE ( 'NONE', *, *, #931, .F. ) ;
#646 = LINE ( 'NONE', #956, #591 ) ;
#647 = DIRECTION ( 'NONE',  ( -0.7071067811865500152, -0.7071067811865451302, -0.000000000000000000 ) ) ;
#648 = DIRECTION ( 'NONE',  ( 0.000000000000000000, 0.000000000000000000, -1.000000000000000000 ) ) ;
#649 = DATE_AND_TIME ( #497, #385 ) ;
#650 = ORIENTED_EDGE ( 'NONE', *, *, #471, .F. ) ;
#651 = CARTESIAN_POINT ( 'NONE',  ( 8.000000000000003553, 0.5000000000000011102, -6.000000000000000000 ) ) ;
#652 = EDGE_CURVE ( 'NONE', #899, #631, #70, .T. ) ;
#653 = PLANE ( 'NONE',  #431 ) ;
#654 = EDGE_CURVE ( 'NONE', #823, #588, #389, .T. ) ;
#655 = VECTOR ( 'NONE', #784, 1000.000000000000000 ) ;
#656 = VECTOR ( 'NONE', #82, 1000.000000000000000 ) ;
#657 = LINE ( 'NONE', #486, #93 ) ;
#658 = SECURITY_CLASSIFICATION ( '', '', #174 ) ;
#659 = ORIENTED_EDGE ( 'NONE', *, *, #652, .F. ) ;
#660 = DIRECTION ( 'NONE',  ( 0.000000000000000000, 0.000000000000000000, -1.000000000000000000 ) ) ;
#661 = DIRECTION ( 'NONE',  ( -0.000000000000000000, 0.000000000000000000, 1.000000000000000000 ) ) ;
#662 = DIRECTION ( 'NONE',  ( 0.000000000000000000, 0.000000000000000000, 1.000000000000000000 ) ) ;
#663 = VERTEX_POINT ( 'NONE', #943 ) ;
#664 = DIRECTION ( 'NONE',  ( 0.000000000000000000, 1.000000000000000000, 0.000000000000000000 ) ) ;
#665 = CARTESIAN_POINT ( 'NONE',  ( -19.00000000000001066, 6.499999999999998224, 5.999999999999999112 ) ) ;
#666 = DATE_TIME_ROLE ( 'classification_date' ) ;
#667 = ORIENTED_EDGE ( 'NONE', *, *, #241, .F. ) ;
#668 = EDGE_CURVE ( 'NONE', #405, #763, #525, .T. ) ;
#669 = LINE ( 'NONE', #585, #167 ) ;
#670 = VECTOR ( 'NONE', #545, 1000.000000000000000 ) ;
#671 = AXIS2_PLACEMENT_3D ( 'NONE', #20, #100, #873 ) ;
#672 = VERTEX_POINT ( 'NONE', #393 ) ;
#673 = CARTESIAN_POINT ( 'NONE',  ( 7.500000000000003553, 1.000000000000000888, 6.000000000000000000 ) ) ;
#674 = EDGE_LOOP ( 'NONE', ( #569, #914, #14, #770 ) ) ;
#675 = EDGE_CURVE ( 'NONE', #588, #356, #635, .T. ) ;
#676 = DIRECTION ( 'NONE',  ( -0.7071067811865451302, 0.7071067811865500152, -0.000000000000000000 ) ) ;
#677 = CARTESIAN_POINT ( 'NONE',  ( -15.74999999999992362, 15.75000000000003553, -6.000000000000000000 ) ) ;
#678 = ORIENTED_EDGE ( 'NONE', *, *, #315, .T. ) ;
#679 = CARTESIAN_POINT ( 'NONE',  ( 8.000000000000003553, 24.50000000000000355, -6.000000000000000000 ) ) ;
#680 = APPROVAL_DATE_TIME ( #74, #371 ) ;
#681 = PRODUCT_DEFINITION ( '未知', '', #981, #806 ) ;
#682 = CIRCLE ( 'NONE', #349, 2.750000000000000888 ) ;
#683 = VERTEX_POINT ( 'NONE', #482 ) ;
#684 = FACE_BOUND ( 'NONE', #7, .T. ) ;
#685 = DIRECTION ( 'NONE',  ( -0.000000000000000000, -0.000000000000000000, 1.000000000000000000 ) ) ;
#686 = LINE ( 'NONE', #366, #962 ) ;
#687 = ORIENTED_EDGE ( 'NONE', *, *, #668, .T. ) ;
#688 = ORIENTED_EDGE ( 'NONE', *, *, #802, .F. ) ;
#689 = DIRECTION ( 'NONE',  ( 0.000000000000000000, 0.000000000000000000, -1.000000000000000000 ) ) ;
#690 = DIRECTION ( 'NONE',  ( 1.000000000000000000, 0.000000000000000000, 0.000000000000000000 ) ) ;
#691 = LINE ( 'NONE', #291, #268 ) ;
#692 = DIRECTION ( 'NONE',  ( -0.000000000000000000, -0.000000000000000000, 1.000000000000000000 ) ) ;
#693 = EDGE_LOOP ( 'NONE', ( #353, #933, #803, #1003 ) ) ;
#694 = FACE_OUTER_BOUND ( 'NONE', #722, .T. ) ;
#695 = CALENDAR_DATE ( 2026, 24, 4 ) ;
#696 = CARTESIAN_POINT ( 'NONE',  ( -19.99999999999998934, -12.50000000000000000, -6.000000000000000000 ) ) ;
#697 = APPROVAL ( #126, '未指定' ) ;
#698 = VECTOR ( 'NONE', #761, 1000.000000000000114 ) ;
#699 = ORIENTED_EDGE ( 'NONE', *, *, #515, .T. ) ;
#700 = DIRECTION ( 'NONE',  ( -0.000000000000000000, -0.000000000000000000, 1.000000000000000000 ) ) ;
#701 = DATE_TIME_ROLE ( 'creation_date' ) ;
#702 = CC_DESIGN_APPROVAL ( #697, ( #681 ) ) ;
#703 = CARTESIAN_POINT ( 'NONE',  ( -19.99999999999998934, -11.49999999999999289, 6.000000000000000000 ) ) ;
#704 = ORIENTED_EDGE ( 'NONE', *, *, #236, .F. ) ;
#705 = EDGE_CURVE ( 'NONE', #248, #231, #821, .T. ) ;
#706 = DIRECTION ( 'NONE',  ( -0.000000000000000000, -0.000000000000000000, 1.000000000000000000 ) ) ;
#707 = ORIENTED_EDGE ( 'NONE', *, *, #989, .T. ) ;
#708 = CARTESIAN_POINT ( 'NONE',  ( -19.99999999999998934, 12.50000000000000000, 6.000000000000000000 ) ) ;
#709 = ADVANCED_FACE ( 'NONE', ( #495 ), #403, .F. ) ;
#710 = ORIENTED_EDGE ( 'NONE', *, *, #272, .F. ) ;
#711 = DIRECTION ( 'NONE',  ( -0.000000000000000000, -0.000000000000000000, 1.000000000000000000 ) ) ;
#712 = FACE_BOUND ( 'NONE', #254, .T. ) ;
#713 = ADVANCED_FACE ( 'NONE', ( #412, #326, #712, #474 ), #734, .T. ) ;
#714 = EDGE_CURVE ( 'NONE', #976, #607, #800, .T. ) ;
#715 = ORIENTED_EDGE ( 'NONE', *, *, #610, .T. ) ;
#716 = DIRECTION ( 'NONE',  ( 1.000000000000000000, 0.000000000000000000, 0.000000000000000000 ) ) ;
#717 = VECTOR ( 'NONE', #259, 1000.000000000000000 ) ;
#718 = VECTOR ( 'NONE', #572, 1000.000000000000000 ) ;
#719 = CARTESIAN_POINT ( 'NONE',  ( 9.000000000000005329, 12.50000000000000000, 6.000000000000000000 ) ) ;
#720 = CARTESIAN_POINT ( 'NONE',  ( -7.499999999999996447, 1.000000000000001110, -6.000000000000000000 ) ) ;
#721 = EDGE_CURVE ( 'NONE', #672, #622, #164, .T. ) ;
#722 = EDGE_LOOP ( 'NONE', ( #92, #191, #796, #627 ) ) ;
#723 = FACE_OUTER_BOUND ( 'NONE', #185, .T. ) ;
#724 = LINE ( 'NONE', #889, #150 ) ;
#725 = DIRECTION ( 'NONE',  ( -1.000000000000000000, 0.000000000000000000, 0.000000000000000000 ) ) ;
#726 = CALENDAR_DATE ( 2026, 24, 4 ) ;
#727 = ORIENTED_EDGE ( 'NONE', *, *, #654, .F. ) ;
#728 = CARTESIAN_POINT ( 'NONE',  ( 14.00000000000001066, 6.499999999999997335, 0.5999999999999989786 ) ) ;
#729 = CARTESIAN_POINT ( 'NONE',  ( 0.000000000000000000, 0.000000000000000000, -6.000000000000000000 ) ) ;
#730 = DIRECTION ( 'NONE',  ( 1.000000000000000000, 0.000000000000000000, 0.000000000000000000 ) ) ;
#731 = DATE_AND_TIME ( #726, #883 ) ;
#732 = ORIENTED_EDGE ( 'NONE', *, *, #315, .F. ) ;
#733 = CARTESIAN_POINT ( 'NONE',  ( 7.500000000000003553, 0.5000000000000011102, 6.000000000000000000 ) ) ;
#734 = PLANE ( 'NONE',  #604 ) ;
#735 = AXIS2_PLACEMENT_3D ( 'NONE', #860, #330, #312 ) ;
#736 = VECTOR ( 'NONE', #772, 1000.000000000000000 ) ;
#737 = CARTESIAN_POINT ( 'NONE',  ( -7.499999999999996447, 1.000000000000001110, 6.000000000000000000 ) ) ;
#738 = AXIS2_PLACEMENT_3D ( 'NONE', #539, #854, #367 ) ;
#739 = EDGE_LOOP ( 'NONE', ( #430, #43, #837, #598 ) ) ;
#740 = CARTESIAN_POINT ( 'NONE',  ( 14.00000000000001066, 6.499999999999997335, 5.999999999999999112 ) ) ;
#741 = DIRECTION ( 'NONE',  ( -0.000000000000000000, -0.000000000000000000, 1.000000000000000000 ) ) ;
#742 = SHAPE_DEFINITION_REPRESENTATION ( #35, #642 ) ;
#743 = VERTEX_POINT ( 'NONE', #89 ) ;
#744 = CARTESIAN_POINT ( 'NONE',  ( 19.00000000000001066, 6.499999999999997335, 0.5999999999999989786 ) ) ;
#745 = EDGE_CURVE ( 'NONE', #564, #436, #724, .T. ) ;
#746 = ORIENTED_EDGE ( 'NONE', *, *, #606, .F. ) ;
#747 = DIRECTION ( 'NONE',  ( 1.000000000000000000, 0.000000000000000000, 0.000000000000000000 ) ) ;
#748 = AXIS2_PLACEMENT_3D ( 'NONE', #207, #444, #988 ) ;
#749 = VECTOR ( 'NONE', #300, 1000.000000000000000 ) ;
#750 = EDGE_CURVE ( 'NONE', #743, #470, #407, .T. ) ;
#751 = VERTEX_POINT ( 'NONE', #339 ) ;
#752 = DIRECTION ( 'NONE',  ( -0.000000000000000000, -0.000000000000000000, 1.000000000000000000 ) ) ;
#753 = DIRECTION ( 'NONE',  ( -0.000000000000000000, -0.000000000000000000, 1.000000000000000000 ) ) ;
#754 = EDGE_LOOP ( 'NONE', ( #710, #433, #479, #473 ) ) ;
#755 = ADVANCED_FACE ( 'NONE', ( #332 ), #653, .F. ) ;
#756 = FACE_OUTER_BOUND ( 'NONE', #937, .T. ) ;
#757 = CARTESIAN_POINT ( 'NONE',  ( -14.00000000000001066, 6.499999999999997335, 5.999999999999999112 ) ) ;
#758 = EDGE_LOOP ( 'NONE', ( #175, #311, #1017, #40 ) ) ;
#759 = DIRECTION ( 'NONE',  ( 0.000000000000000000, 0.000000000000000000, -1.000000000000000000 ) ) ;
#760 = CALENDAR_DATE ( 2026, 24, 4 ) ;
#761 = DIRECTION ( 'NONE',  ( -0.7071067811865451302, 0.7071067811865500152, -0.000000000000000000 ) ) ;
#762 = AXIS2_PLACEMENT_3D ( 'NONE', #472, #706, #147 ) ;
#763 = VERTEX_POINT ( 'NONE', #256 ) ;
#764 = AXIS2_PLACEMENT_3D ( 'NONE', #63, #377, #995 ) ;
#765 = ORIENTED_EDGE ( 'NONE', *, *, #378, .F. ) ;
#766 = FACE_OUTER_BOUND ( 'NONE', #238, .T. ) ;
#767 = DIRECTION ( 'NONE',  ( 0.000000000000000000, 0.000000000000000000, -1.000000000000000000 ) ) ;
#768 = CARTESIAN_POINT ( 'NONE',  ( -16.75000000000001066, 6.499999999999997335, 0.5999999999999989786 ) ) ;
#769 = ORIENTED_EDGE ( 'NONE', *, *, #515, .F. ) ;
#770 = ORIENTED_EDGE ( 'NONE', *, *, #491, .F. ) ;
#771 = CARTESIAN_POINT ( 'NONE',  ( 11.25000000000001066, 6.499999999999997335, 0.5999999999999989786 ) ) ;
#772 = DIRECTION ( 'NONE',  ( 0.000000000000000000, 0.000000000000000000, 1.000000000000000000 ) ) ;
#773 = EDGE_CURVE ( 'NONE', #874, #751, #6, .T. ) ;
#774 = EDGE_LOOP ( 'NONE', ( #22, #562, #530, #455 ) ) ;
#775 = ORIENTED_EDGE ( 'NONE', *, *, #437, .T. ) ;
#776 = CARTESIAN_POINT ( 'NONE',  ( -18.99999999999998934, -12.50000000000000000, 6.000000000000000000 ) ) ;
#777 = ORIENTED_EDGE ( 'NONE', *, *, #905, .F. ) ;
#778 = DATE_AND_TIME ( #459, #964 ) ;
#779 = FACE_OUTER_BOUND ( 'NONE', #739, .T. ) ;
#780 = ADVANCED_FACE ( 'NONE', ( #795 ), #10, .F. ) ;
#781 = VECTOR ( 'NONE', #94, 1000.000000000000000 ) ;
#782 = CIRCLE ( 'NONE', #764, 2.749999999999997335 ) ;
#783 = ORIENTED_EDGE ( 'NONE', *, *, #975, .T. ) ;
#784 = DIRECTION ( 'NONE',  ( -0.000000000000000000, 0.000000000000000000, 1.000000000000000000 ) ) ;
#785 = COORDINATED_UNIVERSAL_TIME_OFFSET ( 8, 0, .AHEAD. ) ;
#786 = DIRECTION ( 'NONE',  ( -0.000000000000000000, -0.000000000000000000, 1.000000000000000000 ) ) ;
#787 = VERTEX_POINT ( 'NONE', #313 ) ;
#788 = DIRECTION ( 'NONE',  ( 0.000000000000000000, 0.000000000000000000, -1.000000000000000000 ) ) ;
#789 = EDGE_CURVE ( 'NONE', #611, #258, #250, .T. ) ;
#790 = DIRECTION ( 'NONE',  ( -1.000000000000000000, 0.000000000000000000, -0.000000000000000000 ) ) ;
#791 = VERTEX_POINT ( 'NONE', #321 ) ;
#792 = DIRECTION ( 'NONE',  ( 0.000000000000000000, -1.000000000000000000, -0.000000000000000000 ) ) ;
#793 = EDGE_LOOP ( 'NONE', ( #650, #336, #120, #859 ) ) ;
#794 = EDGE_CURVE ( 'NONE', #588, #405, #641, .T. ) ;
#795 = FACE_OUTER_BOUND ( 'NONE', #218, .T. ) ;
#796 = ORIENTED_EDGE ( 'NONE', *, *, #820, .T. ) ;
#797 = VECTOR ( 'NONE', #856, 1000.000000000000000 ) ;
#798 = CARTESIAN_POINT ( 'NONE',  ( 16.75000000000001066, 6.499999999999997335, 0.5999999999999989786 ) ) ;
#799 =( GEOMETRIC_REPRESENTATION_CONTEXT ( 3 ) GLOBAL_UNCERTAINTY_ASSIGNED_CONTEXT ( ( #292 ) ) GLOBAL_UNIT_ASSIGNED_CONTEXT ( ( #614, #846, #132 ) ) REPRESENTATION_CONTEXT ( 'NONE', 'WORKASPACE' ) );
#800 = LINE ( 'NONE', #240, #135 ) ;
#801 = DIRECTION ( 'NONE',  ( 1.000000000000000000, 0.000000000000000000, 0.000000000000000000 ) ) ;
#802 = EDGE_CURVE ( 'NONE', #763, #65, #245, .T. ) ;
#803 = ORIENTED_EDGE ( 'NONE', *, *, #620, .T. ) ;
#804 = CARTESIAN_POINT ( 'NONE',  ( -2.099999999999998757, -6.000000000000003553, 6.000000000000000000 ) ) ;
#805 = CARTESIAN_POINT ( 'NONE',  ( 14.00000000000001066, 6.499999999999997335, 5.999999999999999112 ) ) ;
#806 = DESIGN_CONTEXT ( 'detailed design', #223, 'design' ) ;
#807 = CARTESIAN_POINT ( 'NONE',  ( -19.99999999999998934, -12.50000000000000000, 6.000000000000000000 ) ) ;
#808 = MANIFOLD_SOLID_BREP ( '圆角1', #519 ) ;
#809 = EDGE_LOOP ( 'NONE', ( #577, #955 ) ) ;
#810 = LINE ( 'NONE', #54, #5 ) ;
#811 = AXIS2_PLACEMENT_3D ( 'NONE', #954, #398, #910 ) ;
#812 = CARTESIAN_POINT ( 'NONE',  ( 20.00000000000001066, -11.50000000000000000, 6.000000000000000000 ) ) ;
#813 = CARTESIAN_POINT ( 'NONE',  ( -14.00000000000001066, 6.499999999999997335, 0.5999999999999989786 ) ) ;
#814 = PERSON_AND_ORGANIZATION ( #214, #106 ) ;
#815 = ADVANCED_FACE ( 'NONE', ( #155 ), #170, .F. ) ;
#816 = ORIENTED_EDGE ( 'NONE', *, *, #905, .T. ) ;
#817 = LINE ( 'NONE', #417, #1008 ) ;
#818 = DIRECTION ( 'NONE',  ( 1.000000000000000000, -0.000000000000000000, -0.000000000000000000 ) ) ;
#819 = VECTOR ( 'NONE', #843, 1000.000000000000000 ) ;
#820 = EDGE_CURVE ( 'NONE', #356, #522, #826, .T. ) ;
#821 = CIRCLE ( 'NONE', #671, 2.750000000000000888 ) ;
#822 = DIRECTION ( 'NONE',  ( -0.000000000000000000, -0.000000000000000000, 1.000000000000000000 ) ) ;
#823 = VERTEX_POINT ( 'NONE', #600 ) ;
#824 = DIRECTION ( 'NONE',  ( -0.7071067811865500152, -0.7071067811865451302, -0.000000000000000000 ) ) ;
#825 = APPROVAL ( #892, '未指定' ) ;
#826 = LINE ( 'NONE', #908, #282 ) ;
#827 = COORDINATED_UNIVERSAL_TIME_OFFSET ( 8, 0, .AHEAD. ) ;
#828 = EDGE_LOOP ( 'NONE', ( #161, #374 ) ) ;
#829 = FACE_OUTER_BOUND ( 'NONE', #893, .T. ) ;
#830 = EDGE_CURVE ( 'NONE', #787, #386, #980, .T. ) ;
#831 = ORIENTED_EDGE ( 'NONE', *, *, #39, .F. ) ;
#832 = CARTESIAN_POINT ( 'NONE',  ( -19.99999999999998934, 12.50000000000000000, 6.000000000000000000 ) ) ;
#833 = AXIS2_PLACEMENT_3D ( 'NONE', #219, #541, #458 ) ;
#834 = VECTOR ( 'NONE', #629, 1000.000000000000114 ) ;
#835 = EDGE_CURVE ( 'NONE', #683, #874, #343, .T. ) ;
#836 = ADVANCED_FACE ( 'NONE', ( #829 ), #906, .F. ) ;
#837 = ORIENTED_EDGE ( 'NONE', *, *, #331, .F. ) ;
#838 = DIRECTION ( 'NONE',  ( 1.000000000000000000, 0.000000000000000000, 0.000000000000000000 ) ) ;
#839 = DIRECTION ( 'NONE',  ( 1.000000000000000000, 0.000000000000000000, 0.000000000000000000 ) ) ;
#840 = VERTEX_POINT ( 'NONE', #192 ) ;
#841 = PLANE ( 'NONE',  #979 ) ;
#842 = DIRECTION ( 'NONE',  ( 0.7071067811865451302, 0.7071067811865500152, -0.000000000000000000 ) ) ;
#843 = DIRECTION ( 'NONE',  ( -1.000000000000000000, -0.000000000000000000, -0.000000000000000000 ) ) ;
#844 = ORIENTED_EDGE ( 'NONE', *, *, #601, .T. ) ;
#845 = DIRECTION ( 'NONE',  ( -1.000000000000000000, 0.000000000000000000, -0.000000000000000000 ) ) ;
#846 =( NAMED_UNIT ( * ) PLANE_ANGLE_UNIT ( ) SI_UNIT ( $, .RADIAN. ) );
#847 = DIRECTION ( 'NONE',  ( 0.7071067811865451302, -0.7071067811865500152, -0.000000000000000000 ) ) ;
#848 = VERTEX_POINT ( 'NONE', #501 ) ;
#849 = CIRCLE ( 'NONE', #537, 2.750000000000000888 ) ;
#850 = ORIENTED_EDGE ( 'NONE', *, *, #119, .F. ) ;
#851 = CARTESIAN_POINT ( 'NONE',  ( -16.75000000000000711, 6.499999999999997335, 5.999999999999999112 ) ) ;
#852 = PLANE ( 'NONE',  #446 ) ;
#853 = DIRECTION ( 'NONE',  ( 0.7071067811865451302, -0.7071067811865500152, -0.000000000000000000 ) ) ;
#854 = DIRECTION ( 'NONE',  ( -0.000000000000000000, -0.000000000000000000, 1.000000000000000000 ) ) ;
#855 = ORIENTED_EDGE ( 'NONE', *, *, #721, .F. ) ;
#856 = DIRECTION ( 'NONE',  ( -0.000000000000000000, -0.000000000000000000, 1.000000000000000000 ) ) ;
#857 = PLANE ( 'NONE',  #913 ) ;
#858 = EDGE_CURVE ( 'NONE', #86, #81, #105, .T. ) ;
#859 = ORIENTED_EDGE ( 'NONE', *, *, #237, .F. ) ;
#860 = CARTESIAN_POINT ( 'NONE',  ( 14.00000000000001066, 6.499999999999997335, 5.999999999999999112 ) ) ;
#861 = ORIENTED_EDGE ( 'NONE', *, *, #565, .F. ) ;
#862 = CARTESIAN_POINT ( 'NONE',  ( 0.000000000000000000, 0.000000000000000000, 0.000000000000000000 ) ) ;
#863 = DIRECTION ( 'NONE',  ( -0.7071067811865500152, -0.7071067811865451302, -0.000000000000000000 ) ) ;
#864 = EDGE_CURVE ( 'NONE', #751, #874, #592, .T. ) ;
#865 = AXIS2_PLACEMENT_3D ( 'NONE', #66, #605, #1005 ) ;
#866 = AXIS2_PLACEMENT_3D ( 'NONE', #805, #95, #747 ) ;
#867 = ORIENTED_EDGE ( 'NONE', *, *, #644, .T. ) ;
#868 = LINE ( 'NONE', #871, #23 ) ;
#869 = DIRECTION ( 'NONE',  ( 0.000000000000000000, 0.000000000000000000, -1.000000000000000000 ) ) ;
#870 = ORIENTED_EDGE ( 'NONE', *, *, #159, .T. ) ;
#871 = CARTESIAN_POINT ( 'NONE',  ( -19.99999999999998934, -12.50000000000000000, 6.000000000000000000 ) ) ;
#872 = ORIENTED_EDGE ( 'NONE', *, *, #17, .T. ) ;
#873 = DIRECTION ( 'NONE',  ( 1.000000000000000000, 0.000000000000000000, 0.000000000000000000 ) ) ;
#874 = VERTEX_POINT ( 'NONE', #665 ) ;
#875 = DIRECTION ( 'NONE',  ( -0.000000000000000000, -0.000000000000000000, 1.000000000000000000 ) ) ;
#876 = ORIENTED_EDGE ( 'NONE', *, *, #794, .T. ) ;
#877 = DIRECTION ( 'NONE',  ( -0.000000000000000000, -1.000000000000000000, -0.000000000000000000 ) ) ;
#878 = DIRECTION ( 'NONE',  ( 0.000000000000000000, 0.000000000000000000, -1.000000000000000000 ) ) ;
#879 = ORIENTED_EDGE ( 'NONE', *, *, #114, .T. ) ;
#880 = AXIS2_PLACEMENT_3D ( 'NONE', #651, #792, #788 ) ;
#881 = DIRECTION ( 'NONE',  ( 0.7071067811865451302, -0.7071067811865500152, -0.000000000000000000 ) ) ;
#882 = CIRCLE ( 'NONE', #25, 4.999999999999999112 ) ;
#883 = LOCAL_TIME ( 14, 59, 35.00000000000000000, #509 ) ;
#884 = DIRECTION ( 'NONE',  ( 0.000000000000000000, 0.000000000000000000, -1.000000000000000000 ) ) ;
#885 = CC_DESIGN_PERSON_AND_ORGANIZATION_ASSIGNMENT ( #364, #1000, ( #511 ) ) ;
#886 = CARTESIAN_POINT ( 'NONE',  ( -16.75000000000000711, 6.499999999999997335, -6.000000000000000888 ) ) ;
#887 = ORIENTED_EDGE ( 'NONE', *, *, #534, .F. ) ;
#888 = LINE ( 'NONE', #589, #149 ) ;
#889 = CARTESIAN_POINT ( 'NONE',  ( -18.99999999999998224, 12.50000000000000000, 6.000000000000000000 ) ) ;
#890 = LINE ( 'NONE', #96, #456 ) ;
#891 = EDGE_CURVE ( 'NONE', #560, #493, #351, .T. ) ;
#892 = APPROVAL_STATUS ( 'not_yet_approved' ) ;
#893 = EDGE_LOOP ( 'NONE', ( #861, #552, #301, #951 ) ) ;
#894 = PLANE ( 'NONE',  #466 ) ;
#895 = CIRCLE ( 'NONE', #180, 2.750000000000000888 ) ;
#896 = DIRECTION ( 'NONE',  ( -1.000000000000000000, 0.000000000000000000, 0.000000000000000000 ) ) ;
#897 = DIRECTION ( 'NONE',  ( 0.000000000000000000, 0.000000000000000000, -1.000000000000000000 ) ) ;
#898 = CC_DESIGN_PERSON_AND_ORGANIZATION_ASSIGNMENT ( #814, #587, ( #658 ) ) ;
#899 = VERTEX_POINT ( 'NONE', #117 ) ;
#900 = LINE ( 'NONE', #255, #554 ) ;
#901 = DIRECTION ( 'NONE',  ( 1.000000000000000000, 0.000000000000000000, 0.000000000000000000 ) ) ;
#902 = AXIS2_PLACEMENT_3D ( 'NONE', #599, #567, #296 ) ;
#903 = AXIS2_PLACEMENT_3D ( 'NONE', #757, #359, #969 ) ;
#904 = ORIENTED_EDGE ( 'NONE', *, *, #91, .F. ) ;
#905 = EDGE_CURVE ( 'NONE', #320, #470, #365, .T. ) ;
#906 = PLANE ( 'NONE',  #555 ) ;
#907 = ORIENTED_EDGE ( 'NONE', *, *, #241, .T. ) ;
#908 = CARTESIAN_POINT ( 'NONE',  ( 20.00000000000001066, -12.50000000000000000, -6.000000000000000000 ) ) ;
#909 = ORIENTED_EDGE ( 'NONE', *, *, #491, .T. ) ;
#910 = DIRECTION ( 'NONE',  ( 0.000000000000000000, 0.000000000000000000, -1.000000000000000000 ) ) ;
#911 = FACE_OUTER_BOUND ( 'NONE', #793, .T. ) ;
#912 = AXIS2_PLACEMENT_3D ( 'NONE', #798, #87, #401 ) ;
#913 = AXIS2_PLACEMENT_3D ( 'NONE', #551, #144, #53 ) ;
#914 = ORIENTED_EDGE ( 'NONE', *, *, #441, .T. ) ;
#915 = DIRECTION ( 'NONE',  ( -0.000000000000000000, -0.000000000000000000, 1.000000000000000000 ) ) ;
#916 = PERSON_AND_ORGANIZATION ( #214, #106 ) ;
#917 = ORIENTED_EDGE ( 'NONE', *, *, #507, .F. ) ;
#918 = PLANE ( 'NONE',  #927 ) ;
#919 = CARTESIAN_POINT ( 'NONE',  ( -18.99999999999998934, -12.50000000000000000, 6.000000000000000000 ) ) ;
#920 = DIRECTION ( 'NONE',  ( -0.000000000000000000, 1.000000000000000000, -0.000000000000000000 ) ) ;
#921 = EDGE_LOOP ( 'NONE', ( #463, #867 ) ) ;
#922 = EDGE_CURVE ( 'NONE', #318, #564, #983, .T. ) ;
#923 = VERTEX_POINT ( 'NONE', #974 ) ;
#924 = DIRECTION ( 'NONE',  ( 0.000000000000000000, 0.000000000000000000, -1.000000000000000000 ) ) ;
#925 = APPLICATION_PROTOCOL_DEFINITION ( 'international standard', 'config_control_design', 1994, #204 ) ;
#926 = CARTESIAN_POINT ( 'NONE',  ( -1.825698672451220991E-16, -6.000000000000003553, 6.000000000000000000 ) ) ;
#927 = AXIS2_PLACEMENT_3D ( 'NONE', #679, #285, #924 ) ;
#928 = AXIS2_PLACEMENT_3D ( 'NONE', #33, #265, #978 ) ;
#929 = ORIENTED_EDGE ( 'NONE', *, *, #858, .F. ) ;
#930 = ORIENTED_EDGE ( 'NONE', *, *, #544, .F. ) ;
#931 = EDGE_CURVE ( 'NONE', #631, #840, #986, .T. ) ;
#932 = FACE_BOUND ( 'NONE', #392, .T. ) ;
#933 = ORIENTED_EDGE ( 'NONE', *, *, #236, .T. ) ;
#934 = FACE_OUTER_BOUND ( 'NONE', #674, .T. ) ;
#935 = ORIENTED_EDGE ( 'NONE', *, *, #652, .T. ) ;
#936 = CARTESIAN_POINT ( 'NONE',  ( -19.99999999999998934, 11.50000000000000000, 6.000000000000000000 ) ) ;
#937 = EDGE_LOOP ( 'NONE', ( #603, #325, #306, #140 ) ) ;
#938 = PERSON_AND_ORGANIZATION ( #214, #106 ) ;
#939 = DIRECTION ( 'NONE',  ( -0.000000000000000000, -0.000000000000000000, 1.000000000000000000 ) ) ;
#940 = ADVANCED_FACE ( 'NONE', ( #597 ), #107, .F. ) ;
#941 = ORIENTED_EDGE ( 'NONE', *, *, #975, .F. ) ;
#942 = CARTESIAN_POINT ( 'NONE',  ( -19.99999999999998934, 12.50000000000000000, 6.000000000000000000 ) ) ;
#943 = CARTESIAN_POINT ( 'NONE',  ( 19.00000000000000355, -12.50000000000000000, -6.000000000000000000 ) ) ;
#944 = AXIS2_PLACEMENT_3D ( 'NONE', #56, #915, #131 ) ;
#945 = AXIS2_PLACEMENT_3D ( 'NONE', #673, #424, #896 ) ;
#946 = VERTEX_POINT ( 'NONE', #183 ) ;
#947 = CARTESIAN_POINT ( 'NONE',  ( -2.099999999999999201, -6.000000000000003553, 6.000000000000000000 ) ) ;
#948 = ORIENTED_EDGE ( 'NONE', *, *, #484, .T. ) ;
#949 = APPROVAL_PERSON_ORGANIZATION ( #290, #697, #536 ) ;
#950 = DIRECTION ( 'NONE',  ( 1.000000000000000000, 0.000000000000000000, 0.000000000000000000 ) ) ;
#951 = ORIENTED_EDGE ( 'NONE', *, *, #745, .T. ) ;
#952 = CARTESIAN_POINT ( 'NONE',  ( -19.99999999999998934, 12.50000000000000000, -6.000000000000000000 ) ) ;
#953 = CARTESIAN_POINT ( 'NONE',  ( 20.00000000000001066, -12.50000000000000000, 6.000000000000000000 ) ) ;
#954 = CARTESIAN_POINT ( 'NONE',  ( -19.99999999999998934, 11.50000000000000000, 6.000000000000000000 ) ) ;
#955 = ORIENTED_EDGE ( 'NONE', *, *, #202, .T. ) ;
#956 = CARTESIAN_POINT ( 'NONE',  ( 1.749999999999970024, 1.749999999999958256, -6.000000000000000000 ) ) ;
#957 = ADVANCED_FACE ( 'NONE', ( #911 ), #200, .F. ) ;
#958 = CARTESIAN_POINT ( 'NONE',  ( -7.999999999999996447, 24.50000000000000355, -6.000000000000000000 ) ) ;
#959 = CARTESIAN_POINT ( 'NONE',  ( 7.500000000000003553, 1.000000000000000888, -6.000000000000000000 ) ) ;
#960 = VERTEX_POINT ( 'NONE', #744 ) ;
#961 = CARTESIAN_POINT ( 'NONE',  ( 20.00000000000001066, -11.50000000000000000, -6.000000000000000000 ) ) ;
#962 = VECTOR ( 'NONE', #853, 1000.000000000000114 ) ;
#963 = EDGE_CURVE ( 'NONE', #81, #86, #634, .T. ) ;
#964 = LOCAL_TIME ( 14, 59, 35.00000000000000000, #143 ) ;
#965 = CARTESIAN_POINT ( 'NONE',  ( -15.75000000000006217, -15.74999999999995204, -6.000000000000000000 ) ) ;
#966 = CARTESIAN_POINT ( 'NONE',  ( 20.00000000000001066, 11.50000000000000000, 6.000000000000000000 ) ) ;
#967 = ORIENTED_EDGE ( 'NONE', *, *, #97, .T. ) ;
#968 = CARTESIAN_POINT ( 'NONE',  ( 19.00000000000001066, 6.499999999999997335, 5.999999999999999112 ) ) ;
#969 = DIRECTION ( 'NONE',  ( 1.000000000000000000, 0.000000000000000000, 0.000000000000000000 ) ) ;
#970 = DIRECTION ( 'NONE',  ( -0.000000000000000000, -0.000000000000000000, -1.000000000000000000 ) ) ;
#971 = ADVANCED_FACE ( 'NONE', ( #347 ), #435, .F. ) ;
#972 = ORIENTED_EDGE ( 'NONE', *, *, #471, .T. ) ;
#973 = DIRECTION ( 'NONE',  ( -0.000000000000000000, -0.000000000000000000, 1.000000000000000000 ) ) ;
#974 = CARTESIAN_POINT ( 'NONE',  ( -11.25000000000001421, 6.499999999999997335, -6.000000000000000888 ) ) ;
#975 = EDGE_CURVE ( 'NONE', #65, #611, #669, .T. ) ;
#976 = VERTEX_POINT ( 'NONE', #260 ) ;
#977 = AXIS2_PLACEMENT_3D ( 'NONE', #99, #24, #500 ) ;
#978 = DIRECTION ( 'NONE',  ( 1.000000000000000000, 0.000000000000000000, 0.000000000000000000 ) ) ;
#979 = AXIS2_PLACEMENT_3D ( 'NONE', #523, #125, #613 ) ;
#980 = CIRCLE ( 'NONE', #299, 2.099999999999999201 ) ;
#981 = PRODUCT_DEFINITION_FORMATION_WITH_SPECIFIED_SOURCE ( '任何', '', #511, .NOT_KNOWN. ) ;
#982 = VERTEX_POINT ( 'NONE', #594 ) ;
#983 = LINE ( 'NONE', #677, #504 ) ;
#984 = ORIENTED_EDGE ( 'NONE', *, *, #498, .F. ) ;
#985 = FACE_OUTER_BOUND ( 'NONE', #1, .T. ) ;
#986 = LINE ( 'NONE', #276, #399 ) ;
#987 = EDGE_LOOP ( 'NONE', ( #765, #907, #517, #64 ) ) ;
#988 = DIRECTION ( 'NONE',  ( 0.000000000000000000, 0.000000000000000000, 1.000000000000000000 ) ) ;
#989 = EDGE_CURVE ( 'NONE', #493, #611, #1015, .T. ) ;
#990 = AXIS2_PLACEMENT_3D ( 'NONE', #728, #875, #716 ) ;
#991 = VECTOR ( 'NONE', #37, 1000.000000000000000 ) ;
#992 = AXIS2_PLACEMENT_3D ( 'NONE', #862, #1006, #452 ) ;
#993 = ORIENTED_EDGE ( 'NONE', *, *, #721, .T. ) ;
#994 = CARTESIAN_POINT ( 'NONE',  ( 8.000000000000003553, 24.50000000000000355, -6.000000000000000000 ) ) ;
#995 = DIRECTION ( 'NONE',  ( 1.000000000000000000, 0.000000000000000000, 0.000000000000000000 ) ) ;
#996 = CC_DESIGN_DATE_AND_TIME_ASSIGNMENT ( #731, #666, ( #658 ) ) ;
#997 = CARTESIAN_POINT ( 'NONE',  ( -1.825698672451220991E-16, -6.000000000000003553, 6.000000000000000000 ) ) ;
#998 = ORIENTED_EDGE ( 'NONE', *, *, #145, .T. ) ;
#999 = LINE ( 'NONE', #303, #503 ) ;
#1000 = PERSON_AND_ORGANIZATION_ROLE ( 'design_owner' ) ;
#1001 = DIRECTION ( 'NONE',  ( -0.000000000000000000, -0.000000000000000000, -1.000000000000000000 ) ) ;
#1002 = ADVANCED_FACE ( 'NONE', ( #445 ), #852, .F. ) ;
#1003 = ORIENTED_EDGE ( 'NONE', *, *, #1011, .T. ) ;
#1004 = VERTEX_POINT ( 'NONE', #439 ) ;
#1005 = DIRECTION ( 'NONE',  ( 1.000000000000000000, 0.000000000000000000, 0.000000000000000000 ) ) ;
#1006 = DIRECTION ( 'NONE',  ( 0.000000000000000000, 0.000000000000000000, 1.000000000000000000 ) ) ;
#1007 = CARTESIAN_POINT ( 'NONE',  ( 20.00000000000001066, 11.50000000000000000, -6.000000000000000000 ) ) ;
#1008 = VECTOR ( 'NONE', #973, 1000.000000000000000 ) ;
#1009 = AXIS2_PLACEMENT_3D ( 'NONE', #195, #355, #839 ) ;
#1010 = CC_DESIGN_APPROVAL ( #825, ( #658 ) ) ;
#1011 = EDGE_CURVE ( 'NONE', #622, #607, #304, .T. ) ;
#1012 = ORIENTED_EDGE ( 'NONE', *, *, #544, .T. ) ;
#1013 = LINE ( 'NONE', #936, #279 ) ;
#1014 = EDGE_CURVE ( 'NONE', #526, #203, #849, .T. ) ;
#1015 = LINE ( 'NONE', #625, #316 ) ;
#1016 = LINE ( 'NONE', #696, #749 ) ;
#1017 = ORIENTED_EDGE ( 'NONE', *, *, #344, .T. ) ;
#1018 = DIRECTION ( 'NONE',  ( -1.000000000000000000, 0.000000000000000000, 0.000000000000000000 ) ) ;
#1019 = CARTESIAN_POINT ( 'NONE',  ( 20.00000000000001066, -11.50000000000000000, 6.000000000000000000 ) ) ;
ENDSEC;
END-ISO-10303-21;
