ISO-10303-21;
HEADER;
FILE_DESCRIPTION (( 'STEP AP203' ),
    '1' );
FILE_NAME ('RM-JJ-00083878-01.step',
    '2026-04-24T07:01:40',
    ( '1' ),
    ( '' ),
    'SwSTEP 2.0',
    'SolidWorks 2022',
    '' );
FILE_SCHEMA (( 'CONFIG_CONTROL_DESIGN' ));
ENDSEC;

DATA;
#1 = CYLINDRICAL_SURFACE ( 'NONE', #868, 4.499999999999992895 ) ;
#2 = APPROVAL_ROLE ( '' ) ;
#3 = CARTESIAN_POINT ( 'NONE',  ( 27.00000000000001776, -40.00000000000000000, -21.24999999999999645 ) ) ;
#4 = ADVANCED_FACE ( 'NONE', ( #71 ), #871, .F. ) ;
#5 = EDGE_CURVE ( 'NONE', #863, #180, #217, .T. ) ;
#6 = DIRECTION ( 'NONE',  ( -1.000000000000000000, 0.000000000000000000, 0.000000000000000000 ) ) ;
#7 = DIRECTION ( 'NONE',  ( 0.000000000000000000, 1.000000000000000000, 0.000000000000000000 ) ) ;
#8 = DIRECTION ( 'NONE',  ( 0.7071067811865500152, -1.314251500014325057E-16, -0.7071067811865451302 ) ) ;
#9 = CARTESIAN_POINT ( 'NONE',  ( 35.00000000000000711, -40.00000000000000000, -25.00000000000000000 ) ) ;
#10 = VECTOR ( 'NONE', #41, 1000.000000000000000 ) ;
#11 = CALENDAR_DATE ( 2026, 24, 4 ) ;
#12 = DIRECTION ( 'NONE',  ( -1.000000000000000000, -0.000000000000000000, -0.000000000000000000 ) ) ;
#13 = AXIS2_PLACEMENT_3D ( 'NONE', #529, #682, #18 ) ;
#14 = CYLINDRICAL_SURFACE ( 'NONE', #787, 4.499999999999992895 ) ;
#15 = AXIS2_PLACEMENT_3D ( 'NONE', #213, #808, #503 ) ;
#16 = EDGE_CURVE ( 'NONE', #636, #828, #182, .T. ) ;
#17 = PERSON_AND_ORGANIZATION_ROLE ( 'creator' ) ;
#18 = DIRECTION ( 'NONE',  ( -1.000000000000000000, 0.000000000000000000, 4.371992308118050850E-17 ) ) ;
#19 = DIRECTION ( 'NONE',  ( 0.000000000000000000, 1.000000000000000000, 0.000000000000000000 ) ) ;
#20 = PERSON_AND_ORGANIZATION ( #141, #757 ) ;
#21 = EDGE_CURVE ( 'NONE', #263, #333, #726, .T. ) ;
#22 = DIRECTION ( 'NONE',  ( 0.000000000000000000, 0.000000000000000000, 1.000000000000000000 ) ) ;
#23 = ORIENTED_EDGE ( 'NONE', *, *, #711, .F. ) ;
#24 = CARTESIAN_POINT ( 'NONE',  ( 27.00000000000001776, -32.50000000000000000, -20.00000000000000000 ) ) ;
#25 = VERTEX_POINT ( 'NONE', #571 ) ;
#26 = VECTOR ( 'NONE', #328, 1000.000000000000114 ) ;
#27 = CARTESIAN_POINT ( 'NONE',  ( -32.99999999999997868, 0.000000000000000000, 25.00000000000000000 ) ) ;
#28 = EDGE_LOOP ( 'NONE', ( #861, #593, #492, #255 ) ) ;
#29 = DIRECTION ( 'NONE',  ( 0.000000000000000000, 0.000000000000000000, 1.000000000000000000 ) ) ;
#30 = EDGE_LOOP ( 'NONE', ( #560, #183 ) ) ;
#31 = APPROVAL_DATE_TIME ( #850, #899 ) ;
#32 = DIRECTION ( 'NONE',  ( 0.000000000000000000, 0.000000000000000000, 1.000000000000000000 ) ) ;
#33 = VERTEX_POINT ( 'NONE', #640 ) ;
#34 = ADVANCED_FACE ( 'NONE', ( #942, #498 ), #565, .F. ) ;
#35 = APPROVAL ( #156, '未指定' ) ;
#36 = LINE ( 'NONE', #332, #507 ) ;
#37 = ORIENTED_EDGE ( 'NONE', *, *, #519, .F. ) ;
#38 = APPROVAL_STATUS ( 'not_yet_approved' ) ;
#39 = PLANE ( 'NONE',  #806 ) ;
#40 = ORIENTED_EDGE ( 'NONE', *, *, #47, .T. ) ;
#41 = DIRECTION ( 'NONE',  ( -1.000000000000000000, -0.000000000000000000, -0.000000000000000000 ) ) ;
#42 = EDGE_LOOP ( 'NONE', ( #68, #638 ) ) ;
#43 = DIRECTION ( 'NONE',  ( -1.000000000000000000, -0.000000000000000000, -0.000000000000000000 ) ) ;
#44 = EDGE_LOOP ( 'NONE', ( #243, #431, #800, #853, #416, #423 ) ) ;
#45 = VECTOR ( 'NONE', #417, 1000.000000000000000 ) ;
#46 = CARTESIAN_POINT ( 'NONE',  ( 27.00000000000001776, -40.00000000000000000, -21.24999999999999645 ) ) ;
#47 = EDGE_CURVE ( 'NONE', #113, #878, #123, .T. ) ;
#48 = EDGE_LOOP ( 'NONE', ( #502, #777, #845, #649, #132, #344 ) ) ;
#49 = CIRCLE ( 'NONE', #886, 4.499999999999988454 ) ;
#50 = DIRECTION ( 'NONE',  ( 0.000000000000000000, 0.000000000000000000, -1.000000000000000000 ) ) ;
#51 = ORIENTED_EDGE ( 'NONE', *, *, #419, .T. ) ;
#52 = DIRECTION ( 'NONE',  ( 1.049727191138618326E-16, -0.5150380749100547106, 0.8571673007021120005 ) ) ;
#53 = ORIENTED_EDGE ( 'NONE', *, *, #822, .F. ) ;
#54 = CARTESIAN_POINT ( 'NONE',  ( 23.00000000000001421, -37.99999999999998579, 25.00000000000000000 ) ) ;
#55 = VERTEX_POINT ( 'NONE', #427 ) ;
#56 = EDGE_CURVE ( 'NONE', #689, #425, #84, .T. ) ;
#57 = ORIENTED_EDGE ( 'NONE', *, *, #951, .F. ) ;
#58 = LINE ( 'NONE', #361, #821 ) ;
#59 = ORIENTED_EDGE ( 'NONE', *, *, #364, .T. ) ;
#60 = VECTOR ( 'NONE', #93, 1000.000000000000000 ) ;
#61 = AXIS2_PLACEMENT_3D ( 'NONE', #302, #816, #227 ) ;
#62 = ORIENTED_EDGE ( 'NONE', *, *, #509, .F. ) ;
#63 = CARTESIAN_POINT ( 'NONE',  ( 27.00000000000001776, -33.25107577378445001, -18.75000000000000355 ) ) ;
#64 = ORIENTED_EDGE ( 'NONE', *, *, #137, .F. ) ;
#65 = CIRCLE ( 'NONE', #619, 1.249999999999997558 ) ;
#66 = EDGE_CURVE ( 'NONE', #495, #190, #906, .T. ) ;
#67 = EDGE_CURVE ( 'NONE', #489, #506, #445, .T. ) ;
#68 = ORIENTED_EDGE ( 'NONE', *, *, #547, .F. ) ;
#69 = DIRECTION ( 'NONE',  ( 0.000000000000000000, 0.000000000000000000, -1.000000000000000000 ) ) ;
#70 = DIRECTION ( 'NONE',  ( 0.000000000000000000, 0.000000000000000000, -1.000000000000000000 ) ) ;
#71 = FACE_OUTER_BOUND ( 'NONE', #354, .T. ) ;
#72 = CARTESIAN_POINT ( 'NONE',  ( 27.00000000000001776, -40.00000000000000000, -20.00000000000000000 ) ) ;
#73 = CARTESIAN_POINT ( 'NONE',  ( 27.00000000000001066, -33.25107577378445001, 20.00000000000000000 ) ) ;
#74 = DIRECTION ( 'NONE',  ( -0.000000000000000000, -1.000000000000000000, -0.000000000000000000 ) ) ;
#75 = ADVANCED_FACE ( 'NONE', ( #516 ), #14, .F. ) ;
#76 = CARTESIAN_POINT ( 'NONE',  ( 27.00000000000001066, -40.00000000000000000, 18.75000000000000355 ) ) ;
#77 = DIRECTION ( 'NONE',  ( -0.000000000000000000, -1.000000000000000000, -0.000000000000000000 ) ) ;
#78 = CIRCLE ( 'NONE', #370, 4.499999999999988454 ) ;
#79 = AXIS2_PLACEMENT_3D ( 'NONE', #957, #727, #296 ) ;
#80 = CARTESIAN_POINT ( 'NONE',  ( 4.999999999999999112, 27.99999999999999645, 3.696289311856949464E-15 ) ) ;
#81 = COORDINATED_UNIVERSAL_TIME_OFFSET ( 8, 0, .AHEAD. ) ;
#82 = DIRECTION ( 'NONE',  ( 0.000000000000000000, 1.000000000000000000, 0.000000000000000000 ) ) ;
#83 = CC_DESIGN_PERSON_AND_ORGANIZATION_ASSIGNMENT ( #377, #818, ( #505 ) ) ;
#84 = LINE ( 'NONE', #451, #832 ) ;
#85 = LINE ( 'NONE', #164, #325 ) ;
#86 = EDGE_CURVE ( 'NONE', #104, #697, #530, .T. ) ;
#87 = DIRECTION ( 'NONE',  ( 0.000000000000000000, 0.000000000000000000, -1.000000000000000000 ) ) ;
#88 = AXIS2_PLACEMENT_3D ( 'NONE', #336, #624, #29 ) ;
#89 = AXIS2_PLACEMENT_3D ( 'NONE', #965, #514, #870 ) ;
#90 = PERSON_AND_ORGANIZATION ( #141, #757 ) ;
#91 = DIRECTION ( 'NONE',  ( 0.000000000000000000, 0.000000000000000000, -1.000000000000000000 ) ) ;
#92 = VECTOR ( 'NONE', #142, 1000.000000000000000 ) ;
#93 = DIRECTION ( 'NONE',  ( -0.000000000000000000, -1.000000000000000000, -0.000000000000000000 ) ) ;
#94 = EDGE_CURVE ( 'NONE', #815, #689, #737, .T. ) ;
#95 = PERSON_AND_ORGANIZATION ( #141, #757 ) ;
#96 = DIRECTION ( 'NONE',  ( 1.049727191138618326E-16, -0.5150380749100547106, 0.8571673007021120005 ) ) ;
#97 = ORIENTED_EDGE ( 'NONE', *, *, #569, .F. ) ;
#98 = CARTESIAN_POINT ( 'NONE',  ( 23.00000000000001421, -40.00000000000000000, -22.99999999999998579 ) ) ;
#99 = ORIENTED_EDGE ( 'NONE', *, *, #16, .F. ) ;
#100 = CARTESIAN_POINT ( 'NONE',  ( -34.99999999999999289, -40.00000000000000000, 22.99999999999997158 ) ) ;
#101 = CARTESIAN_POINT ( 'NONE',  ( 0.000000000000000000, 0.000000000000000000, 25.00000000000000000 ) ) ;
#102 = EDGE_LOOP ( 'NONE', ( #108, #388, #195, #629, #580, #288, #835 ) ) ;
#103 = CARTESIAN_POINT ( 'NONE',  ( 27.00000000000001066, -32.50000000000000000, 20.00000000000000000 ) ) ;
#104 = VERTEX_POINT ( 'NONE', #746 ) ;
#105 = VECTOR ( 'NONE', #363, 1000.000000000000000 ) ;
#106 = ADVANCED_FACE ( 'NONE', ( #306, #154, #311 ), #812, .F. ) ;
#107 = CARTESIAN_POINT ( 'NONE',  ( 23.00000000000000711, -19.99999999999999645, -15.00000000000000000 ) ) ;
#108 = ORIENTED_EDGE ( 'NONE', *, *, #749, .F. ) ;
#109 = CC_DESIGN_PERSON_AND_ORGANIZATION_ASSIGNMENT ( #20, #613, ( #715 ) ) ;
#110 = CARTESIAN_POINT ( 'NONE',  ( 35.00000000000001421, -19.99999999999999645, -15.00000000000000000 ) ) ;
#111 = VERTEX_POINT ( 'NONE', #454 ) ;
#112 = CARTESIAN_POINT ( 'NONE',  ( 23.00000000000001421, -40.00000000000000711, -25.00000000000000000 ) ) ;
#113 = VERTEX_POINT ( 'NONE', #520 ) ;
#114 = DIRECTION ( 'NONE',  ( 0.000000000000000000, 0.000000000000000000, 1.000000000000000000 ) ) ;
#115 = ORIENTED_EDGE ( 'NONE', *, *, #930, .F. ) ;
#116 = LINE ( 'NONE', #646, #805 ) ;
#117 = ORIENTED_EDGE ( 'NONE', *, *, #364, .F. ) ;
#118 = ADVANCED_FACE ( 'NONE', ( #826 ), #604, .F. ) ;
#119 = DIRECTION ( 'NONE',  ( -0.000000000000000000, -0.000000000000000000, -1.000000000000000000 ) ) ;
#120 = ORIENTED_EDGE ( 'NONE', *, *, #86, .T. ) ;
#121 = PERSON_AND_ORGANIZATION ( #141, #757 ) ;
#122 = FACE_OUTER_BOUND ( 'NONE', #464, .T. ) ;
#123 = CIRCLE ( 'NONE', #725, 1.999999999999998224 ) ;
#124 = ORIENTED_EDGE ( 'NONE', *, *, #655, .F. ) ;
#125 = AXIS2_PLACEMENT_3D ( 'NONE', #73, #736, #591 ) ;
#126 = CARTESIAN_POINT ( 'NONE',  ( 27.00000000000001066, -40.00000000000000000, 20.00000000000000000 ) ) ;
#127 = CARTESIAN_POINT ( 'NONE',  ( 23.00000000000000711, -19.99999999999999645, 15.00000000000000000 ) ) ;
#128 = ADVANCED_FACE ( 'NONE', ( #598 ), #898, .F. ) ;
#129 = VECTOR ( 'NONE', #151, 1000.000000000000000 ) ;
#130 = LINE ( 'NONE', #54, #433 ) ;
#131 = EDGE_LOOP ( 'NONE', ( #467, #204, #501, #120 ) ) ;
#132 = ORIENTED_EDGE ( 'NONE', *, *, #499, .F. ) ;
#133 = DIRECTION ( 'NONE',  ( -0.000000000000000000, -1.000000000000000000, -0.000000000000000000 ) ) ;
#134 = ORIENTED_EDGE ( 'NONE', *, *, #21, .T. ) ;
#135 = DIRECTION ( 'NONE',  ( -1.000000000000000000, 0.000000000000000000, 0.000000000000000000 ) ) ;
#136 = LINE ( 'NONE', #100, #399 ) ;
#137 = EDGE_CURVE ( 'NONE', #324, #506, #376, .T. ) ;
#138 = VERTEX_POINT ( 'NONE', #829 ) ;
#139 = CIRCLE ( 'NONE', #89, 1.999999999999998224 ) ;
#140 = ORIENTED_EDGE ( 'NONE', *, *, #622, .T. ) ;
#141 = PERSON ( '未指定', '未指定', '未指定', ('未指定'), ('未指定'), ('未指定') ) ;
#142 = DIRECTION ( 'NONE',  ( -0.000000000000000000, -1.000000000000000000, -0.000000000000000000 ) ) ;
#143 = VECTOR ( 'NONE', #718, 1000.000000000000114 ) ;
#144 = LINE ( 'NONE', #716, #966 ) ;
#145 = ORIENTED_EDGE ( 'NONE', *, *, #609, .T. ) ;
#146 = PLANE ( 'NONE',  #327 ) ;
#147 = DIRECTION ( 'NONE',  ( 0.000000000000000000, -0.5150380749100547106, -0.8571673007021120005 ) ) ;
#148 = ORIENTED_EDGE ( 'NONE', *, *, #405, .T. ) ;
#149 = ADVANCED_FACE ( 'NONE', ( #237 ), #165, .F. ) ;
#150 = CARTESIAN_POINT ( 'NONE',  ( 0.000000000000000000, -37.99999999999998579, 25.00000000000000000 ) ) ;
#151 = DIRECTION ( 'NONE',  ( -1.000000000000000000, -0.000000000000000000, -0.000000000000000000 ) ) ;
#152 = CARTESIAN_POINT ( 'NONE',  ( -34.99999999999999289, 40.00000000000000000, 25.00000000000000000 ) ) ;
#153 = CLOSED_SHELL ( 'NONE', ( #283, #750, #128, #307, #298, #4, #944, #34, #680, #317, #643, #916, #106, #375, #869, #359, #811, #75, #155, #118, #597, #385, #149, #844, #579, #305, #635, #739, #768 ) ) ;
#154 = FACE_BOUND ( 'NONE', #611, .T. ) ;
#155 = ADVANCED_FACE ( 'NONE', ( #679 ), #1, .F. ) ;
#156 = APPROVAL_STATUS ( 'not_yet_approved' ) ;
#157 = DIRECTION ( 'NONE',  ( 0.000000000000000000, 0.000000000000000000, 1.000000000000000000 ) ) ;
#158 = VECTOR ( 'NONE', #532, 1000.000000000000000 ) ;
#159 = VECTOR ( 'NONE', #224, 1000.000000000000000 ) ;
#160 = CARTESIAN_POINT ( 'NONE',  ( 35.00000000000000711, -40.00000000000000000, -22.99999999999998579 ) ) ;
#161 = DIRECTION ( 'NONE',  ( -0.000000000000000000, -1.000000000000000000, -0.000000000000000000 ) ) ;
#162 = CARTESIAN_POINT ( 'NONE',  ( 27.00000000000001066, -33.25107577378445001, 21.24999999999999645 ) ) ;
#163 = DIRECTION ( 'NONE',  ( -0.000000000000000000, -1.000000000000000000, -0.000000000000000000 ) ) ;
#164 = CARTESIAN_POINT ( 'NONE',  ( -34.99999999999999289, 28.00000000000000355, -22.99999999999999289 ) ) ;
#165 = CYLINDRICAL_SURFACE ( 'NONE', #632, 1.249999999999997558 ) ;
#166 = VECTOR ( 'NONE', #807, 1000.000000000000000 ) ;
#167 = VECTOR ( 'NONE', #444, 1000.000000000000000 ) ;
#168 = DIRECTION ( 'NONE',  ( -0.000000000000000000, -1.000000000000000000, -0.000000000000000000 ) ) ;
#169 = ORIENTED_EDGE ( 'NONE', *, *, #887, .F. ) ;
#170 = VECTOR ( 'NONE', #196, 1000.000000000000000 ) ;
#171 = DIRECTION ( 'NONE',  ( -0.000000000000000000, -1.000000000000000000, -0.000000000000000000 ) ) ;
#172 = ORIENTED_EDGE ( 'NONE', *, *, #211, .T. ) ;
#173 = APPROVAL_DATE_TIME ( #303, #35 ) ;
#174 = DIRECTION ( 'NONE',  ( 0.000000000000000000, 0.000000000000000000, 1.000000000000000000 ) ) ;
#175 = ORIENTED_EDGE ( 'NONE', *, *, #671, .T. ) ;
#176 = CARTESIAN_POINT ( 'NONE',  ( -34.99999999999999289, 40.00000000000000000, 25.00000000000000000 ) ) ;
#177 = EDGE_CURVE ( 'NONE', #763, #719, #675, .T. ) ;
#178 = ORIENTED_EDGE ( 'NONE', *, *, #5, .T. ) ;
#179 = DIRECTION ( 'NONE',  ( -3.717074949535439682E-17, 0.7071067811865451302, 0.7071067811865500152 ) ) ;
#180 = VERTEX_POINT ( 'NONE', #295 ) ;
#181 = LINE ( 'NONE', #176, #245 ) ;
#182 = CIRCLE ( 'NONE', #473, 3.499999999999989342 ) ;
#183 = ORIENTED_EDGE ( 'NONE', *, *, #959, .F. ) ;
#184 = CIRCLE ( 'NONE', #833, 1.249999999999997558 ) ;
#185 = CARTESIAN_POINT ( 'NONE',  ( 4.999999999999999112, 27.99999999999999645, -4.499999999999976019 ) ) ;
#186 = EDGE_LOOP ( 'NONE', ( #563, #368, #51, #62 ) ) ;
#187 = CARTESIAN_POINT ( 'NONE',  ( 35.00000000000001421, -19.99999999999999645, -11.50000000000000355 ) ) ;
#188 = CIRCLE ( 'NONE', #729, 3.499999999999989342 ) ;
#189 = VECTOR ( 'NONE', #421, 1000.000000000000000 ) ;
#190 = VERTEX_POINT ( 'NONE', #588 ) ;
#191 = CARTESIAN_POINT ( 'NONE',  ( 35.00000000000000711, -37.99999999999998579, 25.00000000000000000 ) ) ;
#192 = EDGE_CURVE ( 'NONE', #933, #138, #891, .T. ) ;
#193 = EDGE_LOOP ( 'NONE', ( #734, #658, #842, #278 ) ) ;
#194 = CARTESIAN_POINT ( 'NONE',  ( 27.00000000000001066, -40.00000000000000000, 20.00000000000000000 ) ) ;
#195 = ORIENTED_EDGE ( 'NONE', *, *, #880, .F. ) ;
#196 = DIRECTION ( 'NONE',  ( 1.000000000000000000, -1.858632295689435856E-16, 0.000000000000000000 ) ) ;
#197 = ORIENTED_EDGE ( 'NONE', *, *, #137, .T. ) ;
#198 = EDGE_CURVE ( 'NONE', #878, #815, #299, .T. ) ;
#199 = DIRECTION ( 'NONE',  ( -1.000000000000000000, -0.000000000000000000, -0.000000000000000000 ) ) ;
#200 = DIRECTION ( 'NONE',  ( 0.000000000000000000, -1.000000000000000000, 0.000000000000000000 ) ) ;
#201 = COORDINATED_UNIVERSAL_TIME_OFFSET ( 8, 0, .AHEAD. ) ;
#202 = DIRECTION ( 'NONE',  ( -1.000000000000000000, -0.000000000000000000, -0.000000000000000000 ) ) ;
#203 = CONICAL_SURFACE ( 'NONE', #738, 1.249999999999997558, 1.029744258676653867 ) ;
#204 = ORIENTED_EDGE ( 'NONE', *, *, #66, .T. ) ;
#205 = APPLICATION_CONTEXT ( 'configuration controlled 3d designs of mechanical parts and assemblies' ) ;
#206 = CARTESIAN_POINT ( 'NONE',  ( -32.99999999999997868, 40.00000000000000000, 25.00000000000000000 ) ) ;
#207 = VERTEX_POINT ( 'NONE', #103 ) ;
#208 = AXIS2_PLACEMENT_3D ( 'NONE', #107, #397, #32 ) ;
#209 = FACE_OUTER_BOUND ( 'NONE', #665, .T. ) ;
#210 = ORIENTED_EDGE ( 'NONE', *, *, #703, .T. ) ;
#211 = EDGE_CURVE ( 'NONE', #190, #933, #927, .T. ) ;
#212 = DIRECTION ( 'NONE',  ( 0.000000000000000000, 0.000000000000000000, -1.000000000000000000 ) ) ;
#213 = CARTESIAN_POINT ( 'NONE',  ( 35.00000000000000711, -40.00000000000000000, 25.00000000000000000 ) ) ;
#214 = ORIENTED_EDGE ( 'NONE', *, *, #446, .T. ) ;
#215 = EDGE_LOOP ( 'NONE', ( #773, #533, #949, #64 ) ) ;
#216 = CARTESIAN_POINT ( 'NONE',  ( -34.99999999999999289, 40.00000000000000000, -22.99999999999998579 ) ) ;
#217 = CIRCLE ( 'NONE', #817, 1.249999999999997558 ) ;
#218 = AXIS2_PLACEMENT_3D ( 'NONE', #741, #77, #229 ) ;
#219 = DIRECTION ( 'NONE',  ( -1.000000000000000000, -0.000000000000000000, -0.000000000000000000 ) ) ;
#220 = CARTESIAN_POINT ( 'NONE',  ( 35.00000000000000711, -40.00000000000000000, 25.00000000000000000 ) ) ;
#221 = DIRECTION ( 'NONE',  ( 0.000000000000000000, -1.000000000000000000, 0.000000000000000000 ) ) ;
#222 = EDGE_CURVE ( 'NONE', #111, #441, #852, .T. ) ;
#223 = DIRECTION ( 'NONE',  ( 0.000000000000000000, 1.000000000000000000, 0.000000000000000000 ) ) ;
#224 = DIRECTION ( 'NONE',  ( -0.000000000000000000, -0.000000000000000000, -1.000000000000000000 ) ) ;
#225 = CARTESIAN_POINT ( 'NONE',  ( 27.00000000000001776, -33.25107577378445001, -18.75000000000000355 ) ) ;
#226 = EDGE_CURVE ( 'NONE', #863, #717, #633, .T. ) ;
#227 = DIRECTION ( 'NONE',  ( -5.256737805990324790E-17, 1.000000000000000000, 0.000000000000000000 ) ) ;
#228 = SECURITY_CLASSIFICATION_LEVEL ( 'unclassified' ) ;
#229 = DIRECTION ( 'NONE',  ( 0.000000000000000000, 0.000000000000000000, -1.000000000000000000 ) ) ;
#230 = VECTOR ( 'NONE', #223, 1000.000000000000000 ) ;
#231 = CARTESIAN_POINT ( 'NONE',  ( 27.00000000000001776, -40.00000000000000000, -20.00000000000000000 ) ) ;
#232 = CARTESIAN_POINT ( 'NONE',  ( 27.00000000000001066, -40.00000000000000000, 20.00000000000000000 ) ) ;
#233 = CARTESIAN_POINT ( 'NONE',  ( 21.00000000000001066, 27.99999999999999289, 25.00000000000000000 ) ) ;
#234 = CIRCLE ( 'NONE', #250, 3.499999999999989342 ) ;
#235 = APPROVAL_PERSON_ORGANIZATION ( #316, #35, #2 ) ;
#236 = LOCAL_TIME ( 15, 1, 40.00000000000000000, #81 ) ;
#237 = FACE_OUTER_BOUND ( 'NONE', #287, .T. ) ;
#238 = EDGE_CURVE ( 'NONE', #395, #495, #612, .T. ) ;
#239 = CC_DESIGN_DATE_AND_TIME_ASSIGNMENT ( #744, #673, ( #715 ) ) ;
#240 = DIRECTION ( 'NONE',  ( -1.000000000000000000, -0.000000000000000000, -0.000000000000000000 ) ) ;
#241 = DIRECTION ( 'NONE',  ( 0.000000000000000000, 0.000000000000000000, -1.000000000000000000 ) ) ;
#242 = FACE_OUTER_BOUND ( 'NONE', #920, .T. ) ;
#243 = ORIENTED_EDGE ( 'NONE', *, *, #722, .T. ) ;
#244 = CARTESIAN_POINT ( 'NONE',  ( 35.00000000000001421, -19.99999999999999645, 15.00000000000000000 ) ) ;
#245 = VECTOR ( 'NONE', #389, 1000.000000000000000 ) ;
#246 = ORIENTED_EDGE ( 'NONE', *, *, #66, .F. ) ;
#247 = DIRECTION ( 'NONE',  ( 0.000000000000000000, -1.000000000000000000, 0.000000000000000000 ) ) ;
#248 = ORIENTED_EDGE ( 'NONE', *, *, #476, .T. ) ;
#249 = EDGE_CURVE ( 'NONE', #933, #395, #36, .T. ) ;
#250 = AXIS2_PLACEMENT_3D ( 'NONE', #754, #455, #157 ) ;
#251 = AXIS2_PLACEMENT_3D ( 'NONE', #232, #161, #386 ) ;
#252 = FACE_OUTER_BOUND ( 'NONE', #322, .T. ) ;
#253 = ORIENTED_EDGE ( 'NONE', *, *, #876, .T. ) ;
#254 = CARTESIAN_POINT ( 'NONE',  ( 27.00000000000001066, -33.25107577378445001, 18.75000000000000355 ) ) ;
#255 = ORIENTED_EDGE ( 'NONE', *, *, #592, .T. ) ;
#256 = FACE_OUTER_BOUND ( 'NONE', #131, .T. ) ;
#257 = EDGE_CURVE ( 'NONE', #441, #828, #542, .T. ) ;
#258 = ORIENTED_EDGE ( 'NONE', *, *, #782, .T. ) ;
#259 = FACE_OUTER_BOUND ( 'NONE', #656, .T. ) ;
#260 = ORIENTED_EDGE ( 'NONE', *, *, #581, .F. ) ;
#261 = FACE_OUTER_BOUND ( 'NONE', #355, .T. ) ;
#262 = VECTOR ( 'NONE', #963, 1000.000000000000000 ) ;
#263 = VERTEX_POINT ( 'NONE', #187 ) ;
#264 = CARTESIAN_POINT ( 'NONE',  ( -32.99999999999997868, 40.00000000000000000, 25.00000000000000000 ) ) ;
#265 = ORIENTED_EDGE ( 'NONE', *, *, #859, .F. ) ;
#266 = DIRECTION ( 'NONE',  ( 0.000000000000000000, -0.000000000000000000, 1.000000000000000000 ) ) ;
#267 = AXIS2_PLACEMENT_3D ( 'NONE', #561, #43, #555 ) ;
#268 = ORIENTED_EDGE ( 'NONE', *, *, #56, .T. ) ;
#269 = LOCAL_TIME ( 15, 1, 40.00000000000000000, #448 ) ;
#270 = CARTESIAN_POINT ( 'NONE',  ( 23.00000000000001066, 25.99999999999999645, 25.00000000000000000 ) ) ;
#271 = ORIENTED_EDGE ( 'NONE', *, *, #652, .F. ) ;
#272 = EDGE_CURVE ( 'NONE', #263, #578, #801, .T. ) ;
#273 = CARTESIAN_POINT ( 'NONE',  ( 4.999999999999999112, 40.00000000000000000, 3.696289311856949464E-15 ) ) ;
#274 = ORIENTED_EDGE ( 'NONE', *, *, #609, .F. ) ;
#275 = PLANE ( 'NONE',  #874 ) ;
#276 = ORIENTED_EDGE ( 'NONE', *, *, #272, .T. ) ;
#277 = LINE ( 'NONE', #225, #493 ) ;
#278 = ORIENTED_EDGE ( 'NONE', *, *, #476, .F. ) ;
#279 = LINE ( 'NONE', #500, #955 ) ;
#280 = AXIS2_PLACEMENT_3D ( 'NONE', #958, #290, #583 ) ;
#281 = EDGE_LOOP ( 'NONE', ( #515, #390, #700 ) ) ;
#282 = EDGE_CURVE ( 'NONE', #329, #568, #181, .T. ) ;
#283 = ADVANCED_FACE ( 'NONE', ( #261 ), #536, .F. ) ;
#284 = CARTESIAN_POINT ( 'NONE',  ( 23.00000000000000711, -19.99999999999999645, -11.50000000000000711 ) ) ;
#285 = AXIS2_PLACEMENT_3D ( 'NONE', #72, #133, #69 ) ;
#286 = CARTESIAN_POINT ( 'NONE',  ( -32.99999999999997868, 28.00000000000000355, 25.00000000000000000 ) ) ;
#287 = EDGE_LOOP ( 'NONE', ( #692, #274, #248, #331 ) ) ;
#288 = ORIENTED_EDGE ( 'NONE', *, *, #722, .F. ) ;
#289 = LINE ( 'NONE', #443, #383 ) ;
#290 = DIRECTION ( 'NONE',  ( -1.000000000000000000, -0.000000000000000000, -0.000000000000000000 ) ) ;
#291 = EDGE_CURVE ( 'NONE', #111, #636, #935, .T. ) ;
#292 = FACE_OUTER_BOUND ( 'NONE', #281, .T. ) ;
#293 = CARTESIAN_POINT ( 'NONE',  ( 23.00000000000001421, -40.00000000000000711, -22.99999999999998579 ) ) ;
#294 = UNCERTAINTY_MEASURE_WITH_UNIT (LENGTH_MEASURE( 1.000000000000000082E-05 ), #900, 'distance_accuracy_value', 'NONE');
#295 = CARTESIAN_POINT ( 'NONE',  ( 27.00000000000001776, -33.25107577378445001, -21.24999999999999645 ) ) ;
#296 = DIRECTION ( 'NONE',  ( -1.000000000000000000, 0.000000000000000000, -0.000000000000000000 ) ) ;
#297 = CARTESIAN_POINT ( 'NONE',  ( 23.00000000000001421, -40.00000000000000711, 25.00000000000000000 ) ) ;
#298 = ADVANCED_FACE ( 'NONE', ( #843 ), #772, .F. ) ;
#299 = LINE ( 'NONE', #594, #677 ) ;
#300 = CALENDAR_DATE ( 2026, 24, 4 ) ;
#301 = FACE_OUTER_BOUND ( 'NONE', #314, .T. ) ;
#302 = CARTESIAN_POINT ( 'NONE',  ( 23.00000000000001421, -40.00000000000000711, 25.00000000000000000 ) ) ;
#303 = DATE_AND_TIME ( #300, #776 ) ;
#304 = DIRECTION ( 'NONE',  ( -0.000000000000000000, -1.000000000000000000, -0.000000000000000000 ) ) ;
#305 = ADVANCED_FACE ( 'NONE', ( #252 ), #481, .T. ) ;
#306 = FACE_BOUND ( 'NONE', #42, .T. ) ;
#307 = ADVANCED_FACE ( 'NONE', ( #910 ), #203, .F. ) ;
#308 =( NAMED_UNIT ( * ) PLANE_ANGLE_UNIT ( ) SI_UNIT ( $, .RADIAN. ) );
#309 = CARTESIAN_POINT ( 'NONE',  ( 23.00000000000000711, -19.99999999999999645, -18.49999999999998934 ) ) ;
#310 = VECTOR ( 'NONE', #941, 1000.000000000000000 ) ;
#311 = FACE_OUTER_BOUND ( 'NONE', #44, .T. ) ;
#312 = PERSON_AND_ORGANIZATION_ROLE ( 'design_supplier' ) ;
#313 = CARTESIAN_POINT ( 'NONE',  ( 27.00000000000001776, -33.25107577378445001, -20.00000000000000000 ) ) ;
#314 = EDGE_LOOP ( 'NONE', ( #358, #23, #487, #360 ) ) ;
#315 = CARTESIAN_POINT ( 'NONE',  ( 35.00000000000000711, -40.00000000000000000, -22.99999999999998579 ) ) ;
#316 = PERSON_AND_ORGANIZATION ( #141, #757 ) ;
#317 = ADVANCED_FACE ( 'NONE', ( #854, #778, #256 ), #546, .F. ) ;
#318 = PLANE ( 'NONE',  #856 ) ;
#319 = ORIENTED_EDGE ( 'NONE', *, *, #67, .T. ) ;
#320 = DIRECTION ( 'NONE',  ( 5.256737805990324174E-17, -1.000000000000000000, -0.000000000000000000 ) ) ;
#321 = VECTOR ( 'NONE', #755, 1000.000000000000000 ) ;
#322 = EDGE_LOOP ( 'NONE', ( #393, #911, #97, #265 ) ) ;
#323 = DIRECTION ( 'NONE',  ( 0.000000000000000000, 0.000000000000000000, -1.000000000000000000 ) ) ;
#324 = VERTEX_POINT ( 'NONE', #837 ) ;
#325 = VECTOR ( 'NONE', #8, 1000.000000000000114 ) ;
#326 = EDGE_CURVE ( 'NONE', #761, #720, #600, .T. ) ;
#327 = AXIS2_PLACEMENT_3D ( 'NONE', #659, #357, #365 ) ;
#328 = DIRECTION ( 'NONE',  ( 3.717074949535465566E-17, -0.7071067811865500152, 0.7071067811865451302 ) ) ;
#329 = VERTEX_POINT ( 'NONE', #762 ) ;
#330 = DIRECTION ( 'NONE',  ( 0.7071067811865451302, -0.000000000000000000, 0.7071067811865500152 ) ) ;
#331 = ORIENTED_EDGE ( 'NONE', *, *, #887, .T. ) ;
#332 = CARTESIAN_POINT ( 'NONE',  ( 23.00000000000001421, -37.99999999999997158, -25.00000000000000000 ) ) ;
#333 = VERTEX_POINT ( 'NONE', #688 ) ;
#334 = CARTESIAN_POINT ( 'NONE',  ( 23.00000000000001421, -40.00000000000000711, 22.99999999999997158 ) ) ;
#335 = VERTEX_POINT ( 'NONE', #24 ) ;
#336 = CARTESIAN_POINT ( 'NONE',  ( 23.00000000000000711, -19.99999999999999645, -15.00000000000000000 ) ) ;
#337 = ORIENTED_EDGE ( 'NONE', *, *, #499, .T. ) ;
#338 = CC_DESIGN_PERSON_AND_ORGANIZATION_ASSIGNMENT ( #90, #17, ( #482 ) ) ;
#339 = VECTOR ( 'NONE', #147, 1000.000000000000000 ) ;
#340 = DIRECTION ( 'NONE',  ( -1.000000000000000000, 0.000000000000000000, 0.000000000000000000 ) ) ;
#341 = VERTEX_POINT ( 'NONE', #394 ) ;
#342 = CARTESIAN_POINT ( 'NONE',  ( -24.99999999999999289, 27.99999999999999645, 4.499999999999993783 ) ) ;
#343 =( GEOMETRIC_REPRESENTATION_CONTEXT ( 3 ) GLOBAL_UNCERTAINTY_ASSIGNED_CONTEXT ( ( #294 ) ) GLOBAL_UNIT_ASSIGNED_CONTEXT ( ( #900, #308, #904 ) ) REPRESENTATION_CONTEXT ( 'NONE', 'WORKASPACE' ) );
#344 = ORIENTED_EDGE ( 'NONE', *, *, #930, .T. ) ;
#345 = CARTESIAN_POINT ( 'NONE',  ( -34.99999999999999289, 28.00000000000000355, -25.00000000000000000 ) ) ;
#346 = ORIENTED_EDGE ( 'NONE', *, *, #192, .T. ) ;
#347 = DIRECTION ( 'NONE',  ( 0.000000000000000000, 0.000000000000000000, 1.000000000000000000 ) ) ;
#348 = EDGE_LOOP ( 'NONE', ( #197, #765, #713, #483 ) ) ;
#349 = DIRECTION ( 'NONE',  ( 0.000000000000000000, 0.000000000000000000, -1.000000000000000000 ) ) ;
#350 = EDGE_CURVE ( 'NONE', #539, #55, #139, .T. ) ;
#351 = ORIENTED_EDGE ( 'NONE', *, *, #733, .F. ) ;
#352 = ORIENTED_EDGE ( 'NONE', *, *, #824, .T. ) ;
#353 = CARTESIAN_POINT ( 'NONE',  ( -34.99999999999999289, 40.00000000000000000, -25.00000000000000000 ) ) ;
#354 = EDGE_LOOP ( 'NONE', ( #537, #728, #707, #422 ) ) ;
#355 = EDGE_LOOP ( 'NONE', ( #625, #576, #924, #461 ) ) ;
#356 = AXIS2_PLACEMENT_3D ( 'NONE', #484, #701, #780 ) ;
#357 = DIRECTION ( 'NONE',  ( 1.858632295689436102E-16, 1.000000000000000000, -0.000000000000000000 ) ) ;
#358 = ORIENTED_EDGE ( 'NONE', *, *, #350, .T. ) ;
#359 = ADVANCED_FACE ( 'NONE', ( #792 ), #436, .F. ) ;
#360 = ORIENTED_EDGE ( 'NONE', *, *, #655, .T. ) ;
#361 = CARTESIAN_POINT ( 'NONE',  ( 35.00000000000000711, 40.00000000000000000, 25.00000000000000000 ) ) ;
#362 = CARTESIAN_POINT ( 'NONE',  ( 27.00000000000001066, -40.00000000000000000, 21.24999999999999645 ) ) ;
#363 = DIRECTION ( 'NONE',  ( 1.000000000000000000, 0.000000000000000000, 0.000000000000000000 ) ) ;
#364 = EDGE_CURVE ( 'NONE', #438, #855, #809, .T. ) ;
#365 = DIRECTION ( 'NONE',  ( -1.000000000000000000, 1.858632295689436102E-16, 0.000000000000000000 ) ) ;
#366 = AXIS2_PLACEMENT_3D ( 'NONE', #231, #74, #894 ) ;
#367 = DIRECTION ( 'NONE',  ( 0.000000000000000000, 0.000000000000000000, -1.000000000000000000 ) ) ;
#368 = ORIENTED_EDGE ( 'NONE', *, *, #404, .T. ) ;
#369 = DIRECTION ( 'NONE',  ( 1.000000000000000000, -0.000000000000000000, -4.371992308118050850E-17 ) ) ;
#370 = AXIS2_PLACEMENT_3D ( 'NONE', #834, #674, #91 ) ;
#371 = LINE ( 'NONE', #220, #159 ) ;
#372 = LINE ( 'NONE', #297, #414 ) ;
#373 = DIRECTION ( 'NONE',  ( -0.000000000000000000, -1.000000000000000000, -0.000000000000000000 ) ) ;
#374 = LINE ( 'NONE', #233, #557 ) ;
#375 = ADVANCED_FACE ( 'NONE', ( #301 ), #660, .F. ) ;
#376 = LINE ( 'NONE', #607, #321 ) ;
#377 = PERSON_AND_ORGANIZATION ( #141, #757 ) ;
#378 = CARTESIAN_POINT ( 'NONE',  ( 4.999999999999999112, 27.99999999999999645, 3.696289311856949464E-15 ) ) ;
#379 = AXIS2_PLACEMENT_3D ( 'NONE', #194, #693, #384 ) ;
#380 = CARTESIAN_POINT ( 'NONE',  ( -24.99999999999999289, 27.99999999999999645, 4.499999999999998224 ) ) ;
#381 = VECTOR ( 'NONE', #637, 1000.000000000000000 ) ;
#382 = CARTESIAN_POINT ( 'NONE',  ( 23.00000000000000711, -19.99999999999999645, 15.00000000000000000 ) ) ;
#383 = VECTOR ( 'NONE', #796, 1000.000000000000000 ) ;
#384 = DIRECTION ( 'NONE',  ( 0.000000000000000000, 0.000000000000000000, -1.000000000000000000 ) ) ;
#385 = ADVANCED_FACE ( 'NONE', ( #518 ), #634, .F. ) ;
#386 = DIRECTION ( 'NONE',  ( 0.000000000000000000, 0.000000000000000000, -1.000000000000000000 ) ) ;
#387 = CARTESIAN_POINT ( 'NONE',  ( -34.99999999999999289, 40.00000000000000000, -22.99999999999998579 ) ) ;
#388 = ORIENTED_EDGE ( 'NONE', *, *, #690, .T. ) ;
#389 = DIRECTION ( 'NONE',  ( -0.000000000000000000, -0.000000000000000000, -1.000000000000000000 ) ) ;
#390 = ORIENTED_EDGE ( 'NONE', *, *, #391, .T. ) ;
#391 = EDGE_CURVE ( 'NONE', #207, #720, #586, .T. ) ;
#392 = CARTESIAN_POINT ( 'NONE',  ( 27.00000000000001066, -40.00000000000000000, 20.00000000000000000 ) ) ;
#393 = ORIENTED_EDGE ( 'NONE', *, *, #897, .F. ) ;
#394 = CARTESIAN_POINT ( 'NONE',  ( -25.00000000000000000, 40.00000000000000000, -4.499999999999987566 ) ) ;
#395 = VERTEX_POINT ( 'NONE', #490 ) ;
#396 = VECTOR ( 'NONE', #570, 1000.000000000000000 ) ;
#397 = DIRECTION ( 'NONE',  ( -1.000000000000000000, -0.000000000000000000, -0.000000000000000000 ) ) ;
#398 = EDGE_LOOP ( 'NONE', ( #548, #705, #647, #148 ) ) ;
#399 = VECTOR ( 'NONE', #7, 1000.000000000000000 ) ;
#400 = DIRECTION ( 'NONE',  ( 0.000000000000000000, 0.000000000000000000, 1.000000000000000000 ) ) ;
#401 = EDGE_LOOP ( 'NONE', ( #410, #858, #134, #478 ) ) ;
#402 = FACE_OUTER_BOUND ( 'NONE', #554, .T. ) ;
#403 = EDGE_LOOP ( 'NONE', ( #802, #210, #145 ) ) ;
#404 = EDGE_CURVE ( 'NONE', #341, #719, #896, .T. ) ;
#405 = EDGE_CURVE ( 'NONE', #956, #25, #184, .T. ) ;
#406 = CARTESIAN_POINT ( 'NONE',  ( -34.99999999999999289, -40.00000000000000000, 25.00000000000000000 ) ) ;
#407 = ORIENTED_EDGE ( 'NONE', *, *, #793, .T. ) ;
#408 = APPROVAL_ROLE ( '' ) ;
#409 = LINE ( 'NONE', #270, #510 ) ;
#410 = ORIENTED_EDGE ( 'NONE', *, *, #793, .F. ) ;
#411 = CARTESIAN_POINT ( 'NONE',  ( 21.00000000000001066, 25.99999999999999645, 25.00000000000000000 ) ) ;
#412 = VECTOR ( 'NONE', #6, 1000.000000000000000 ) ;
#413 = ORIENTED_EDGE ( 'NONE', *, *, #479, .F. ) ;
#414 = VECTOR ( 'NONE', #644, 1000.000000000000000 ) ;
#415 = DIRECTION ( 'NONE',  ( -0.000000000000000000, -1.000000000000000000, -0.000000000000000000 ) ) ;
#416 = ORIENTED_EDGE ( 'NONE', *, *, #198, .F. ) ;
#417 = DIRECTION ( 'NONE',  ( 1.000000000000000000, -0.000000000000000000, -4.371992308118050850E-17 ) ) ;
#418 = VECTOR ( 'NONE', #663, 1000.000000000000114 ) ;
#419 = EDGE_CURVE ( 'NONE', #719, #324, #457, .T. ) ;
#420 = DIRECTION ( 'NONE',  ( 0.000000000000000000, -0.000000000000000000, -1.000000000000000000 ) ) ;
#421 = DIRECTION ( 'NONE',  ( 5.256737805990324174E-17, -1.000000000000000000, -0.000000000000000000 ) ) ;
#422 = ORIENTED_EDGE ( 'NONE', *, *, #257, .F. ) ;
#423 = ORIENTED_EDGE ( 'NONE', *, *, #711, .T. ) ;
#424 = CARTESIAN_POINT ( 'NONE',  ( -24.99999999999999289, 27.99999999999999645, -4.499999999999974243 ) ) ;
#425 = VERTEX_POINT ( 'NONE', #440 ) ;
#426 = EDGE_CURVE ( 'NONE', #697, #495, #372, .T. ) ;
#427 = CARTESIAN_POINT ( 'NONE',  ( 23.00000000000001066, 25.99999999999999645, -25.00000000000000000 ) ) ;
#428 = PLANE ( 'NONE',  #15 ) ;
#429 = AXIS2_PLACEMENT_3D ( 'NONE', #411, #119, #596 ) ;
#430 = ORIENTED_EDGE ( 'NONE', *, *, #535, .F. ) ;
#431 = ORIENTED_EDGE ( 'NONE', *, *, #238, .T. ) ;
#432 = VECTOR ( 'NONE', #82, 1000.000000000000000 ) ;
#433 = VECTOR ( 'NONE', #179, 1000.000000000000114 ) ;
#434 = CARTESIAN_POINT ( 'NONE',  ( 23.00000000000000711, -19.99999999999999645, 18.49999999999998934 ) ) ;
#435 = LOCAL_TIME ( 15, 1, 40.00000000000000000, #676 ) ;
#436 = CYLINDRICAL_SURFACE ( 'NONE', #771, 3.499999999999992895 ) ;
#437 = EDGE_CURVE ( 'NONE', #720, #761, #962, .T. ) ;
#438 = VERTEX_POINT ( 'NONE', #206 ) ;
#439 = DIRECTION ( 'NONE',  ( -0.000000000000000000, -1.000000000000000000, -0.000000000000000000 ) ) ;
#440 = CARTESIAN_POINT ( 'NONE',  ( 35.00000000000000711, 40.00000000000000000, 25.00000000000000000 ) ) ;
#441 = VERTEX_POINT ( 'NONE', #946 ) ;
#442 = DIRECTION ( 'NONE',  ( 1.000000000000000000, 0.000000000000000000, 0.000000000000000000 ) ) ;
#443 = CARTESIAN_POINT ( 'NONE',  ( -34.99999999999999289, 28.00000000000000355, 25.00000000000000000 ) ) ;
#444 = DIRECTION ( 'NONE',  ( -0.000000000000000000, -1.000000000000000000, -0.000000000000000000 ) ) ;
#445 = LINE ( 'NONE', #527, #708 ) ;
#446 = EDGE_CURVE ( 'NONE', #335, #863, #277, .T. ) ;
#447 = AXIS2_PLACEMENT_3D ( 'NONE', #392, #686, #905 ) ;
#448 = COORDINATED_UNIVERSAL_TIME_OFFSET ( 8, 0, .AHEAD. ) ;
#449 = CC_DESIGN_PERSON_AND_ORGANIZATION_ASSIGNMENT ( #685, #312, ( #482 ) ) ;
#450 = CYLINDRICAL_SURFACE ( 'NONE', #447, 1.249999999999997558 ) ;
#451 = CARTESIAN_POINT ( 'NONE',  ( 35.00000000000000711, -40.00000000000000000, 25.00000000000000000 ) ) ;
#452 = CARTESIAN_POINT ( 'NONE',  ( 0.000000000000000000, 0.000000000000000000, 0.000000000000000000 ) ) ;
#453 = PLANE ( 'NONE',  #13 ) ;
#454 = CARTESIAN_POINT ( 'NONE',  ( 35.00000000000001421, -19.99999999999999645, 11.50000000000000355 ) ) ;
#455 = DIRECTION ( 'NONE',  ( -1.000000000000000000, -0.000000000000000000, -0.000000000000000000 ) ) ;
#456 = EDGE_CURVE ( 'NONE', #761, #25, #814, .T. ) ;
#457 = CIRCLE ( 'NONE', #585, 4.499999999999997335 ) ;
#458 = CARTESIAN_POINT ( 'NONE',  ( 27.00000000000001776, -40.00000000000000000, -20.00000000000000000 ) ) ;
#459 = LINE ( 'NONE', #760, #666 ) ;
#460 = CIRCLE ( 'NONE', #251, 1.249999999999997558 ) ;
#461 = ORIENTED_EDGE ( 'NONE', *, *, #928, .F. ) ;
#462 = DIRECTION ( 'NONE',  ( 0.000000000000000000, 0.000000000000000000, -1.000000000000000000 ) ) ;
#463 = CC_DESIGN_DATE_AND_TIME_ASSIGNMENT ( #758, #599, ( #795 ) ) ;
#464 = EDGE_LOOP ( 'NONE', ( #469, #627, #618 ) ) ;
#465 = APPROVAL_DATE_TIME ( #595, #623 ) ;
#466 = CARTESIAN_POINT ( 'NONE',  ( 27.00000000000001776, -40.00000000000000000, -20.00000000000000000 ) ) ;
#467 = ORIENTED_EDGE ( 'NONE', *, *, #426, .T. ) ;
#468 = DIRECTION ( 'NONE',  ( -0.000000000000000000, 1.000000000000000000, 0.000000000000000000 ) ) ;
#469 = ORIENTED_EDGE ( 'NONE', *, *, #391, .F. ) ;
#470 = CARTESIAN_POINT ( 'NONE',  ( 27.00000000000001776, -40.00000000000000000, -18.75000000000000355 ) ) ;
#471 = ORIENTED_EDGE ( 'NONE', *, *, #662, .T. ) ;
#472 = DIRECTION ( 'NONE',  ( -1.000000000000000000, 0.000000000000000000, 0.000000000000000000 ) ) ;
#473 = AXIS2_PLACEMENT_3D ( 'NONE', #127, #219, #511 ) ;
#474 = ORIENTED_EDGE ( 'NONE', *, *, #211, .F. ) ;
#475 = SHAPE_DEFINITION_REPRESENTATION ( #940, #882 ) ;
#476 = EDGE_CURVE ( 'NONE', #180, #485, #709, .T. ) ;
#477 = CARTESIAN_POINT ( 'NONE',  ( 0.000000000000000000, -37.99999999999998579, 25.00000000000000000 ) ) ;
#478 = ORIENTED_EDGE ( 'NONE', *, *, #547, .T. ) ;
#479 = EDGE_CURVE ( 'NONE', #855, #113, #144, .T. ) ;
#480 = CONICAL_SURFACE ( 'NONE', #938, 1.249999999999997558, 1.029744258676653867 ) ;
#481 = PLANE ( 'NONE',  #616 ) ;
#482 = PRODUCT_DEFINITION_FORMATION_WITH_SPECIFIED_SOURCE ( '任何', '', #505, .NOT_KNOWN. ) ;
#483 = ORIENTED_EDGE ( 'NONE', *, *, #509, .T. ) ;
#484 = CARTESIAN_POINT ( 'NONE',  ( 35.00000000000001421, -19.99999999999999645, -15.00000000000000000 ) ) ;
#485 = VERTEX_POINT ( 'NONE', #3 ) ;
#486 = DIRECTION ( 'NONE',  ( -1.000000000000000000, -0.000000000000000000, -0.000000000000000000 ) ) ;
#487 = ORIENTED_EDGE ( 'NONE', *, *, #47, .F. ) ;
#488 = CARTESIAN_POINT ( 'NONE',  ( 35.00000000000000711, -37.99999999999998579, 25.00000000000000000 ) ) ;
#489 = VERTEX_POINT ( 'NONE', #342 ) ;
#490 = CARTESIAN_POINT ( 'NONE',  ( 23.00000000000001421, -37.99999999999997158, -25.00000000000000000 ) ) ;
#491 = VECTOR ( 'NONE', #486, 1000.000000000000000 ) ;
#492 = ORIENTED_EDGE ( 'NONE', *, *, #257, .T. ) ;
#493 = VECTOR ( 'NONE', #52, 1000.000000000000000 ) ;
#494 = LINE ( 'NONE', #706, #381 ) ;
#495 = VERTEX_POINT ( 'NONE', #293 ) ;
#496 = CARTESIAN_POINT ( 'NONE',  ( -24.99999999999999289, 40.00000000000000000, 4.499999999999998224 ) ) ;
#497 = AXIS2_PLACEMENT_3D ( 'NONE', #550, #415, #50 ) ;
#498 = FACE_OUTER_BOUND ( 'NONE', #48, .T. ) ;
#499 = EDGE_CURVE ( 'NONE', #425, #438, #639, .T. ) ;
#500 = CARTESIAN_POINT ( 'NONE',  ( -32.99999999999997868, 28.00000000000000355, 25.00000000000000355 ) ) ;
#501 = ORIENTED_EDGE ( 'NONE', *, *, #824, .F. ) ;
#502 = ORIENTED_EDGE ( 'NONE', *, *, #880, .T. ) ;
#503 = DIRECTION ( 'NONE',  ( 0.000000000000000000, 0.000000000000000000, 1.000000000000000000 ) ) ;
#504 = VERTEX_POINT ( 'NONE', #961 ) ;
#505 = PRODUCT ( 'RM-JJ-00083878-01', 'RM-JJ-00083878-01', '', ( #747 ) ) ;
#506 = VERTEX_POINT ( 'NONE', #564 ) ;
#507 = VECTOR ( 'NONE', #472, 1000.000000000000000 ) ;
#508 = PLANE ( 'NONE',  #79 ) ;
#509 = EDGE_CURVE ( 'NONE', #556, #324, #864, .T. ) ;
#510 = VECTOR ( 'NONE', #925, 1000.000000000000000 ) ;
#511 = DIRECTION ( 'NONE',  ( 0.000000000000000000, 0.000000000000000000, 1.000000000000000000 ) ) ;
#512 = CIRCLE ( 'NONE', #285, 1.249999999999997558 ) ;
#513 = FACE_BOUND ( 'NONE', #922, .T. ) ;
#514 = DIRECTION ( 'NONE',  ( 0.000000000000000000, 0.000000000000000000, -1.000000000000000000 ) ) ;
#515 = ORIENTED_EDGE ( 'NONE', *, *, #562, .F. ) ;
#516 = FACE_OUTER_BOUND ( 'NONE', #215, .T. ) ;
#517 = DIRECTION ( 'NONE',  ( 0.000000000000000000, 0.000000000000000000, -1.000000000000000000 ) ) ;
#518 = FACE_OUTER_BOUND ( 'NONE', #403, .T. ) ;
#519 = EDGE_CURVE ( 'NONE', #341, #909, #459, .T. ) ;
#520 = CARTESIAN_POINT ( 'NONE',  ( 21.00000000000001066, 27.99999999999999289, 25.00000000000000000 ) ) ;
#521 = PERSON_AND_ORGANIZATION_ROLE ( 'creator' ) ;
#522 = CARTESIAN_POINT ( 'NONE',  ( -25.00000000000000000, 27.99999999999999645, 4.499999999999998224 ) ) ;
#523 = DESIGN_CONTEXT ( 'detailed design', #205, 'design' ) ;
#524 = CARTESIAN_POINT ( 'NONE',  ( -25.00000000000000000, 27.99999999999999645, 5.007887004292364904E-15 ) ) ;
#525 = DIRECTION ( 'NONE',  ( 0.000000000000000000, 0.000000000000000000, 1.000000000000000000 ) ) ;
#526 = DIRECTION ( 'NONE',  ( -0.000000000000000000, -0.000000000000000000, -1.000000000000000000 ) ) ;
#527 = CARTESIAN_POINT ( 'NONE',  ( -24.99999999999999289, 27.99999999999999645, 4.499999999999993783 ) ) ;
#528 = PERSON_AND_ORGANIZATION ( #141, #757 ) ;
#529 = CARTESIAN_POINT ( 'NONE',  ( -24.99999999999999289, 27.99999999999999645, -4.499999999999987566 ) ) ;
#530 = LINE ( 'NONE', #672, #412 ) ;
#531 = DIRECTION ( 'NONE',  ( 1.000000000000000000, 0.000000000000000000, 0.000000000000000000 ) ) ;
#532 = DIRECTION ( 'NONE',  ( 1.000000000000000000, -0.000000000000000000, -4.371992308118050850E-17 ) ) ;
#533 = ORIENTED_EDGE ( 'NONE', *, *, #177, .F. ) ;
#534 = AXIS2_PLACEMENT_3D ( 'NONE', #380, #667, #751 ) ;
#535 = EDGE_CURVE ( 'NONE', #717, #485, #574, .T. ) ;
#536 = CYLINDRICAL_SURFACE ( 'NONE', #379, 1.249999999999997558 ) ;
#537 = ORIENTED_EDGE ( 'NONE', *, *, #222, .F. ) ;
#538 = CARTESIAN_POINT ( 'NONE',  ( 23.00000000000000711, -19.99999999999999645, 11.50000000000001066 ) ) ;
#539 = VERTEX_POINT ( 'NONE', #901 ) ;
#540 = LOCAL_TIME ( 15, 1, 40.00000000000000000, #201 ) ;
#541 = CC_DESIGN_SECURITY_CLASSIFICATION ( #715, ( #482 ) ) ;
#542 = LINE ( 'NONE', #684, #10 ) ;
#543 = ORIENTED_EDGE ( 'NONE', *, *, #822, .T. ) ;
#544 = DIRECTION ( 'NONE',  ( -0.000000000000000000, 1.000000000000000000, 0.000000000000000000 ) ) ;
#545 = ORIENTED_EDGE ( 'NONE', *, *, #859, .T. ) ;
#546 = PLANE ( 'NONE',  #950 ) ;
#547 = EDGE_CURVE ( 'NONE', #333, #631, #234, .T. ) ;
#548 = ORIENTED_EDGE ( 'NONE', *, *, #456, .F. ) ;
#549 = EDGE_CURVE ( 'NONE', #489, #909, #78, .T. ) ;
#550 = CARTESIAN_POINT ( 'NONE',  ( 27.00000000000001066, -33.25107577378445001, 20.00000000000000000 ) ) ;
#551 = ORIENTED_EDGE ( 'NONE', *, *, #549, .F. ) ;
#552 = AXIS2_PLACEMENT_3D ( 'NONE', #766, #171, #462 ) ;
#553 = DIRECTION ( 'NONE',  ( -1.000000000000000000, -0.000000000000000000, -0.000000000000000000 ) ) ;
#554 = EDGE_LOOP ( 'NONE', ( #849, #879, #474, #246 ) ) ;
#555 = DIRECTION ( 'NONE',  ( 0.000000000000000000, 0.000000000000000000, 1.000000000000000000 ) ) ;
#556 = VERTEX_POINT ( 'NONE', #748 ) ;
#557 = VECTOR ( 'NONE', #526, 1000.000000000000000 ) ;
#558 = AXIS2_PLACEMENT_3D ( 'NONE', #731, #892, #517 ) ;
#559 = CARTESIAN_POINT ( 'NONE',  ( 27.00000000000001776, -33.25107577378445001, -20.00000000000000000 ) ) ;
#560 = ORIENTED_EDGE ( 'NONE', *, *, #405, .F. ) ;
#561 = CARTESIAN_POINT ( 'NONE',  ( 35.00000000000001421, -19.99999999999999645, 15.00000000000000000 ) ) ;
#562 = EDGE_CURVE ( 'NONE', #207, #761, #819, .T. ) ;
#563 = ORIENTED_EDGE ( 'NONE', *, *, #836, .T. ) ;
#564 = CARTESIAN_POINT ( 'NONE',  ( 4.999999999999999112, 27.99999999999999645, 4.499999999999992006 ) ) ;
#565 = PLANE ( 'NONE',  #932 ) ;
#566 = CALENDAR_DATE ( 2026, 24, 4 ) ;
#567 = DIRECTION ( 'NONE',  ( 0.000000000000000000, 0.7071067811865500152, -0.7071067811865451302 ) ) ;
#568 = VERTEX_POINT ( 'NONE', #387 ) ;
#569 = EDGE_CURVE ( 'NONE', #504, #947, #85, .T. ) ;
#570 = DIRECTION ( 'NONE',  ( -0.000000000000000000, -1.000000000000000000, -0.000000000000000000 ) ) ;
#571 = CARTESIAN_POINT ( 'NONE',  ( 27.00000000000001066, -40.00000000000000000, 21.24999999999999645 ) ) ;
#572 = DIRECTION ( 'NONE',  ( 0.000000000000000000, -1.000000000000000000, 0.000000000000000000 ) ) ;
#573 = ORIENTED_EDGE ( 'NONE', *, *, #876, .F. ) ;
#574 = CIRCLE ( 'NONE', #653, 1.249999999999997558 ) ;
#575 = CONICAL_SURFACE ( 'NONE', #497, 1.249999999999997558, 1.029744258676653867 ) ;
#576 = ORIENTED_EDGE ( 'NONE', *, *, #456, .T. ) ;
#577 = FACE_BOUND ( 'NONE', #651, .T. ) ;
#578 = VERTEX_POINT ( 'NONE', #606 ) ;
#579 = ADVANCED_FACE ( 'NONE', ( #914 ), #450, .F. ) ;
#580 = ORIENTED_EDGE ( 'NONE', *, *, #249, .T. ) ;
#581 = EDGE_CURVE ( 'NONE', #763, #506, #49, .T. ) ;
#582 = DIRECTION ( 'NONE',  ( -0.7071067811865451302, 1.314251500014315936E-16, -0.7071067811865500152 ) ) ;
#583 = DIRECTION ( 'NONE',  ( 0.000000000000000000, 0.000000000000000000, 1.000000000000000000 ) ) ;
#584 = FACE_OUTER_BOUND ( 'NONE', #102, .T. ) ;
#585 = AXIS2_PLACEMENT_3D ( 'NONE', #273, #783, #70 ) ;
#586 = LINE ( 'NONE', #664, #339 ) ;
#587 = CIRCLE ( 'NONE', #267, 3.499999999999996003 ) ;
#588 = CARTESIAN_POINT ( 'NONE',  ( 35.00000000000000711, -40.00000000000000000, -22.99999999999998579 ) ) ;
#589 = VECTOR ( 'NONE', #202, 1000.000000000000000 ) ;
#590 = CARTESIAN_POINT ( 'NONE',  ( 27.00000000000001066, -33.25107577378445001, 20.00000000000000000 ) ) ;
#591 = DIRECTION ( 'NONE',  ( 0.000000000000000000, 0.000000000000000000, -1.000000000000000000 ) ) ;
#592 = EDGE_CURVE ( 'NONE', #828, #636, #695, .T. ) ;
#593 = ORIENTED_EDGE ( 'NONE', *, *, #671, .F. ) ;
#594 = CARTESIAN_POINT ( 'NONE',  ( 23.00000000000001421, -40.00000000000000711, 25.00000000000000000 ) ) ;
#595 = DATE_AND_TIME ( #11, #435 ) ;
#596 = DIRECTION ( 'NONE',  ( -1.000000000000000000, 0.000000000000000000, 0.000000000000000000 ) ) ;
#597 = ADVANCED_FACE ( 'NONE', ( #242 ), #453, .F. ) ;
#598 = FACE_OUTER_BOUND ( 'NONE', #193, .T. ) ;
#599 = DATE_TIME_ROLE ( 'creation_date' ) ;
#600 = CIRCLE ( 'NONE', #552, 1.249999999999997558 ) ;
#601 = AXIS2_PLACEMENT_3D ( 'NONE', #244, #553, #400 ) ;
#602 = DIRECTION ( 'NONE',  ( 0.000000000000000000, 0.000000000000000000, -1.000000000000000000 ) ) ;
#603 = APPLICATION_CONTEXT ( 'configuration controlled 3d designs of mechanical parts and assemblies' ) ;
#604 = PLANE ( 'NONE',  #534 ) ;
#605 = COORDINATED_UNIVERSAL_TIME_OFFSET ( 8, 0, .AHEAD. ) ;
#606 = CARTESIAN_POINT ( 'NONE',  ( 35.00000000000001421, -19.99999999999999645, -18.49999999999999645 ) ) ;
#607 = CARTESIAN_POINT ( 'NONE',  ( 4.999999999999999112, 27.99999999999999645, 4.499999999999996447 ) ) ;
#608 = CALENDAR_DATE ( 2026, 24, 4 ) ;
#609 = EDGE_CURVE ( 'NONE', #180, #863, #65, .T. ) ;
#610 = DIRECTION ( 'NONE',  ( -0.000000000000000000, -1.000000000000000000, -0.000000000000000000 ) ) ;
#611 = EDGE_LOOP ( 'NONE', ( #767, #99 ) ) ;
#612 = LINE ( 'NONE', #98, #26 ) ;
#613 = PERSON_AND_ORGANIZATION_ROLE ( 'classification_officer' ) ;
#614 = DIRECTION ( 'NONE',  ( 0.7071067811865500152, 0.000000000000000000, -0.7071067811865451302 ) ) ;
#615 = ORIENTED_EDGE ( 'NONE', *, *, #86, .F. ) ;
#616 = AXIS2_PLACEMENT_3D ( 'NONE', #628, #923, #468 ) ;
#617 = DIRECTION ( 'NONE',  ( 0.000000000000000000, 0.7071067811865500152, -0.7071067811865451302 ) ) ;
#618 = ORIENTED_EDGE ( 'NONE', *, *, #326, .T. ) ;
#619 = AXIS2_PLACEMENT_3D ( 'NONE', #313, #610, #602 ) ;
#620 = DIRECTION ( 'NONE',  ( -1.000000000000000000, 0.000000000000000000, -0.000000000000000000 ) ) ;
#621 = ORIENTED_EDGE ( 'NONE', *, *, #94, .F. ) ;
#622 = EDGE_CURVE ( 'NONE', #631, #333, #188, .T. ) ;
#623 = APPROVAL ( #752, '未指定' ) ;
#624 = DIRECTION ( 'NONE',  ( -1.000000000000000000, -0.000000000000000000, -0.000000000000000000 ) ) ;
#625 = ORIENTED_EDGE ( 'NONE', *, *, #326, .F. ) ;
#626 = CARTESIAN_POINT ( 'NONE',  ( 23.00000000000001421, -37.99999999999998579, 25.00000000000000000 ) ) ;
#627 = ORIENTED_EDGE ( 'NONE', *, *, #562, .T. ) ;
#628 = CARTESIAN_POINT ( 'NONE',  ( -34.99999999999999289, -40.00000000000000000, -22.99999999999998579 ) ) ;
#629 = ORIENTED_EDGE ( 'NONE', *, *, #192, .F. ) ;
#630 = LINE ( 'NONE', #866, #589 ) ;
#631 = VERTEX_POINT ( 'NONE', #309 ) ;
#632 = AXIS2_PLACEMENT_3D ( 'NONE', #458, #163, #87 ) ;
#633 = LINE ( 'NONE', #848, #60 ) ;
#634 = CONICAL_SURFACE ( 'NONE', #218, 1.249999999999997558, 1.029744258676653867 ) ;
#635 = ADVANCED_FACE ( 'NONE', ( #691 ), #318, .F. ) ;
#636 = VERTEX_POINT ( 'NONE', #538 ) ;
#637 = DIRECTION ( 'NONE',  ( 0.000000000000000000, -0.5150380749100547106, -0.8571673007021120005 ) ) ;
#638 = ORIENTED_EDGE ( 'NONE', *, *, #622, .F. ) ;
#639 = LINE ( 'NONE', #152, #310 ) ;
#640 = CARTESIAN_POINT ( 'NONE',  ( -34.99999999999999289, 28.00000000000000355, 22.99999999999997158 ) ) ;
#641 = CARTESIAN_POINT ( 'NONE',  ( 27.00000000000001066, -33.25107577378445001, 21.24999999999999645 ) ) ;
#642 = ORIENTED_EDGE ( 'NONE', *, *, #836, .F. ) ;
#643 = ADVANCED_FACE ( 'NONE', ( #841 ), #764, .F. ) ;
#644 = DIRECTION ( 'NONE',  ( -0.000000000000000000, -0.000000000000000000, -1.000000000000000000 ) ) ;
#645 = EDGE_LOOP ( 'NONE', ( #786, #37, #642, #271 ) ) ;
#646 = CARTESIAN_POINT ( 'NONE',  ( -32.99999999999996447, 40.00000000000000000, -25.00000000000000000 ) ) ;
#647 = ORIENTED_EDGE ( 'NONE', *, *, #928, .T. ) ;
#648 = VECTOR ( 'NONE', #442, 1000.000000000000000 ) ;
#649 = ORIENTED_EDGE ( 'NONE', *, *, #733, .T. ) ;
#650 = DIRECTION ( 'NONE',  ( 1.000000000000000000, -0.000000000000000000, -4.371992308118050850E-17 ) ) ;
#651 = EDGE_LOOP ( 'NONE', ( #175, #779 ) ) ;
#652 = EDGE_CURVE ( 'NONE', #489, #556, #921, .T. ) ;
#653 = AXIS2_PLACEMENT_3D ( 'NONE', #466, #168, #827 ) ;
#654 = AXIS2_PLACEMENT_3D ( 'NONE', #452, #525, #531 ) ;
#655 = EDGE_CURVE ( 'NONE', #113, #539, #374, .T. ) ;
#656 = EDGE_LOOP ( 'NONE', ( #915, #545, #573, #702 ) ) ;
#657 = CARTESIAN_POINT ( 'NONE',  ( -25.00000000000000000, 27.99999999999999645, -4.499999999999983125 ) ) ;
#658 = ORIENTED_EDGE ( 'NONE', *, *, #226, .T. ) ;
#659 = CARTESIAN_POINT ( 'NONE',  ( -34.99999999999999289, 28.00000000000000355, 25.00000000000000000 ) ) ;
#660 = CYLINDRICAL_SURFACE ( 'NONE', #429, 1.999999999999998224 ) ;
#661 = CARTESIAN_POINT ( 'NONE',  ( 4.999999999999999112, 27.99999999999999645, -4.499999999999989342 ) ) ;
#662 = EDGE_CURVE ( 'NONE', #689, #104, #825, .T. ) ;
#663 = DIRECTION ( 'NONE',  ( -0.7071067811865500152, 0.000000000000000000, 0.7071067811865451302 ) ) ;
#664 = CARTESIAN_POINT ( 'NONE',  ( 27.00000000000001066, -33.25107577378445001, 18.75000000000000355 ) ) ;
#665 = EDGE_LOOP ( 'NONE', ( #253, #945, #789, #124, #413, #543 ) ) ;
#666 = VECTOR ( 'NONE', #908, 1000.000000000000000 ) ;
#667 = DIRECTION ( 'NONE',  ( 4.371992308118050850E-17, -0.000000000000000000, 1.000000000000000000 ) ) ;
#668 = VECTOR ( 'NONE', #330, 1000.000000000000114 ) ;
#669 = APPLICATION_PROTOCOL_DEFINITION ( 'international standard', 'config_control_design', 1994, #205 ) ;
#670 = DIRECTION ( 'NONE',  ( 1.000000000000000000, -1.858632295689435856E-16, 0.000000000000000000 ) ) ;
#671 = EDGE_CURVE ( 'NONE', #441, #111, #587, .T. ) ;
#672 = CARTESIAN_POINT ( 'NONE',  ( -34.99999999999999289, -40.00000000000000000, 22.99999999999997158 ) ) ;
#673 = DATE_TIME_ROLE ( 'classification_date' ) ;
#674 = DIRECTION ( 'NONE',  ( -0.000000000000000000, -1.000000000000000000, -0.000000000000000000 ) ) ;
#675 = LINE ( 'NONE', #661, #262 ) ;
#676 = COORDINATED_UNIVERSAL_TIME_OFFSET ( 8, 0, .AHEAD. ) ;
#677 = VECTOR ( 'NONE', #320, 1000.000000000000000 ) ;
#678 = DIRECTION ( 'NONE',  ( 0.000000000000000000, 0.000000000000000000, -1.000000000000000000 ) ) ;
#679 = FACE_OUTER_BOUND ( 'NONE', #645, .T. ) ;
#680 = ADVANCED_FACE ( 'NONE', ( #259 ), #39, .F. ) ;
#681 = CC_DESIGN_APPROVAL ( #623, ( #482 ) ) ;
#682 = DIRECTION ( 'NONE',  ( -4.371992308118050850E-17, 0.000000000000000000, -1.000000000000000000 ) ) ;
#683 = ORIENTED_EDGE ( 'NONE', *, *, #804, .F. ) ;
#684 = CARTESIAN_POINT ( 'NONE',  ( 23.00000000000000711, -19.99999999999999645, 18.49999999999999289 ) ) ;
#685 = PERSON_AND_ORGANIZATION ( #141, #757 ) ;
#686 = DIRECTION ( 'NONE',  ( -0.000000000000000000, -1.000000000000000000, -0.000000000000000000 ) ) ;
#687 = ORIENTED_EDGE ( 'NONE', *, *, #703, .F. ) ;
#688 = CARTESIAN_POINT ( 'NONE',  ( 23.00000000000000711, -19.99999999999999645, -11.50000000000001066 ) ) ;
#689 = VERTEX_POINT ( 'NONE', #191 ) ;
#690 = EDGE_CURVE ( 'NONE', #947, #936, #116, .T. ) ;
#691 = FACE_OUTER_BOUND ( 'NONE', #694, .T. ) ;
#692 = ORIENTED_EDGE ( 'NONE', *, *, #226, .F. ) ;
#693 = DIRECTION ( 'NONE',  ( -0.000000000000000000, -1.000000000000000000, -0.000000000000000000 ) ) ;
#694 = EDGE_LOOP ( 'NONE', ( #351, #57, #53, #117 ) ) ;
#695 = CIRCLE ( 'NONE', #774, 3.499999999999989342 ) ;
#696 = DIRECTION ( 'NONE',  ( 1.000000000000000000, -0.000000000000000000, 0.000000000000000000 ) ) ;
#697 = VERTEX_POINT ( 'NONE', #334 ) ;
#698 = CC_DESIGN_PERSON_AND_ORGANIZATION_ASSIGNMENT ( #528, #521, ( #795 ) ) ;
#699 = CARTESIAN_POINT ( 'NONE',  ( 23.00000000000000711, -19.99999999999999645, 11.50000000000000711 ) ) ;
#700 = ORIENTED_EDGE ( 'NONE', *, *, #437, .T. ) ;
#701 = DIRECTION ( 'NONE',  ( -1.000000000000000000, -0.000000000000000000, -0.000000000000000000 ) ) ;
#702 = ORIENTED_EDGE ( 'NONE', *, *, #951, .T. ) ;
#703 = EDGE_CURVE ( 'NONE', #335, #180, #494, .T. ) ;
#704 = DIRECTION ( 'NONE',  ( 0.000000000000000000, 0.000000000000000000, -1.000000000000000000 ) ) ;
#705 = ORIENTED_EDGE ( 'NONE', *, *, #437, .F. ) ;
#706 = CARTESIAN_POINT ( 'NONE',  ( 27.00000000000001776, -33.25107577378445001, -21.24999999999999645 ) ) ;
#707 = ORIENTED_EDGE ( 'NONE', *, *, #16, .T. ) ;
#708 = VECTOR ( 'NONE', #369, 1000.000000000000000 ) ;
#709 = LINE ( 'NONE', #46, #167 ) ;
#710 = EDGE_LOOP ( 'NONE', ( #337, #59, #954, #40, #867, #723, #268 ) ) ;
#711 = EDGE_CURVE ( 'NONE', #878, #55, #409, .T. ) ;
#712 = LINE ( 'NONE', #264, #668 ) ;
#713 = ORIENTED_EDGE ( 'NONE', *, *, #652, .T. ) ;
#714 = VECTOR ( 'NONE', #572, 1000.000000000000000 ) ;
#715 = SECURITY_CLASSIFICATION ( '', '', #228 ) ;
#716 = CARTESIAN_POINT ( 'NONE',  ( -34.99999999999999289, 28.00000000000000355, 25.00000000000000000 ) ) ;
#717 = VERTEX_POINT ( 'NONE', #470 ) ;
#718 = DIRECTION ( 'NONE',  ( -0.000000000000000000, -0.7071067811865451302, -0.7071067811865500152 ) ) ;
#719 = VERTEX_POINT ( 'NONE', #790 ) ;
#720 = VERTEX_POINT ( 'NONE', #254 ) ;
#721 = LINE ( 'NONE', #76, #92 ) ;
#722 = EDGE_CURVE ( 'NONE', #55, #395, #775, .T. ) ;
#723 = ORIENTED_EDGE ( 'NONE', *, *, #94, .T. ) ;
#724 = PRODUCT_RELATED_PRODUCT_CATEGORY ( 'detail', '', ( #505 ) ) ;
#725 = AXIS2_PLACEMENT_3D ( 'NONE', #875, #212, #135 ) ;
#726 = LINE ( 'NONE', #284, #166 ) ;
#727 = DIRECTION ( 'NONE',  ( 0.000000000000000000, 0.000000000000000000, -1.000000000000000000 ) ) ;
#728 = ORIENTED_EDGE ( 'NONE', *, *, #291, .T. ) ;
#729 = AXIS2_PLACEMENT_3D ( 'NONE', #745, #12, #174 ) ;
#730 = ORIENTED_EDGE ( 'NONE', *, *, #21, .F. ) ;
#731 = CARTESIAN_POINT ( 'NONE',  ( -25.00000000000000000, 40.00000000000000000, 5.007887004292364904E-15 ) ) ;
#732 = CARTESIAN_POINT ( 'NONE',  ( 23.00000000000000711, -19.99999999999999645, 15.00000000000000000 ) ) ;
#733 = EDGE_CURVE ( 'NONE', #329, #438, #712, .T. ) ;
#734 = ORIENTED_EDGE ( 'NONE', *, *, #5, .F. ) ;
#735 = LINE ( 'NONE', #216, #418 ) ;
#736 = DIRECTION ( 'NONE',  ( -0.000000000000000000, -1.000000000000000000, -0.000000000000000000 ) ) ;
#737 = LINE ( 'NONE', #150, #648 ) ;
#738 = AXIS2_PLACEMENT_3D ( 'NONE', #559, #860, #704 ) ;
#739 = ADVANCED_FACE ( 'NONE', ( #402 ), #846, .T. ) ;
#740 = LINE ( 'NONE', #424, #889 ) ;
#741 = CARTESIAN_POINT ( 'NONE',  ( 27.00000000000001776, -33.25107577378445001, -20.00000000000000000 ) ) ;
#742 = DIRECTION ( 'NONE',  ( 0.000000000000000000, 1.000000000000000000, 0.000000000000000000 ) ) ;
#743 = CC_DESIGN_APPROVAL ( #35, ( #795 ) ) ;
#744 = DATE_AND_TIME ( #912, #269 ) ;
#745 = CARTESIAN_POINT ( 'NONE',  ( 23.00000000000000711, -19.99999999999999645, -15.00000000000000000 ) ) ;
#746 = CARTESIAN_POINT ( 'NONE',  ( 35.00000000000000711, -40.00000000000000000, 22.99999999999997158 ) ) ;
#747 = MECHANICAL_CONTEXT ( 'NONE', #603, 'mechanical' ) ;
#748 = CARTESIAN_POINT ( 'NONE',  ( -24.99999999999999289, 40.00000000000000000, 4.499999999999998224 ) ) ;
#749 = EDGE_CURVE ( 'NONE', #947, #539, #862, .T. ) ;
#750 = ADVANCED_FACE ( 'NONE', ( #122 ), #575, .F. ) ;
#751 = DIRECTION ( 'NONE',  ( 1.000000000000000000, 0.000000000000000000, -4.371992308118050850E-17 ) ) ;
#752 = APPROVAL_STATUS ( 'not_yet_approved' ) ;
#753 = VECTOR ( 'NONE', #617, 1000.000000000000114 ) ;
#754 = CARTESIAN_POINT ( 'NONE',  ( 23.00000000000000711, -19.99999999999999645, -15.00000000000000000 ) ) ;
#755 = DIRECTION ( 'NONE',  ( -0.000000000000000000, -1.000000000000000000, -0.000000000000000000 ) ) ;
#756 = AXIS2_PLACEMENT_3D ( 'NONE', #101, #323, #620 ) ;
#757 = ORGANIZATION ( '未指定', '未指定', '' ) ;
#758 = DATE_AND_TIME ( #608, #236 ) ;
#759 = CC_DESIGN_APPROVAL ( #899, ( #715 ) ) ;
#760 = CARTESIAN_POINT ( 'NONE',  ( -25.00000000000000000, 27.99999999999999645, -4.499999999999987566 ) ) ;
#761 = VERTEX_POINT ( 'NONE', #641 ) ;
#762 = CARTESIAN_POINT ( 'NONE',  ( -34.99999999999999289, 40.00000000000000000, 22.99999999999997158 ) ) ;
#763 = VERTEX_POINT ( 'NONE', #185 ) ;
#764 = PLANE ( 'NONE',  #756 ) ;
#765 = ORIENTED_EDGE ( 'NONE', *, *, #67, .F. ) ;
#766 = CARTESIAN_POINT ( 'NONE',  ( 27.00000000000001066, -33.25107577378445001, 20.00000000000000000 ) ) ;
#767 = ORIENTED_EDGE ( 'NONE', *, *, #592, .F. ) ;
#768 = ADVANCED_FACE ( 'NONE', ( #943 ), #275, .F. ) ;
#769 = FACE_OUTER_BOUND ( 'NONE', #401, .T. ) ;
#770 = EDGE_LOOP ( 'NONE', ( #687, #214, #178 ) ) ;
#771 = AXIS2_PLACEMENT_3D ( 'NONE', #732, #199, #347 ) ;
#772 = CYLINDRICAL_SURFACE ( 'NONE', #88, 3.499999999999992895 ) ;
#773 = ORIENTED_EDGE ( 'NONE', *, *, #419, .F. ) ;
#774 = AXIS2_PLACEMENT_3D ( 'NONE', #382, #240, #22 ) ;
#775 = LINE ( 'NONE', #112, #189 ) ;
#776 = LOCAL_TIME ( 15, 1, 40.00000000000000000, #605 ) ;
#777 = ORIENTED_EDGE ( 'NONE', *, *, #897, .T. ) ;
#778 = FACE_BOUND ( 'NONE', #926, .T. ) ;
#779 = ORIENTED_EDGE ( 'NONE', *, *, #222, .T. ) ;
#780 = DIRECTION ( 'NONE',  ( 0.000000000000000000, 0.000000000000000000, 1.000000000000000000 ) ) ;
#781 = ORIENTED_EDGE ( 'NONE', *, *, #519, .T. ) ;
#782 = EDGE_CURVE ( 'NONE', #578, #263, #919, .T. ) ;
#783 = DIRECTION ( 'NONE',  ( -0.000000000000000000, -1.000000000000000000, -0.000000000000000000 ) ) ;
#784 = ORIENTED_EDGE ( 'NONE', *, *, #782, .F. ) ;
#785 = CARTESIAN_POINT ( 'NONE',  ( -34.99999999999999289, -40.00000000000000000, 25.00000000000000000 ) ) ;
#786 = ORIENTED_EDGE ( 'NONE', *, *, #549, .T. ) ;
#787 = AXIS2_PLACEMENT_3D ( 'NONE', #80, #373, #241 ) ;
#788 = CARTESIAN_POINT ( 'NONE',  ( -25.00000000000000000, 40.00000000000000000, -4.499999999999992006 ) ) ;
#789 = ORIENTED_EDGE ( 'NONE', *, *, #749, .T. ) ;
#790 = CARTESIAN_POINT ( 'NONE',  ( 4.999999999999995559, 40.00000000000000000, -4.499999999999993783 ) ) ;
#791 = EDGE_LOOP ( 'NONE', ( #352, #172, #346, #115, #888, #471 ) ) ;
#792 = FACE_OUTER_BOUND ( 'NONE', #28, .T. ) ;
#793 = EDGE_CURVE ( 'NONE', #578, #631, #630, .T. ) ;
#794 = ORIENTED_EDGE ( 'NONE', *, *, #907, .F. ) ;
#795 = PRODUCT_DEFINITION ( '未知', '', #482, #523 ) ;
#796 = DIRECTION ( 'NONE',  ( -0.000000000000000000, -0.000000000000000000, -1.000000000000000000 ) ) ;
#797 = EDGE_LOOP ( 'NONE', ( #784, #407, #140, #730 ) ) ;
#798 = CARTESIAN_POINT ( 'NONE',  ( 27.00000000000001776, -33.25107577378445001, -20.00000000000000000 ) ) ;
#799 = CARTESIAN_POINT ( 'NONE',  ( -32.99999999999996447, 28.00000000000000355, -25.00000000000000000 ) ) ;
#800 = ORIENTED_EDGE ( 'NONE', *, *, #426, .F. ) ;
#801 = CIRCLE ( 'NONE', #913, 3.499999999999996003 ) ;
#802 = ORIENTED_EDGE ( 'NONE', *, *, #446, .F. ) ;
#803 = LINE ( 'NONE', #948, #714 ) ;
#804 = EDGE_CURVE ( 'NONE', #697, #815, #130, .T. ) ;
#805 = VECTOR ( 'NONE', #544, 1000.000000000000000 ) ;
#806 = AXIS2_PLACEMENT_3D ( 'NONE', #785, #857, #349 ) ;
#807 = DIRECTION ( 'NONE',  ( -1.000000000000000000, -0.000000000000000000, -0.000000000000000000 ) ) ;
#808 = DIRECTION ( 'NONE',  ( -1.000000000000000000, 0.000000000000000000, 0.000000000000000000 ) ) ;
#809 = LINE ( 'NONE', #893, #934 ) ;
#810 = ORIENTED_EDGE ( 'NONE', *, *, #404, .F. ) ;
#811 = ADVANCED_FACE ( 'NONE', ( #769 ), #931, .F. ) ;
#812 = PLANE ( 'NONE',  #61 ) ;
#813 = CARTESIAN_POINT ( 'NONE',  ( 23.00000000000001066, 25.99999999999999645, 25.00000000000000000 ) ) ;
#814 = LINE ( 'NONE', #362, #396 ) ;
#815 = VERTEX_POINT ( 'NONE', #626 ) ;
#816 = DIRECTION ( 'NONE',  ( 1.000000000000000000, 5.256737805990324790E-17, -0.000000000000000000 ) ) ;
#817 = AXIS2_PLACEMENT_3D ( 'NONE', #798, #883, #952 ) ;
#818 = PERSON_AND_ORGANIZATION_ROLE ( 'design_owner' ) ;
#819 = LINE ( 'NONE', #162, #918 ) ;
#820 = DIRECTION ( 'NONE',  ( 0.000000000000000000, 0.000000000000000000, -1.000000000000000000 ) ) ;
#821 = VECTOR ( 'NONE', #960, 1000.000000000000000 ) ;
#822 = EDGE_CURVE ( 'NONE', #855, #33, #279, .T. ) ;
#823 = APPLICATION_PROTOCOL_DEFINITION ( 'international standard', 'config_control_design', 1994, #603 ) ;
#824 = EDGE_CURVE ( 'NONE', #104, #190, #371, .T. ) ;
#825 = LINE ( 'NONE', #488, #143 ) ;
#826 = FACE_OUTER_BOUND ( 'NONE', #348, .T. ) ;
#827 = DIRECTION ( 'NONE',  ( 0.000000000000000000, 0.000000000000000000, -1.000000000000000000 ) ) ;
#828 = VERTEX_POINT ( 'NONE', #434 ) ;
#829 = CARTESIAN_POINT ( 'NONE',  ( 35.00000000000000711, 40.00000000000000000, -25.00000000000000000 ) ) ;
#830 = MANIFOLD_SOLID_BREP ( '倒角1', #153 ) ;
#831 = APPROVAL_ROLE ( '' ) ;
#832 = VECTOR ( 'NONE', #742, 1000.000000000000000 ) ;
#833 = AXIS2_PLACEMENT_3D ( 'NONE', #126, #885, #367 ) ;
#834 = CARTESIAN_POINT ( 'NONE',  ( -25.00000000000000000, 27.99999999999999645, 5.007887004292364904E-15 ) ) ;
#835 = ORIENTED_EDGE ( 'NONE', *, *, #350, .F. ) ;
#836 = EDGE_CURVE ( 'NONE', #556, #341, #838, .T. ) ;
#837 = CARTESIAN_POINT ( 'NONE',  ( 4.999999999999999112, 40.00000000000000000, 4.499999999999996447 ) ) ;
#838 = CIRCLE ( 'NONE', #558, 4.499999999999997335 ) ;
#839 = ORIENTED_EDGE ( 'NONE', *, *, #907, .T. ) ;
#840 = APPROVAL_PERSON_ORGANIZATION ( #121, #899, #408 ) ;
#841 = FACE_OUTER_BOUND ( 'NONE', #710, .T. ) ;
#842 = ORIENTED_EDGE ( 'NONE', *, *, #535, .T. ) ;
#843 = FACE_OUTER_BOUND ( 'NONE', #797, .T. ) ;
#844 = ADVANCED_FACE ( 'NONE', ( #292 ), #480, .F. ) ;
#845 = ORIENTED_EDGE ( 'NONE', *, *, #282, .F. ) ;
#846 = PLANE ( 'NONE',  #903 ) ;
#847 = EDGE_LOOP ( 'NONE', ( #683, #615, #939, #621 ) ) ;
#848 = CARTESIAN_POINT ( 'NONE',  ( 27.00000000000001776, -40.00000000000000000, -18.75000000000000355 ) ) ;
#849 = ORIENTED_EDGE ( 'NONE', *, *, #238, .F. ) ;
#850 = DATE_AND_TIME ( #566, #540 ) ;
#851 = CARTESIAN_POINT ( 'NONE',  ( -34.99999999999999289, -40.00000000000000000, -22.99999999999998579 ) ) ;
#852 = CIRCLE ( 'NONE', #601, 3.499999999999996003 ) ;
#853 = ORIENTED_EDGE ( 'NONE', *, *, #804, .T. ) ;
#854 = FACE_BOUND ( 'NONE', #30, .T. ) ;
#855 = VERTEX_POINT ( 'NONE', #286 ) ;
#856 = AXIS2_PLACEMENT_3D ( 'NONE', #27, #614, #247 ) ;
#857 = DIRECTION ( 'NONE',  ( 1.000000000000000000, 0.000000000000000000, 0.000000000000000000 ) ) ;
#858 = ORIENTED_EDGE ( 'NONE', *, *, #272, .F. ) ;
#859 = EDGE_CURVE ( 'NONE', #568, #504, #803, .T. ) ;
#860 = DIRECTION ( 'NONE',  ( -0.000000000000000000, -1.000000000000000000, -0.000000000000000000 ) ) ;
#861 = ORIENTED_EDGE ( 'NONE', *, *, #291, .F. ) ;
#862 = LINE ( 'NONE', #345, #170 ) ;
#863 = VERTEX_POINT ( 'NONE', #63 ) ;
#864 = LINE ( 'NONE', #496, #158 ) ;
#865 = CARTESIAN_POINT ( 'NONE',  ( -34.99999999999999289, 40.00000000000000000, 25.00000000000000000 ) ) ;
#866 = CARTESIAN_POINT ( 'NONE',  ( 23.00000000000000711, -19.99999999999999645, -18.49999999999999289 ) ) ;
#867 = ORIENTED_EDGE ( 'NONE', *, *, #198, .T. ) ;
#868 = AXIS2_PLACEMENT_3D ( 'NONE', #524, #902, #820 ) ;
#869 = ADVANCED_FACE ( 'NONE', ( #872, #209 ), #146, .F. ) ;
#870 = DIRECTION ( 'NONE',  ( -1.000000000000000000, 0.000000000000000000, 0.000000000000000000 ) ) ;
#871 = CYLINDRICAL_SURFACE ( 'NONE', #280, 3.499999999999992895 ) ;
#872 = FACE_BOUND ( 'NONE', #929, .T. ) ;
#873 = ORIENTED_EDGE ( 'NONE', *, *, #177, .T. ) ;
#874 = AXIS2_PLACEMENT_3D ( 'NONE', #477, #567, #696 ) ;
#875 = CARTESIAN_POINT ( 'NONE',  ( 21.00000000000001066, 25.99999999999999645, 25.00000000000000000 ) ) ;
#876 = EDGE_CURVE ( 'NONE', #33, #504, #289, .T. ) ;
#877 = FACE_OUTER_BOUND ( 'NONE', #791, .T. ) ;
#878 = VERTEX_POINT ( 'NONE', #813 ) ;
#879 = ORIENTED_EDGE ( 'NONE', *, *, #249, .F. ) ;
#880 = EDGE_CURVE ( 'NONE', #138, #936, #881, .T. ) ;
#881 = LINE ( 'NONE', #353, #129 ) ;
#882 = ADVANCED_BREP_SHAPE_REPRESENTATION ( 'RM-JJ-00083878-01', ( #830, #654 ), #343 ) ;
#883 = DIRECTION ( 'NONE',  ( -0.000000000000000000, -1.000000000000000000, -0.000000000000000000 ) ) ;
#884 = CARTESIAN_POINT ( 'NONE',  ( -32.99999999999996447, 40.00000000000000000, -25.00000000000000000 ) ) ;
#885 = DIRECTION ( 'NONE',  ( -0.000000000000000000, -1.000000000000000000, -0.000000000000000000 ) ) ;
#886 = AXIS2_PLACEMENT_3D ( 'NONE', #378, #304, #678 ) ;
#887 = EDGE_CURVE ( 'NONE', #485, #717, #512, .T. ) ;
#888 = ORIENTED_EDGE ( 'NONE', *, *, #56, .F. ) ;
#889 = VECTOR ( 'NONE', #650, 1000.000000000000000 ) ;
#890 = APPROVAL_PERSON_ORGANIZATION ( #95, #623, #831 ) ;
#891 = LINE ( 'NONE', #9, #230 ) ;
#892 = DIRECTION ( 'NONE',  ( -0.000000000000000000, -1.000000000000000000, -0.000000000000000000 ) ) ;
#893 = CARTESIAN_POINT ( 'NONE',  ( -32.99999999999997868, 0.000000000000000000, 25.00000000000000000 ) ) ;
#894 = DIRECTION ( 'NONE',  ( 0.000000000000000000, 0.000000000000000000, -1.000000000000000000 ) ) ;
#895 = CARTESIAN_POINT ( 'NONE',  ( 27.00000000000001066, -40.00000000000000000, 18.75000000000000355 ) ) ;
#896 = LINE ( 'NONE', #788, #45 ) ;
#897 = EDGE_CURVE ( 'NONE', #936, #568, #735, .T. ) ;
#898 = CYLINDRICAL_SURFACE ( 'NONE', #366, 1.249999999999997558 ) ;
#899 = APPROVAL ( #38, '未指定' ) ;
#900 =( LENGTH_UNIT ( ) NAMED_UNIT ( * ) SI_UNIT ( .MILLI., .METRE. ) );
#901 = CARTESIAN_POINT ( 'NONE',  ( 21.00000000000001066, 27.99999999999999289, -25.00000000000000000 ) ) ;
#902 = DIRECTION ( 'NONE',  ( -0.000000000000000000, -1.000000000000000000, -0.000000000000000000 ) ) ;
#903 = AXIS2_PLACEMENT_3D ( 'NONE', #851, #937, #340 ) ;
#904 =( NAMED_UNIT ( * ) SI_UNIT ( $, .STERADIAN. ) SOLID_ANGLE_UNIT ( ) );
#905 = DIRECTION ( 'NONE',  ( 0.000000000000000000, 0.000000000000000000, -1.000000000000000000 ) ) ;
#906 = LINE ( 'NONE', #160, #105 ) ;
#907 = EDGE_CURVE ( 'NONE', #909, #763, #740, .T. ) ;
#908 = DIRECTION ( 'NONE',  ( -0.000000000000000000, -1.000000000000000000, -0.000000000000000000 ) ) ;
#909 = VERTEX_POINT ( 'NONE', #657 ) ;
#910 = FACE_OUTER_BOUND ( 'NONE', #770, .T. ) ;
#911 = ORIENTED_EDGE ( 'NONE', *, *, #690, .F. ) ;
#912 = CALENDAR_DATE ( 2026, 24, 4 ) ;
#913 = AXIS2_PLACEMENT_3D ( 'NONE', #110, #917, #114 ) ;
#914 = FACE_OUTER_BOUND ( 'NONE', #398, .T. ) ;
#915 = ORIENTED_EDGE ( 'NONE', *, *, #282, .T. ) ;
#916 = ADVANCED_FACE ( 'NONE', ( #584 ), #508, .T. ) ;
#917 = DIRECTION ( 'NONE',  ( -1.000000000000000000, -0.000000000000000000, -0.000000000000000000 ) ) ;
#918 = VECTOR ( 'NONE', #96, 1000.000000000000000 ) ;
#919 = CIRCLE ( 'NONE', #356, 3.499999999999996003 ) ;
#920 = EDGE_LOOP ( 'NONE', ( #873, #810, #781, #839 ) ) ;
#921 = LINE ( 'NONE', #522, #432 ) ;
#922 = EDGE_LOOP ( 'NONE', ( #276, #258 ) ) ;
#923 = DIRECTION ( 'NONE',  ( -0.7071067811865451302, 0.000000000000000000, -0.7071067811865500152 ) ) ;
#924 = ORIENTED_EDGE ( 'NONE', *, *, #959, .T. ) ;
#925 = DIRECTION ( 'NONE',  ( -0.000000000000000000, -0.000000000000000000, -1.000000000000000000 ) ) ;
#926 = EDGE_LOOP ( 'NONE', ( #169, #430 ) ) ;
#927 = LINE ( 'NONE', #315, #753 ) ;
#928 = EDGE_CURVE ( 'NONE', #720, #956, #721, .T. ) ;
#929 = EDGE_LOOP ( 'NONE', ( #319, #260, #794, #551 ) ) ;
#930 = EDGE_CURVE ( 'NONE', #425, #138, #58, .T. ) ;
#931 = CYLINDRICAL_SURFACE ( 'NONE', #208, 3.499999999999992895 ) ;
#932 = AXIS2_PLACEMENT_3D ( 'NONE', #865, #200, #420 ) ;
#933 = VERTEX_POINT ( 'NONE', #953 ) ;
#934 = VECTOR ( 'NONE', #221, 1000.000000000000000 ) ;
#935 = LINE ( 'NONE', #699, #491 ) ;
#936 = VERTEX_POINT ( 'NONE', #884 ) ;
#937 = DIRECTION ( 'NONE',  ( -0.000000000000000000, -0.7071067811865451302, -0.7071067811865500152 ) ) ;
#938 = AXIS2_PLACEMENT_3D ( 'NONE', #590, #439, #964 ) ;
#939 = ORIENTED_EDGE ( 'NONE', *, *, #662, .F. ) ;
#940 = PRODUCT_DEFINITION_SHAPE ( 'NONE', 'NONE',  #795 ) ;
#941 = DIRECTION ( 'NONE',  ( -1.000000000000000000, -0.000000000000000000, -0.000000000000000000 ) ) ;
#942 = FACE_BOUND ( 'NONE', #186, .T. ) ;
#943 = FACE_OUTER_BOUND ( 'NONE', #847, .T. ) ;
#944 = ADVANCED_FACE ( 'NONE', ( #513, #577, #877 ), #428, .F. ) ;
#945 = ORIENTED_EDGE ( 'NONE', *, *, #569, .T. ) ;
#946 = CARTESIAN_POINT ( 'NONE',  ( 35.00000000000001421, -19.99999999999999645, 18.49999999999999645 ) ) ;
#947 = VERTEX_POINT ( 'NONE', #799 ) ;
#948 = CARTESIAN_POINT ( 'NONE',  ( -34.99999999999999289, 28.00000000000000355, -22.99999999999998579 ) ) ;
#949 = ORIENTED_EDGE ( 'NONE', *, *, #581, .T. ) ;
#950 = AXIS2_PLACEMENT_3D ( 'NONE', #406, #19, #266 ) ;
#951 = EDGE_CURVE ( 'NONE', #33, #329, #136, .T. ) ;
#952 = DIRECTION ( 'NONE',  ( 0.000000000000000000, 0.000000000000000000, -1.000000000000000000 ) ) ;
#953 = CARTESIAN_POINT ( 'NONE',  ( 35.00000000000000711, -37.99999999999997158, -25.00000000000000000 ) ) ;
#954 = ORIENTED_EDGE ( 'NONE', *, *, #479, .T. ) ;
#955 = VECTOR ( 'NONE', #582, 1000.000000000000114 ) ;
#956 = VERTEX_POINT ( 'NONE', #895 ) ;
#957 = CARTESIAN_POINT ( 'NONE',  ( 0.000000000000000000, 0.000000000000000000, -25.00000000000000000 ) ) ;
#958 = CARTESIAN_POINT ( 'NONE',  ( 23.00000000000000711, -19.99999999999999645, 15.00000000000000000 ) ) ;
#959 = EDGE_CURVE ( 'NONE', #25, #956, #460, .T. ) ;
#960 = DIRECTION ( 'NONE',  ( -0.000000000000000000, -0.000000000000000000, -1.000000000000000000 ) ) ;
#961 = CARTESIAN_POINT ( 'NONE',  ( -34.99999999999999289, 28.00000000000000355, -22.99999999999998579 ) ) ;
#962 = CIRCLE ( 'NONE', #125, 1.249999999999997558 ) ;
#963 = DIRECTION ( 'NONE',  ( 0.000000000000000000, 1.000000000000000000, 0.000000000000000000 ) ) ;
#964 = DIRECTION ( 'NONE',  ( 0.000000000000000000, 0.000000000000000000, -1.000000000000000000 ) ) ;
#965 = CARTESIAN_POINT ( 'NONE',  ( 21.00000000000001066, 25.99999999999999645, -25.00000000000000000 ) ) ;
#966 = VECTOR ( 'NONE', #670, 1000.000000000000000 ) ;
ENDSEC;
END-ISO-10303-21;
