ISO-10303-21;
HEADER;
FILE_DESCRIPTION (( 'STEP AP203' ),
    '1' );
FILE_NAME ('RM-JJ-00083991-01.step',
    '2026-04-24T07:05:27',
    ( 'user' ),
    ( '' ),
    'SwSTEP 2.0',
    'SolidWorks 2022',
    '' );
FILE_SCHEMA (( 'CONFIG_CONTROL_DESIGN' ));
ENDSEC;

DATA;
#1 = VECTOR ( 'NONE', #78, 1000.000000000000000 ) ;
#2 = AXIS2_PLACEMENT_3D ( 'NONE', #435, #880, #593 ) ;
#3 = LINE ( 'NONE', #802, #76 ) ;
#4 = APPROVAL_STATUS ( 'not_yet_approved' ) ;
#5 = CYLINDRICAL_SURFACE ( 'NONE', #96, 3.299999999999997158 ) ;
#6 = DIRECTION ( 'NONE',  ( -1.000000000000000000, 0.000000000000000000, 0.000000000000000000 ) ) ;
#7 = ORIENTED_EDGE ( 'NONE', *, *, #628, .T. ) ;
#8 = PERSON_AND_ORGANIZATION_ROLE ( 'classification_officer' ) ;
#9 = CARTESIAN_POINT ( 'NONE',  ( 39.00000000000000711, 7.500000000000000000, 0.000000000000000000 ) ) ;
#10 = DIRECTION ( 'NONE',  ( -0.000000000000000000, -0.000000000000000000, -1.000000000000000000 ) ) ;
#11 = FACE_OUTER_BOUND ( 'NONE', #156, .T. ) ;
#12 = ORIENTED_EDGE ( 'NONE', *, *, #949, .T. ) ;
#13 = COORDINATED_UNIVERSAL_TIME_OFFSET ( 8, 0, .AHEAD. ) ;
#14 = LINE ( 'NONE', #669, #267 ) ;
#15 = AXIS2_PLACEMENT_3D ( 'NONE', #280, #205, #421 ) ;
#16 = FACE_BOUND ( 'NONE', #548, .T. ) ;
#17 = CARTESIAN_POINT ( 'NONE',  ( -39.99999999999999289, -6.499999999999984901, 15.00000000000000000 ) ) ;
#18 = LOCAL_TIME ( 15, 5, 27.00000000000000000, #13 ) ;
#19 = ORIENTED_EDGE ( 'NONE', *, *, #752, .F. ) ;
#20 = EDGE_CURVE ( 'NONE', #343, #256, #409, .T. ) ;
#21 = AXIS2_PLACEMENT_3D ( 'NONE', #954, #71, #724 ) ;
#22 = LINE ( 'NONE', #599, #443 ) ;
#23 = CARTESIAN_POINT ( 'NONE',  ( 35.79999999999999716, 4.133182947122316772E-15, 8.199999999999999289 ) ) ;
#24 = LINE ( 'NONE', #751, #290 ) ;
#25 = ORIENTED_EDGE ( 'NONE', *, *, #883, .T. ) ;
#26 = CALENDAR_DATE ( 2026, 24, 4 ) ;
#27 = CARTESIAN_POINT ( 'NONE',  ( 0.000000000000000000, 0.000000000000000000, 15.00000000000000000 ) ) ;
#28 = CARTESIAN_POINT ( 'NONE',  ( 32.50000000000000000, -3.299999999999994049, 15.00000000000000000 ) ) ;
#29 = EDGE_LOOP ( 'NONE', ( #12, #334, #400, #319 ) ) ;
#30 = APPROVAL_STATUS ( 'not_yet_approved' ) ;
#31 = ORIENTED_EDGE ( 'NONE', *, *, #367, .T. ) ;
#32 = ORIENTED_EDGE ( 'NONE', *, *, #726, .T. ) ;
#33 = EDGE_CURVE ( 'NONE', #386, #413, #793, .T. ) ;
#34 = CARTESIAN_POINT ( 'NONE',  ( -12.49999999999999112, -3.300000000000002043, 8.199999999999999289 ) ) ;
#35 = CARTESIAN_POINT ( 'NONE',  ( 0.000000000000000000, 0.000000000000000000, 0.000000000000000000 ) ) ;
#36 = ORIENTED_EDGE ( 'NONE', *, *, #752, .T. ) ;
#37 = ORIENTED_EDGE ( 'NONE', *, *, #132, .F. ) ;
#38 = VERTEX_POINT ( 'NONE', #134 ) ;
#39 = CIRCLE ( 'NONE', #801, 3.299999999999997158 ) ;
#40 = AXIS2_PLACEMENT_3D ( 'NONE', #732, #218, #582 ) ;
#41 = LINE ( 'NONE', #702, #154 ) ;
#42 = ORIENTED_EDGE ( 'NONE', *, *, #682, .F. ) ;
#43 = EDGE_LOOP ( 'NONE', ( #179, #857, #183, #662, #248, #692, #629, #837 ) ) ;
#44 = ORIENTED_EDGE ( 'NONE', *, *, #289, .T. ) ;
#45 = DIRECTION ( 'NONE',  ( 0.7071067811865500152, 0.7071067811865451302, -0.000000000000000000 ) ) ;
#46 = EDGE_LOOP ( 'NONE', ( #691, #19, #761, #25 ) ) ;
#47 = ORIENTED_EDGE ( 'NONE', *, *, #337, .T. ) ;
#48 = VERTEX_POINT ( 'NONE', #862 ) ;
#49 = CARTESIAN_POINT ( 'NONE',  ( -12.49999999999998757, -3.300000000000002487, 15.00000000000000000 ) ) ;
#50 = ORIENTED_EDGE ( 'NONE', *, *, #299, .F. ) ;
#51 = EDGE_CURVE ( 'NONE', #124, #770, #171, .T. ) ;
#52 = VERTEX_POINT ( 'NONE', #565 ) ;
#53 = APPROVAL_PERSON_ORGANIZATION ( #596, #348, #903 ) ;
#54 = VECTOR ( 'NONE', #530, 1000.000000000000000 ) ;
#55 = FACE_BOUND ( 'NONE', #590, .T. ) ;
#56 = DIRECTION ( 'NONE',  ( -0.000000000000000000, -1.000000000000000000, -0.000000000000000000 ) ) ;
#57 = DIRECTION ( 'NONE',  ( 1.836970198721030181E-16, -1.000000000000000000, -0.000000000000000000 ) ) ;
#58 = LINE ( 'NONE', #943, #127 ) ;
#59 = EDGE_CURVE ( 'NONE', #259, #124, #940, .T. ) ;
#60 = FACE_OUTER_BOUND ( 'NONE', #612, .T. ) ;
#61 = DIRECTION ( 'NONE',  ( -0.000000000000000000, -0.000000000000000000, 1.000000000000000000 ) ) ;
#62 = PRODUCT_DEFINITION_FORMATION_WITH_SPECIFIED_SOURCE ( '任何', '', #701, .NOT_KNOWN. ) ;
#63 = VECTOR ( 'NONE', #206, 1000.000000000000000 ) ;
#64 = CIRCLE ( 'NONE', #936, 3.299999999999997158 ) ;
#65 = DIRECTION ( 'NONE',  ( 1.000000000000000000, 1.836970198721030181E-16, -0.000000000000000000 ) ) ;
#66 = CC_DESIGN_PERSON_AND_ORGANIZATION_ASSIGNMENT ( #577, #210, ( #760 ) ) ;
#67 = APPROVAL_ROLE ( '' ) ;
#68 = CARTESIAN_POINT ( 'NONE',  ( -27.24999999999999645, 0.000000000000000000, 5.700000000000000178 ) ) ;
#69 = CARTESIAN_POINT ( 'NONE',  ( -12.49999999999999112, 3.299999999999994493, 0.000000000000000000 ) ) ;
#70 = EDGE_CURVE ( 'NONE', #778, #858, #58, .T. ) ;
#71 = DIRECTION ( 'NONE',  ( -0.000000000000000000, -0.000000000000000000, 1.000000000000000000 ) ) ;
#72 = CARTESIAN_POINT ( 'NONE',  ( 40.00000000000000711, 6.499999999999984901, 15.00000000000000000 ) ) ;
#73 = CARTESIAN_POINT ( 'NONE',  ( 32.50000000000000000, 4.133182947122316772E-15, 8.199999999999999289 ) ) ;
#74 = EDGE_CURVE ( 'NONE', #770, #124, #643, .T. ) ;
#75 = CYLINDRICAL_SURFACE ( 'NONE', #173, 5.499999999999998224 ) ;
#76 = VECTOR ( 'NONE', #145, 999.9999999999998863 ) ;
#77 = AXIS2_PLACEMENT_3D ( 'NONE', #750, #307, #175 ) ;
#78 = DIRECTION ( 'NONE',  ( 1.000000000000000000, 1.836970198721030181E-16, -0.000000000000000000 ) ) ;
#79 = CALENDAR_DATE ( 2026, 24, 4 ) ;
#80 = DIRECTION ( 'NONE',  ( 0.000000000000000000, 0.000000000000000000, 1.000000000000000000 ) ) ;
#81 = DIRECTION ( 'NONE',  ( -0.000000000000000000, -0.000000000000000000, 1.000000000000000000 ) ) ;
#82 = ORIENTED_EDGE ( 'NONE', *, *, #799, .T. ) ;
#83 = DIRECTION ( 'NONE',  ( 0.000000000000000000, 0.000000000000000000, 1.000000000000000000 ) ) ;
#84 = EDGE_CURVE ( 'NONE', #896, #611, #197, .T. ) ;
#85 = CARTESIAN_POINT ( 'NONE',  ( -12.49999999999999112, -5.500000000000002665, 8.199999999999999289 ) ) ;
#86 = FACE_OUTER_BOUND ( 'NONE', #618, .T. ) ;
#87 = ORIENTED_EDGE ( 'NONE', *, *, #453, .F. ) ;
#88 = PERSON_AND_ORGANIZATION ( #220, #353 ) ;
#89 = CARTESIAN_POINT ( 'NONE',  ( 32.50000000000000000, 4.133182947122316772E-15, 15.00000000000000000 ) ) ;
#90 = ADVANCED_FACE ( 'NONE', ( #490, #354 ), #270, .T. ) ;
#91 = LINE ( 'NONE', #238, #369 ) ;
#92 = DIRECTION ( 'NONE',  ( 0.000000000000000000, 1.000000000000000000, 0.000000000000000000 ) ) ;
#93 = VECTOR ( 'NONE', #313, 1000.000000000000000 ) ;
#94 = ORIENTED_EDGE ( 'NONE', *, *, #744, .F. ) ;
#95 = AXIS2_PLACEMENT_3D ( 'NONE', #717, #287, #137 ) ;
#96 = AXIS2_PLACEMENT_3D ( 'NONE', #588, #886, #591 ) ;
#97 = DESIGN_CONTEXT ( 'detailed design', #875, 'design' ) ;
#98 = CARTESIAN_POINT ( 'NONE',  ( -29.99999999999999645, 0.000000000000000000, 13.00000000000000000 ) ) ;
#99 = CARTESIAN_POINT ( 'NONE',  ( -12.49999999999998757, 3.299999999999994049, 15.00000000000000000 ) ) ;
#100 = VERTEX_POINT ( 'NONE', #645 ) ;
#101 = ORIENTED_EDGE ( 'NONE', *, *, #345, .F. ) ;
#102 = EDGE_CURVE ( 'NONE', #908, #467, #570, .T. ) ;
#103 = ORIENTED_EDGE ( 'NONE', *, *, #237, .T. ) ;
#104 = CARTESIAN_POINT ( 'NONE',  ( 35.79999999999999716, 4.133182947122316772E-15, 0.000000000000000000 ) ) ;
#105 = CARTESIAN_POINT ( 'NONE',  ( 32.50000000000000000, -5.499999999999993783, 8.199999999999999289 ) ) ;
#106 = ORIENTED_EDGE ( 'NONE', *, *, #845, .F. ) ;
#107 = VERTEX_POINT ( 'NONE', #795 ) ;
#108 = ORIENTED_EDGE ( 'NONE', *, *, #423, .F. ) ;
#109 = CC_DESIGN_PERSON_AND_ORGANIZATION_ASSIGNMENT ( #462, #8, ( #934 ) ) ;
#110 = CARTESIAN_POINT ( 'NONE',  ( -29.99999999999999645, 0.000000000000000000, 0.000000000000000000 ) ) ;
#111 = ORIENTED_EDGE ( 'NONE', *, *, #595, .T. ) ;
#112 = LOCAL_TIME ( 15, 5, 27.00000000000000000, #668 ) ;
#113 = VECTOR ( 'NONE', #635, 1000.000000000000000 ) ;
#114 = EDGE_LOOP ( 'NONE', ( #36, #840 ) ) ;
#115 = EDGE_LOOP ( 'NONE', ( #463, #269, #390, #531 ) ) ;
#116 =( GEOMETRIC_REPRESENTATION_CONTEXT ( 3 ) GLOBAL_UNCERTAINTY_ASSIGNED_CONTEXT ( ( #510 ) ) GLOBAL_UNIT_ASSIGNED_CONTEXT ( ( #351, #869, #282 ) ) REPRESENTATION_CONTEXT ( 'NONE', 'WORKASPACE' ) );
#117 = CARTESIAN_POINT ( 'NONE',  ( -29.99999999999999645, 0.000000000000000000, 13.00000000000000000 ) ) ;
#118 = ORIENTED_EDGE ( 'NONE', *, *, #786, .F. ) ;
#119 = ORIENTED_EDGE ( 'NONE', *, *, #337, .F. ) ;
#120 = ORIENTED_EDGE ( 'NONE', *, *, #642, .T. ) ;
#121 = CARTESIAN_POINT ( 'NONE',  ( -12.49999999999998757, -4.133182947122316772E-15, 8.199999999999999289 ) ) ;
#122 = EDGE_CURVE ( 'NONE', #932, #924, #502, .T. ) ;
#123 = ORIENTED_EDGE ( 'NONE', *, *, #405, .T. ) ;
#124 = VERTEX_POINT ( 'NONE', #200 ) ;
#125 = DIRECTION ( 'NONE',  ( -0.000000000000000000, -0.000000000000000000, 1.000000000000000000 ) ) ;
#126 = CARTESIAN_POINT ( 'NONE',  ( -29.99999999999999645, 0.000000000000000000, 0.000000000000000000 ) ) ;
#127 = VECTOR ( 'NONE', #718, 1000.000000000000000 ) ;
#128 = CIRCLE ( 'NONE', #212, 5.499999999999998224 ) ;
#129 = VECTOR ( 'NONE', #899, 1000.000000000000000 ) ;
#130 = CARTESIAN_POINT ( 'NONE',  ( -39.99999999999999289, -7.500000000000000000, 0.000000000000000000 ) ) ;
#131 = DIRECTION ( 'NONE',  ( -0.000000000000000000, -0.000000000000000000, -1.000000000000000000 ) ) ;
#132 = EDGE_CURVE ( 'NONE', #483, #766, #798, .T. ) ;
#133 = CARTESIAN_POINT ( 'NONE',  ( -34.99999999999999289, 0.000000000000000000, 5.700000000000000178 ) ) ;
#134 = CARTESIAN_POINT ( 'NONE',  ( 40.00000000000000711, -6.499999999999999112, 0.000000000000000000 ) ) ;
#135 = CARTESIAN_POINT ( 'NONE',  ( -12.49999999999999112, 5.499999999999993783, 15.00000000000000000 ) ) ;
#136 = EDGE_CURVE ( 'NONE', #182, #778, #350, .T. ) ;
#137 = DIRECTION ( 'NONE',  ( 1.000000000000000000, 0.000000000000000000, 0.000000000000000000 ) ) ;
#138 = CARTESIAN_POINT ( 'NONE',  ( 40.00000000000000711, -6.499999999999999112, 15.00000000000000000 ) ) ;
#139 = COORDINATED_UNIVERSAL_TIME_OFFSET ( 8, 0, .AHEAD. ) ;
#140 = CIRCLE ( 'NONE', #676, 4.000000000000000000 ) ;
#141 = CIRCLE ( 'NONE', #356, 3.299999999999997158 ) ;
#142 = LINE ( 'NONE', #654, #615 ) ;
#143 = CIRCLE ( 'NONE', #77, 4.000000000000000000 ) ;
#144 = EDGE_CURVE ( 'NONE', #483, #257, #640, .T. ) ;
#145 = DIRECTION ( 'NONE',  ( -0.7071067811865525687, -0.7071067811865425767, -0.000000000000000000 ) ) ;
#146 = FACE_OUTER_BOUND ( 'NONE', #552, .T. ) ;
#147 = LINE ( 'NONE', #572, #632 ) ;
#148 = ADVANCED_FACE ( 'NONE', ( #868 ), #203, .F. ) ;
#149 = CARTESIAN_POINT ( 'NONE',  ( -12.49999999999999112, 5.499999999999993783, 8.199999999999999289 ) ) ;
#150 = PERSON_AND_ORGANIZATION_ROLE ( 'design_owner' ) ;
#151 = DIRECTION ( 'NONE',  ( -0.000000000000000000, -0.000000000000000000, 1.000000000000000000 ) ) ;
#152 = LINE ( 'NONE', #519, #418 ) ;
#153 = CARTESIAN_POINT ( 'NONE',  ( -38.99999999999999289, -7.500000000000000000, 0.000000000000000000 ) ) ;
#154 = VECTOR ( 'NONE', #45, 1000.000000000000114 ) ;
#155 = CARTESIAN_POINT ( 'NONE',  ( -12.49999999999999112, 3.299999999999995381, 8.199999999999999289 ) ) ;
#156 = EDGE_LOOP ( 'NONE', ( #403, #375, #916, #556 ) ) ;
#157 = DATE_TIME_ROLE ( 'creation_date' ) ;
#158 = EDGE_CURVE ( 'NONE', #924, #413, #234, .T. ) ;
#159 = CARTESIAN_POINT ( 'NONE',  ( 32.50000000000000000, -5.499999999999993783, 15.00000000000000000 ) ) ;
#160 = LINE ( 'NONE', #746, #598 ) ;
#161 = DIRECTION ( 'NONE',  ( 0.000000000000000000, 0.000000000000000000, 1.000000000000000000 ) ) ;
#162 = VERTEX_POINT ( 'NONE', #764 ) ;
#163 = PRODUCT_RELATED_PRODUCT_CATEGORY ( 'detail', '', ( #701 ) ) ;
#164 = LINE ( 'NONE', #749, #892 ) ;
#165 = FACE_BOUND ( 'NONE', #328, .T. ) ;
#166 = CARTESIAN_POINT ( 'NONE',  ( 40.00000000000000711, -7.500000000000000000, 0.000000000000000000 ) ) ;
#167 = ORIENTED_EDGE ( 'NONE', *, *, #614, .F. ) ;
#168 = DIRECTION ( 'NONE',  ( -0.000000000000000000, -0.000000000000000000, 1.000000000000000000 ) ) ;
#169 = CARTESIAN_POINT ( 'NONE',  ( 32.50000000000000000, 4.133182947122316772E-15, 8.199999999999999289 ) ) ;
#170 = EDGE_CURVE ( 'NONE', #541, #162, #609, .T. ) ;
#171 = CIRCLE ( 'NONE', #322, 5.000000000000000888 ) ;
#172 = VERTEX_POINT ( 'NONE', #690 ) ;
#173 = AXIS2_PLACEMENT_3D ( 'NONE', #358, #434, #729 ) ;
#174 = VERTEX_POINT ( 'NONE', #466 ) ;
#175 = DIRECTION ( 'NONE',  ( 1.000000000000000000, 0.000000000000000000, 0.000000000000000000 ) ) ;
#176 = FACE_OUTER_BOUND ( 'NONE', #473, .T. ) ;
#177 = VERTEX_POINT ( 'NONE', #105 ) ;
#178 = ORIENTED_EDGE ( 'NONE', *, *, #573, .T. ) ;
#179 = ORIENTED_EDGE ( 'NONE', *, *, #877, .T. ) ;
#180 = FACE_OUTER_BOUND ( 'NONE', #451, .T. ) ;
#181 = CARTESIAN_POINT ( 'NONE',  ( 38.99999999999999289, -7.500000000000000000, 15.00000000000000000 ) ) ;
#182 = VERTEX_POINT ( 'NONE', #181 ) ;
#183 = ORIENTED_EDGE ( 'NONE', *, *, #70, .T. ) ;
#184 = ORIENTED_EDGE ( 'NONE', *, *, #59, .F. ) ;
#185 = CARTESIAN_POINT ( 'NONE',  ( -39.99999999999999289, 6.499999999999999112, 15.00000000000000000 ) ) ;
#186 = CIRCLE ( 'NONE', #723, 5.000000000000000888 ) ;
#187 = ORIENTED_EDGE ( 'NONE', *, *, #682, .T. ) ;
#188 = ORIENTED_EDGE ( 'NONE', *, *, #859, .F. ) ;
#189 = ORIENTED_EDGE ( 'NONE', *, *, #51, .F. ) ;
#190 = AXIS2_PLACEMENT_3D ( 'NONE', #217, #161, #747 ) ;
#191 = CIRCLE ( 'NONE', #21, 5.499999999999998224 ) ;
#192 = EDGE_CURVE ( 'NONE', #778, #38, #309, .T. ) ;
#193 = PLANE ( 'NONE',  #675 ) ;
#194 = ORIENTED_EDGE ( 'NONE', *, *, #527, .F. ) ;
#195 = ORIENTED_EDGE ( 'NONE', *, *, #716, .F. ) ;
#196 = DIRECTION ( 'NONE',  ( -0.000000000000000000, -0.000000000000000000, -1.000000000000000000 ) ) ;
#197 = LINE ( 'NONE', #281, #694 ) ;
#198 = CARTESIAN_POINT ( 'NONE',  ( -39.99999999999999289, -7.500000000000000000, 15.00000000000000000 ) ) ;
#199 = EDGE_CURVE ( 'NONE', #241, #372, #617, .T. ) ;
#200 = CARTESIAN_POINT ( 'NONE',  ( -24.99999999999999289, 6.123233995736767268E-16, 0.000000000000000000 ) ) ;
#201 = AXIS2_PLACEMENT_3D ( 'NONE', #387, #689, #317 ) ;
#202 = LINE ( 'NONE', #349, #866 ) ;
#203 = PLANE ( 'NONE',  #493 ) ;
#204 = CYLINDRICAL_SURFACE ( 'NONE', #40, 2.749999999999999112 ) ;
#205 = DIRECTION ( 'NONE',  ( 0.000000000000000000, 0.000000000000000000, 1.000000000000000000 ) ) ;
#206 = DIRECTION ( 'NONE',  ( 1.000000000000000000, 1.836970198721030181E-16, -0.000000000000000000 ) ) ;
#207 = LINE ( 'NONE', #360, #571 ) ;
#208 = DIRECTION ( 'NONE',  ( -1.000000000000000000, -1.836970198721030181E-16, 0.000000000000000000 ) ) ;
#209 = LINE ( 'NONE', #69, #306 ) ;
#210 = PERSON_AND_ORGANIZATION_ROLE ( 'creator' ) ;
#211 = ADVANCED_FACE ( 'NONE', ( #460 ), #455, .F. ) ;
#212 = AXIS2_PLACEMENT_3D ( 'NONE', #169, #385, #907 ) ;
#213 = DIRECTION ( 'NONE',  ( 1.000000000000000000, 0.000000000000000000, -0.000000000000000000 ) ) ;
#214 = CYLINDRICAL_SURFACE ( 'NONE', #2, 5.499999999999998224 ) ;
#215 = MECHANICAL_CONTEXT ( 'NONE', #824, 'mechanical' ) ;
#216 = PLANE ( 'NONE',  #265 ) ;
#217 = CARTESIAN_POINT ( 'NONE',  ( -29.99999999999999645, 0.000000000000000000, 13.00000000000000000 ) ) ;
#218 = DIRECTION ( 'NONE',  ( -0.000000000000000000, -0.000000000000000000, -1.000000000000000000 ) ) ;
#219 = DIRECTION ( 'NONE',  ( 0.7071067811865524577, 0.7071067811865425767, 0.000000000000000000 ) ) ;
#220 = PERSON ( '未指定', '未指定', '未指定', ('未指定'), ('未指定'), ('未指定') ) ;
#221 = DIRECTION ( 'NONE',  ( -0.000000000000000000, -0.000000000000000000, 1.000000000000000000 ) ) ;
#222 = ORIENTED_EDGE ( 'NONE', *, *, #910, .T. ) ;
#223 = ADVANCED_FACE ( 'NONE', ( #679, #825, #472 ), #539, .T. ) ;
#224 = PERSON_AND_ORGANIZATION ( #220, #353 ) ;
#225 = CARTESIAN_POINT ( 'NONE',  ( 40.00000000000000711, -6.499999999999999112, 15.00000000000000000 ) ) ;
#226 = PLANE ( 'NONE',  #659 ) ;
#227 = LOCAL_TIME ( 15, 5, 27.00000000000000000, #139 ) ;
#228 = DIRECTION ( 'NONE',  ( -0.000000000000000000, -0.000000000000000000, -1.000000000000000000 ) ) ;
#229 = EDGE_LOOP ( 'NONE', ( #391, #123, #667, #402, #178 ) ) ;
#230 = EDGE_CURVE ( 'NONE', #846, #107, #24, .T. ) ;
#231 = ORIENTED_EDGE ( 'NONE', *, *, #774, .F. ) ;
#232 = LINE ( 'NONE', #822, #776 ) ;
#233 = DIRECTION ( 'NONE',  ( 1.000000000000000000, 0.000000000000000000, 0.000000000000000000 ) ) ;
#234 = LINE ( 'NONE', #17, #93 ) ;
#235 = EDGE_LOOP ( 'NONE', ( #195, #246, #187, #928 ) ) ;
#236 = DATE_TIME_ROLE ( 'classification_date' ) ;
#237 = EDGE_CURVE ( 'NONE', #38, #917, #324, .T. ) ;
#238 = CARTESIAN_POINT ( 'NONE',  ( -25.99999999999999645, 0.000000000000000000, 13.00000000000000000 ) ) ;
#239 = DIRECTION ( 'NONE',  ( -0.000000000000000000, -0.000000000000000000, 1.000000000000000000 ) ) ;
#240 = ORIENTED_EDGE ( 'NONE', *, *, #500, .T. ) ;
#241 = VERTEX_POINT ( 'NONE', #684 ) ;
#242 = EDGE_CURVE ( 'NONE', #174, #846, #128, .T. ) ;
#243 = LINE ( 'NONE', #34, #737 ) ;
#244 = DIRECTION ( 'NONE',  ( -0.7071067811865425767, 0.7071067811865524577, 0.000000000000000000 ) ) ;
#245 = CIRCLE ( 'NONE', #536, 2.749999999999999112 ) ;
#246 = ORIENTED_EDGE ( 'NONE', *, *, #20, .T. ) ;
#247 = CIRCLE ( 'NONE', #279, 2.749999999999999112 ) ;
#248 = ORIENTED_EDGE ( 'NONE', *, *, #144, .T. ) ;
#249 = ORIENTED_EDGE ( 'NONE', *, *, #453, .T. ) ;
#250 = CARTESIAN_POINT ( 'NONE',  ( 23.25000000000027711, 23.24999999999995026, 0.000000000000000000 ) ) ;
#251 = CARTESIAN_POINT ( 'NONE',  ( -12.49999999999999112, -3.300000000000001155, 0.000000000000000000 ) ) ;
#252 = ORIENTED_EDGE ( 'NONE', *, *, #504, .T. ) ;
#253 = ORIENTED_EDGE ( 'NONE', *, *, #744, .T. ) ;
#254 = ORIENTED_EDGE ( 'NONE', *, *, #792, .T. ) ;
#255 = DIRECTION ( 'NONE',  ( 1.000000000000000000, 1.836970198721030181E-16, 0.000000000000000000 ) ) ;
#256 = VERTEX_POINT ( 'NONE', #758 ) ;
#257 = VERTEX_POINT ( 'NONE', #836 ) ;
#258 = EDGE_CURVE ( 'NONE', #172, #821, #388, .T. ) ;
#259 = VERTEX_POINT ( 'NONE', #920 ) ;
#260 = CARTESIAN_POINT ( 'NONE',  ( 32.50000000000000000, 4.133182947122316772E-15, 0.000000000000000000 ) ) ;
#261 = ORIENTED_EDGE ( 'NONE', *, *, #595, .F. ) ;
#262 = VECTOR ( 'NONE', #637, 999.9999999999998863 ) ;
#263 = VERTEX_POINT ( 'NONE', #251 ) ;
#264 = ORIENTED_EDGE ( 'NONE', *, *, #331, .F. ) ;
#265 = AXIS2_PLACEMENT_3D ( 'NONE', #68, #955, #213 ) ;
#266 = ADVANCED_FACE ( 'NONE', ( #176 ), #545, .F. ) ;
#267 = VECTOR ( 'NONE', #452, 1000.000000000000000 ) ;
#268 = CARTESIAN_POINT ( 'NONE',  ( -12.49999999999999112, -5.500000000000002665, 15.00000000000000000 ) ) ;
#269 = ORIENTED_EDGE ( 'NONE', *, *, #331, .T. ) ;
#270 = PLANE ( 'NONE',  #398 ) ;
#271 = ADVANCED_FACE ( 'NONE', ( #295 ), #672, .F. ) ;
#272 = CARTESIAN_POINT ( 'NONE',  ( -38.99999999999999289, -7.500000000000000000, 15.00000000000000000 ) ) ;
#273 = DIRECTION ( 'NONE',  ( -0.000000000000000000, -1.000000000000000000, -0.000000000000000000 ) ) ;
#274 = DIRECTION ( 'NONE',  ( 1.000000000000000000, 0.000000000000000000, 0.000000000000000000 ) ) ;
#275 = CC_DESIGN_PERSON_AND_ORGANIZATION_ASSIGNMENT ( #876, #150, ( #701 ) ) ;
#276 = DIRECTION ( 'NONE',  ( -1.000000000000000000, -0.000000000000000000, -0.000000000000000000 ) ) ;
#277 = CARTESIAN_POINT ( 'NONE',  ( -39.99999999999999289, -6.499999999999984901, 0.000000000000000000 ) ) ;
#278 = VECTOR ( 'NONE', #912, 1000.000000000000000 ) ;
#279 = AXIS2_PLACEMENT_3D ( 'NONE', #98, #906, #544 ) ;
#280 = CARTESIAN_POINT ( 'NONE',  ( -29.99999999999999645, 0.000000000000000000, 15.00000000000000000 ) ) ;
#281 = CARTESIAN_POINT ( 'NONE',  ( 35.79999999999999716, 4.133182947122316772E-15, 15.00000000000000000 ) ) ;
#282 =( NAMED_UNIT ( * ) SI_UNIT ( $, .STERADIAN. ) SOLID_ANGLE_UNIT ( ) );
#283 = DIRECTION ( 'NONE',  ( 0.000000000000000000, 0.000000000000000000, -1.000000000000000000 ) ) ;
#284 = DIRECTION ( 'NONE',  ( -1.000000000000000000, 0.000000000000000000, 0.000000000000000000 ) ) ;
#285 = DATE_AND_TIME ( #427, #227 ) ;
#286 = ADVANCED_FACE ( 'NONE', ( #86 ), #740, .F. ) ;
#287 = DIRECTION ( 'NONE',  ( -0.000000000000000000, -0.000000000000000000, 1.000000000000000000 ) ) ;
#288 = DIRECTION ( 'NONE',  ( 1.000000000000000000, 1.836970198721030181E-16, -0.000000000000000000 ) ) ;
#289 = EDGE_CURVE ( 'NONE', #633, #770, #152, .T. ) ;
#290 = VECTOR ( 'NONE', #239, 1000.000000000000000 ) ;
#291 = DIRECTION ( 'NONE',  ( 1.000000000000000000, 0.000000000000000000, 0.000000000000000000 ) ) ;
#292 = DIRECTION ( 'NONE',  ( -0.000000000000000000, -0.000000000000000000, 1.000000000000000000 ) ) ;
#293 = CARTESIAN_POINT ( 'NONE',  ( -12.49999999999998934, 5.499999999999993783, 15.00000000000000000 ) ) ;
#294 = ADVANCED_FACE ( 'NONE', ( #11 ), #956, .F. ) ;
#295 = FACE_OUTER_BOUND ( 'NONE', #302, .T. ) ;
#296 = VERTEX_POINT ( 'NONE', #374 ) ;
#297 = APPROVAL_STATUS ( 'not_yet_approved' ) ;
#298 = CARTESIAN_POINT ( 'NONE',  ( -34.99999999999999289, 0.000000000000000000, 0.000000000000000000 ) ) ;
#299 = EDGE_CURVE ( 'NONE', #241, #162, #805, .T. ) ;
#300 = DIRECTION ( 'NONE',  ( -1.000000000000000000, 0.000000000000000000, 0.000000000000000000 ) ) ;
#301 = CARTESIAN_POINT ( 'NONE',  ( -12.49999999999999112, 3.299999999999994493, 0.000000000000000000 ) ) ;
#302 = EDGE_LOOP ( 'NONE', ( #743, #254, #120, #772 ) ) ;
#303 = APPROVAL_DATE_TIME ( #315, #515 ) ;
#304 = ORIENTED_EDGE ( 'NONE', *, *, #258, .T. ) ;
#305 = CARTESIAN_POINT ( 'NONE',  ( -27.24999999999999645, 3.367778697655215095E-16, 13.00000000000000000 ) ) ;
#306 = VECTOR ( 'NONE', #589, 1000.000000000000000 ) ;
#307 = DIRECTION ( 'NONE',  ( 0.000000000000000000, 0.000000000000000000, 1.000000000000000000 ) ) ;
#308 = CIRCLE ( 'NONE', #557, 5.499999999999998224 ) ;
#309 = LINE ( 'NONE', #533, #342 ) ;
#310 = ORIENTED_EDGE ( 'NONE', *, *, #573, .F. ) ;
#311 = EDGE_CURVE ( 'NONE', #372, #541, #209, .T. ) ;
#312 = PLANE ( 'NONE',  #791 ) ;
#313 = DIRECTION ( 'NONE',  ( 0.000000000000000000, 0.000000000000000000, 1.000000000000000000 ) ) ;
#314 = ORIENTED_EDGE ( 'NONE', *, *, #883, .F. ) ;
#315 = DATE_AND_TIME ( #26, #18 ) ;
#316 = CC_DESIGN_PERSON_AND_ORGANIZATION_ASSIGNMENT ( #88, #376, ( #62 ) ) ;
#317 = DIRECTION ( 'NONE',  ( 0.000000000000000000, -0.000000000000000000, -1.000000000000000000 ) ) ;
#318 = DIRECTION ( 'NONE',  ( 0.000000000000000000, 0.000000000000000000, -1.000000000000000000 ) ) ;
#319 = ORIENTED_EDGE ( 'NONE', *, *, #628, .F. ) ;
#320 = VERTEX_POINT ( 'NONE', #439 ) ;
#321 = EDGE_LOOP ( 'NONE', ( #526, #534, #926, #765 ) ) ;
#322 = AXIS2_PLACEMENT_3D ( 'NONE', #715, #131, #713 ) ;
#323 = DIRECTION ( 'NONE',  ( 1.000000000000000000, 1.836970198721030181E-16, -0.000000000000000000 ) ) ;
#324 = LINE ( 'NONE', #166, #521 ) ;
#325 = AXIS2_PLACEMENT_3D ( 'NONE', #661, #820, #576 ) ;
#326 = ORIENTED_EDGE ( 'NONE', *, *, #230, .T. ) ;
#327 = VECTOR ( 'NONE', #806, 999.9999999999998863 ) ;
#328 = EDGE_LOOP ( 'NONE', ( #520, #542, #626, #623, #624 ) ) ;
#329 = EDGE_LOOP ( 'NONE', ( #188, #561 ) ) ;
#330 = DIRECTION ( 'NONE',  ( -0.000000000000000000, -0.000000000000000000, 1.000000000000000000 ) ) ;
#331 = EDGE_CURVE ( 'NONE', #174, #708, #506, .T. ) ;
#332 = ORIENTED_EDGE ( 'NONE', *, *, #431, .F. ) ;
#333 = ORIENTED_EDGE ( 'NONE', *, *, #614, .T. ) ;
#334 = ORIENTED_EDGE ( 'NONE', *, *, #809, .F. ) ;
#335 = FACE_OUTER_BOUND ( 'NONE', #235, .T. ) ;
#336 = ORIENTED_EDGE ( 'NONE', *, *, #74, .F. ) ;
#337 = EDGE_CURVE ( 'NONE', #38, #296, #3, .T. ) ;
#338 = ORIENTED_EDGE ( 'NONE', *, *, #527, .T. ) ;
#339 = EDGE_LOOP ( 'NONE', ( #783, #849, #843, #395 ) ) ;
#340 = PLANE ( 'NONE',  #897 ) ;
#341 = ORIENTED_EDGE ( 'NONE', *, *, #809, .T. ) ;
#342 = VECTOR ( 'NONE', #393, 1000.000000000000000 ) ;
#343 = VERTEX_POINT ( 'NONE', #432 ) ;
#344 = VECTOR ( 'NONE', #65, 1000.000000000000000 ) ;
#345 = EDGE_CURVE ( 'NONE', #52, #846, #734, .T. ) ;
#346 = DIRECTION ( 'NONE',  ( 1.000000000000000000, 0.000000000000000000, 0.000000000000000000 ) ) ;
#347 = CARTESIAN_POINT ( 'NONE',  ( 39.00000000000000711, 7.500000000000000000, 15.00000000000000000 ) ) ;
#348 = APPROVAL ( #297, '未指定' ) ;
#349 = CARTESIAN_POINT ( 'NONE',  ( -12.49999999999999112, -3.300000000000001155, 0.000000000000000000 ) ) ;
#350 = LINE ( 'NONE', #138, #262 ) ;
#351 =( LENGTH_UNIT ( ) NAMED_UNIT ( * ) SI_UNIT ( .MILLI., .METRE. ) );
#352 = DIRECTION ( 'NONE',  ( -0.000000000000000000, -0.000000000000000000, -1.000000000000000000 ) ) ;
#353 = ORGANIZATION ( '未指定', '未指定', '' ) ;
#354 = FACE_OUTER_BOUND ( 'NONE', #114, .T. ) ;
#355 = DIRECTION ( 'NONE',  ( 0.000000000000000000, 0.000000000000000000, 1.000000000000000000 ) ) ;
#356 = AXIS2_PLACEMENT_3D ( 'NONE', #260, #856, #711 ) ;
#357 = VECTOR ( 'NONE', #471, 999.9999999999998863 ) ;
#358 = CARTESIAN_POINT ( 'NONE',  ( -12.49999999999998757, -4.133182947122316772E-15, 15.00000000000000000 ) ) ;
#359 = ADVANCED_FACE ( 'NONE', ( #524 ), #586, .F. ) ;
#360 = CARTESIAN_POINT ( 'NONE',  ( -38.99999999999999289, -7.500000000000000000, 15.00000000000000000 ) ) ;
#361 = PLANE ( 'NONE',  #382 ) ;
#362 = CARTESIAN_POINT ( 'NONE',  ( 38.00000000000000000, 4.133182947122316772E-15, 15.00000000000000000 ) ) ;
#363 = DIRECTION ( 'NONE',  ( 0.000000000000000000, 0.000000000000000000, -1.000000000000000000 ) ) ;
#364 = DIRECTION ( 'NONE',  ( 1.000000000000000000, 0.000000000000000000, 0.000000000000000000 ) ) ;
#365 = PERSON_AND_ORGANIZATION ( #220, #353 ) ;
#366 = AXIS2_PLACEMENT_3D ( 'NONE', #126, #950, #562 ) ;
#367 = EDGE_CURVE ( 'NONE', #177, #174, #480, .T. ) ;
#368 = CIRCLE ( 'NONE', #95, 3.299999999999997158 ) ;
#369 = VECTOR ( 'NONE', #383, 1000.000000000000000 ) ;
#370 = DIRECTION ( 'NONE',  ( 0.000000000000000000, 0.000000000000000000, 1.000000000000000000 ) ) ;
#371 = CARTESIAN_POINT ( 'NONE',  ( 39.00000000000000711, 7.500000000000000000, 15.00000000000000000 ) ) ;
#372 = VERTEX_POINT ( 'NONE', #301 ) ;
#373 = DIRECTION ( 'NONE',  ( 0.000000000000000000, 0.000000000000000000, -1.000000000000000000 ) ) ;
#374 = CARTESIAN_POINT ( 'NONE',  ( 38.99999999999999289, -7.500000000000000000, 0.000000000000000000 ) ) ;
#375 = ORIENTED_EDGE ( 'NONE', *, *, #158, .T. ) ;
#376 = PERSON_AND_ORGANIZATION_ROLE ( 'creator' ) ;
#377 = LINE ( 'NONE', #745, #129 ) ;
#378 = LINE ( 'NONE', #459, #357 ) ;
#379 = CARTESIAN_POINT ( 'NONE',  ( -39.99999999999999289, -6.499999999999984901, 15.00000000000000000 ) ) ;
#380 = ORIENTED_EDGE ( 'NONE', *, *, #242, .T. ) ;
#381 = LINE ( 'NONE', #677, #937 ) ;
#382 = AXIS2_PLACEMENT_3D ( 'NONE', #438, #219, #363 ) ;
#383 = DIRECTION ( 'NONE',  ( -0.000000000000000000, -0.000000000000000000, 1.000000000000000000 ) ) ;
#384 = AXIS2_PLACEMENT_3D ( 'NONE', #603, #168, #757 ) ;
#385 = DIRECTION ( 'NONE',  ( -0.000000000000000000, -0.000000000000000000, 1.000000000000000000 ) ) ;
#386 = VERTEX_POINT ( 'NONE', #445 ) ;
#387 = CARTESIAN_POINT ( 'NONE',  ( -39.99999999999999289, 7.500000000000000000, 15.00000000000000000 ) ) ;
#388 = LINE ( 'NONE', #28, #278 ) ;
#389 = ORIENTED_EDGE ( 'NONE', *, *, #921, .F. ) ;
#390 = ORIENTED_EDGE ( 'NONE', *, *, #709, .T. ) ;
#391 = ORIENTED_EDGE ( 'NONE', *, *, #311, .F. ) ;
#392 = DIRECTION ( 'NONE',  ( 1.000000000000000000, 0.000000000000000000, 0.000000000000000000 ) ) ;
#393 = DIRECTION ( 'NONE',  ( 0.000000000000000000, 0.000000000000000000, -1.000000000000000000 ) ) ;
#394 = ORIENTED_EDGE ( 'NONE', *, *, #799, .F. ) ;
#395 = ORIENTED_EDGE ( 'NONE', *, *, #289, .F. ) ;
#396 = EDGE_LOOP ( 'NONE', ( #264, #923, #619, #32 ) ) ;
#397 = ADVANCED_FACE ( 'NONE', ( #580 ), #214, .F. ) ;
#398 = AXIS2_PLACEMENT_3D ( 'NONE', #787, #574, #420 ) ;
#399 = DIRECTION ( 'NONE',  ( 1.000000000000000000, 0.000000000000000000, 0.000000000000000000 ) ) ;
#400 = ORIENTED_EDGE ( 'NONE', *, *, #953, .F. ) ;
#401 = VECTOR ( 'NONE', #796, 1000.000000000000000 ) ;
#402 = ORIENTED_EDGE ( 'NONE', *, *, #540, .T. ) ;
#403 = ORIENTED_EDGE ( 'NONE', *, *, #122, .T. ) ;
#404 = PRODUCT_DEFINITION_SHAPE ( 'NONE', 'NONE',  #760 ) ;
#405 = EDGE_CURVE ( 'NONE', #372, #263, #39, .T. ) ;
#406 = CARTESIAN_POINT ( 'NONE',  ( -29.99999999999999645, 0.000000000000000000, 0.000000000000000000 ) ) ;
#407 = ORIENTED_EDGE ( 'NONE', *, *, #70, .F. ) ;
#408 = ORIENTED_EDGE ( 'NONE', *, *, #345, .T. ) ;
#409 = LINE ( 'NONE', #706, #831 ) ;
#410 = FACE_OUTER_BOUND ( 'NONE', #321, .T. ) ;
#411 = VERTEX_POINT ( 'NONE', #894 ) ;
#412 = EDGE_CURVE ( 'NONE', #779, #813, #814, .T. ) ;
#413 = VERTEX_POINT ( 'NONE', #379 ) ;
#414 = DIRECTION ( 'NONE',  ( -0.000000000000000000, -0.000000000000000000, 1.000000000000000000 ) ) ;
#415 = AXIS2_PLACEMENT_3D ( 'NONE', #874, #655, #6 ) ;
#416 = ADVANCED_FACE ( 'NONE', ( #516 ), #808, .F. ) ;
#417 = CARTESIAN_POINT ( 'NONE',  ( -39.99999999999999289, -7.500000000000000000, 0.000000000000000000 ) ) ;
#418 = VECTOR ( 'NONE', #228, 1000.000000000000000 ) ;
#419 = CARTESIAN_POINT ( 'NONE',  ( 32.50000000000000000, 3.300000000000002487, 0.000000000000000000 ) ) ;
#420 = DIRECTION ( 'NONE',  ( 1.000000000000000000, 0.000000000000000000, -0.000000000000000000 ) ) ;
#421 = DIRECTION ( 'NONE',  ( 1.000000000000000000, 0.000000000000000000, 0.000000000000000000 ) ) ;
#422 = DIRECTION ( 'NONE',  ( 0.7071067811865451302, -0.7071067811865500152, 0.000000000000000000 ) ) ;
#423 = EDGE_CURVE ( 'NONE', #263, #821, #202, .T. ) ;
#424 = LINE ( 'NONE', #72, #696 ) ;
#425 = AXIS2_PLACEMENT_3D ( 'NONE', #110, #523, #300 ) ;
#426 = CARTESIAN_POINT ( 'NONE',  ( -39.99999999999999289, -7.500000000000000000, 15.00000000000000000 ) ) ;
#427 = CALENDAR_DATE ( 2026, 24, 4 ) ;
#428 = VECTOR ( 'NONE', #938, 1000.000000000000114 ) ;
#429 = AXIS2_PLACEMENT_3D ( 'NONE', #135, #507, #517 ) ;
#430 = DIRECTION ( 'NONE',  ( -1.000000000000000000, 0.000000000000000000, 0.000000000000000000 ) ) ;
#431 = EDGE_CURVE ( 'NONE', #257, #386, #560, .T. ) ;
#432 = CARTESIAN_POINT ( 'NONE',  ( -33.99999999999999289, 4.898587196589410857E-16, 13.00000000000000000 ) ) ;
#433 = DIRECTION ( 'NONE',  ( 1.000000000000000000, 0.000000000000000000, 0.000000000000000000 ) ) ;
#434 = DIRECTION ( 'NONE',  ( -0.000000000000000000, -0.000000000000000000, 1.000000000000000000 ) ) ;
#435 = CARTESIAN_POINT ( 'NONE',  ( 32.50000000000000000, 4.133182947122316772E-15, 15.00000000000000000 ) ) ;
#436 = ADVANCED_FACE ( 'NONE', ( #335 ), #782, .F. ) ;
#437 = CARTESIAN_POINT ( 'NONE',  ( -39.99999999999999289, 6.499999999999999112, 0.000000000000000000 ) ) ;
#438 = CARTESIAN_POINT ( 'NONE',  ( -38.99999999999999289, -7.500000000000000000, 15.00000000000000000 ) ) ;
#439 = CARTESIAN_POINT ( 'NONE',  ( -12.49999999999999112, 5.499999999999993783, 15.00000000000000000 ) ) ;
#440 = COORDINATED_UNIVERSAL_TIME_OFFSET ( 8, 0, .AHEAD. ) ;
#441 = EDGE_CURVE ( 'NONE', #611, #162, #64, .T. ) ;
#442 = VECTOR ( 'NONE', #564, 1000.000000000000000 ) ;
#443 = VECTOR ( 'NONE', #818, 1000.000000000000000 ) ;
#444 = CARTESIAN_POINT ( 'NONE',  ( -29.99999999999999645, 0.000000000000000000, 13.00000000000000000 ) ) ;
#445 = CARTESIAN_POINT ( 'NONE',  ( -39.99999999999999289, 6.499999999999999112, 15.00000000000000000 ) ) ;
#446 = ORIENTED_EDGE ( 'NONE', *, *, #664, .T. ) ;
#447 = DATE_AND_TIME ( #457, #492 ) ;
#448 = CYLINDRICAL_SURFACE ( 'NONE', #537, 5.499999999999998224 ) ;
#449 = DIRECTION ( 'NONE',  ( -1.000000000000000000, 0.000000000000000000, -0.000000000000000000 ) ) ;
#450 = DIRECTION ( 'NONE',  ( 1.000000000000000000, 0.000000000000000000, 0.000000000000000000 ) ) ;
#451 = EDGE_LOOP ( 'NONE', ( #767, #194, #687, #686 ) ) ;
#452 = DIRECTION ( 'NONE',  ( 0.000000000000000000, 0.000000000000000000, 1.000000000000000000 ) ) ;
#453 = EDGE_CURVE ( 'NONE', #698, #48, #245, .T. ) ;
#454 = DIRECTION ( 'NONE',  ( -0.000000000000000000, -0.000000000000000000, 1.000000000000000000 ) ) ;
#455 = PLANE ( 'NONE',  #581 ) ;
#456 = ORIENTED_EDGE ( 'NONE', *, *, #102, .T. ) ;
#457 = CALENDAR_DATE ( 2026, 24, 4 ) ;
#458 = AXIS2_PLACEMENT_3D ( 'NONE', #73, #727, #666 ) ;
#459 = CARTESIAN_POINT ( 'NONE',  ( 39.00000000000000711, 7.500000000000000000, 15.00000000000000000 ) ) ;
#460 = FACE_OUTER_BOUND ( 'NONE', #741, .T. ) ;
#461 = ORIENTED_EDGE ( 'NONE', *, *, #311, .T. ) ;
#462 = PERSON_AND_ORGANIZATION ( #220, #353 ) ;
#463 = ORIENTED_EDGE ( 'NONE', *, *, #242, .F. ) ;
#464 = EDGE_LOOP ( 'NONE', ( #889, #546, #759, #249 ) ) ;
#465 = PLANE ( 'NONE',  #201 ) ;
#466 = CARTESIAN_POINT ( 'NONE',  ( 38.00000000000000000, 4.133182947122316772E-15, 8.199999999999999289 ) ) ;
#467 = VERTEX_POINT ( 'NONE', #790 ) ;
#468 = ORIENTED_EDGE ( 'NONE', *, *, #74, .T. ) ;
#469 = EDGE_CURVE ( 'NONE', #241, #861, #644, .T. ) ;
#470 = VERTEX_POINT ( 'NONE', #272 ) ;
#471 = DIRECTION ( 'NONE',  ( -0.7071067811865425767, 0.7071067811865525687, -0.000000000000000000 ) ) ;
#472 = FACE_OUTER_BOUND ( 'NONE', #547, .T. ) ;
#473 = EDGE_LOOP ( 'NONE', ( #407, #913, #103, #446 ) ) ;
#474 = ORIENTED_EDGE ( 'NONE', *, *, #941, .F. ) ;
#475 = ORIENTED_EDGE ( 'NONE', *, *, #122, .F. ) ;
#476 = ADVANCED_FACE ( 'NONE', ( #491 ), #777, .F. ) ;
#477 = APPROVAL_PERSON_ORGANIZATION ( #365, #653, #67 ) ;
#478 = EDGE_CURVE ( 'NONE', #748, #296, #621, .T. ) ;
#479 = DIRECTION ( 'NONE',  ( 1.000000000000000000, 1.836970198721030181E-16, -0.000000000000000000 ) ) ;
#480 = CIRCLE ( 'NONE', #458, 5.499999999999998224 ) ;
#481 = ORIENTED_EDGE ( 'NONE', *, *, #642, .F. ) ;
#482 = LOCAL_TIME ( 15, 5, 27.00000000000000000, #652 ) ;
#483 = VERTEX_POINT ( 'NONE', #863 ) ;
#484 = ORIENTED_EDGE ( 'NONE', *, *, #726, .F. ) ;
#485 = DIRECTION ( 'NONE',  ( 0.000000000000000000, -0.000000000000000000, 1.000000000000000000 ) ) ;
#486 = EDGE_LOOP ( 'NONE', ( #332, #94, #602, #487 ) ) ;
#487 = ORIENTED_EDGE ( 'NONE', *, *, #703, .F. ) ;
#488 = CARTESIAN_POINT ( 'NONE',  ( -29.99999999999999645, 0.000000000000000000, 5.700000000000000178 ) ) ;
#489 = CC_DESIGN_PERSON_AND_ORGANIZATION_ASSIGNMENT ( #224, #606, ( #62 ) ) ;
#490 = FACE_BOUND ( 'NONE', #329, .T. ) ;
#491 = FACE_OUTER_BOUND ( 'NONE', #699, .T. ) ;
#492 = LOCAL_TIME ( 15, 5, 27.00000000000000000, #440 ) ;
#493 = AXIS2_PLACEMENT_3D ( 'NONE', #498, #422, #842 ) ;
#494 = VECTOR ( 'NONE', #288, 1000.000000000000000 ) ;
#495 = DIRECTION ( 'NONE',  ( 0.000000000000000000, 0.000000000000000000, -1.000000000000000000 ) ) ;
#496 = AXIS2_PLACEMENT_3D ( 'NONE', #505, #151, #585 ) ;
#497 = DIRECTION ( 'NONE',  ( -1.000000000000000000, 0.000000000000000000, 0.000000000000000000 ) ) ;
#498 = CARTESIAN_POINT ( 'NONE',  ( -39.99999999999999289, 6.499999999999999112, 15.00000000000000000 ) ) ;
#499 = PLANE ( 'NONE',  #429 ) ;
#500 = EDGE_CURVE ( 'NONE', #932, #620, #41, .T. ) ;
#501 = CARTESIAN_POINT ( 'NONE',  ( -29.99999999999999645, 0.000000000000000000, 13.00000000000000000 ) ) ;
#502 = LINE ( 'NONE', #417, #656 ) ;
#503 = CARTESIAN_POINT ( 'NONE',  ( -12.49999999999998757, -4.133182947122316772E-15, 15.00000000000000000 ) ) ;
#504 = EDGE_CURVE ( 'NONE', #259, #633, #789, .T. ) ;
#505 = CARTESIAN_POINT ( 'NONE',  ( 32.50000000000000000, 4.133182947122316772E-15, 15.00000000000000000 ) ) ;
#506 = LINE ( 'NONE', #362, #854 ) ;
#507 = DIRECTION ( 'NONE',  ( -1.836970198721030181E-16, 1.000000000000000000, 0.000000000000000000 ) ) ;
#508 = AXIS2_PLACEMENT_3D ( 'NONE', #121, #714, #399 ) ;
#509 = CIRCLE ( 'NONE', #15, 4.000000000000000000 ) ;
#510 = UNCERTAINTY_MEASURE_WITH_UNIT (LENGTH_MEASURE( 1.000000000000000082E-05 ), #351, 'distance_accuracy_value', 'NONE');
#511 = CARTESIAN_POINT ( 'NONE',  ( -38.99999999999998579, 7.500000000000000000, 0.000000000000000000 ) ) ;
#512 = ADVANCED_FACE ( 'NONE', ( #697 ), #925, .F. ) ;
#513 = CARTESIAN_POINT ( 'NONE',  ( 40.00000000000000711, -7.500000000000000000, 15.00000000000000000 ) ) ;
#514 = FACE_OUTER_BOUND ( 'NONE', #627, .T. ) ;
#515 = APPROVAL ( #30, '未指定' ) ;
#516 = FACE_OUTER_BOUND ( 'NONE', #46, .T. ) ;
#517 = DIRECTION ( 'NONE',  ( -1.000000000000000000, -1.836970198721030181E-16, 0.000000000000000000 ) ) ;
#518 = DIRECTION ( 'NONE',  ( 1.000000000000000000, 1.836970198721030181E-16, -0.000000000000000000 ) ) ;
#519 = CARTESIAN_POINT ( 'NONE',  ( -34.99999999999999289, 0.000000000000000000, 0.000000000000000000 ) ) ;
#520 = ORIENTED_EDGE ( 'NONE', *, *, #910, .F. ) ;
#521 = VECTOR ( 'NONE', #92, 1000.000000000000000 ) ;
#522 = DIRECTION ( 'NONE',  ( 1.000000000000000000, 0.000000000000000000, 0.000000000000000000 ) ) ;
#523 = DIRECTION ( 'NONE',  ( -0.000000000000000000, -0.000000000000000000, -1.000000000000000000 ) ) ;
#524 = FACE_OUTER_BOUND ( 'NONE', #673, .T. ) ;
#525 = ORIENTED_EDGE ( 'NONE', *, *, #957, .T. ) ;
#526 = ORIENTED_EDGE ( 'NONE', *, *, #478, .T. ) ;
#527 = EDGE_CURVE ( 'NONE', #263, #861, #549, .T. ) ;
#528 = FACE_OUTER_BOUND ( 'NONE', #115, .T. ) ;
#529 = CARTESIAN_POINT ( 'NONE',  ( -29.99999999999999645, 0.000000000000000000, 5.700000000000000178 ) ) ;
#530 = DIRECTION ( 'NONE',  ( 0.000000000000000000, 0.000000000000000000, -1.000000000000000000 ) ) ;
#531 = ORIENTED_EDGE ( 'NONE', *, *, #230, .F. ) ;
#532 = DIRECTION ( 'NONE',  ( -0.000000000000000000, -0.000000000000000000, 1.000000000000000000 ) ) ;
#533 = CARTESIAN_POINT ( 'NONE',  ( 40.00000000000000711, -6.499999999999999112, 15.00000000000000000 ) ) ;
#534 = ORIENTED_EDGE ( 'NONE', *, *, #774, .T. ) ;
#535 = ORIENTED_EDGE ( 'NONE', *, *, #84, .F. ) ;
#536 = AXIS2_PLACEMENT_3D ( 'NONE', #867, #631, #707 ) ;
#537 = AXIS2_PLACEMENT_3D ( 'NONE', #89, #739, #522 ) ;
#538 = CARTESIAN_POINT ( 'NONE',  ( 40.00000000000000711, 6.499999999999984901, 15.00000000000000000 ) ) ;
#539 = PLANE ( 'NONE',  #834 ) ;
#540 = EDGE_CURVE ( 'NONE', #821, #896, #141, .T. ) ;
#541 = VERTEX_POINT ( 'NONE', #419 ) ;
#542 = ORIENTED_EDGE ( 'NONE', *, *, #469, .F. ) ;
#543 = ORIENTED_EDGE ( 'NONE', *, *, #132, .T. ) ;
#544 = DIRECTION ( 'NONE',  ( 1.000000000000000000, 0.000000000000000000, 0.000000000000000000 ) ) ;
#545 = PLANE ( 'NONE',  #735 ) ;
#546 = ORIENTED_EDGE ( 'NONE', *, *, #412, .T. ) ;
#547 = EDGE_LOOP ( 'NONE', ( #780, #47, #902, #82, #475, #240, #704, #909 ) ) ;
#548 = EDGE_LOOP ( 'NONE', ( #484, #594, #931, #333, #753 ) ) ;
#549 = LINE ( 'NONE', #49, #775 ) ;
#550 = ORIENTED_EDGE ( 'NONE', *, *, #738, .T. ) ;
#551 = ORIENTED_EDGE ( 'NONE', *, *, #170, .T. ) ;
#552 = EDGE_LOOP ( 'NONE', ( #326, #167, #7, #408 ) ) ;
#553 = CIRCLE ( 'NONE', #496, 5.499999999999998224 ) ;
#554 = CARTESIAN_POINT ( 'NONE',  ( -12.49999999999999112, -3.300000000000002043, 15.00000000000000000 ) ) ;
#555 = AXIS2_PLACEMENT_3D ( 'NONE', #406, #196, #497 ) ;
#556 = ORIENTED_EDGE ( 'NONE', *, *, #703, .T. ) ;
#557 = AXIS2_PLACEMENT_3D ( 'NONE', #721, #660, #291 ) ;
#558 = ORIENTED_EDGE ( 'NONE', *, *, #540, .F. ) ;
#559 = ADVANCED_FACE ( 'NONE', ( #410 ), #193, .F. ) ;
#560 = LINE ( 'NONE', #185, #428 ) ;
#561 = ORIENTED_EDGE ( 'NONE', *, *, #412, .F. ) ;
#562 = DIRECTION ( 'NONE',  ( -1.000000000000000000, 0.000000000000000000, 0.000000000000000000 ) ) ;
#563 = ADVANCED_FACE ( 'NONE', ( #942 ), #340, .F. ) ;
#564 = DIRECTION ( 'NONE',  ( 1.000000000000000000, 0.000000000000000000, 0.000000000000000000 ) ) ;
#565 = CARTESIAN_POINT ( 'NONE',  ( -12.49999999999999112, 5.499999999999993783, 8.199999999999999289 ) ) ;
#566 = DIRECTION ( 'NONE',  ( 1.836970198721030181E-16, -1.000000000000000000, -0.000000000000000000 ) ) ;
#567 = CC_DESIGN_APPROVAL ( #515, ( #62 ) ) ;
#568 = ADVANCED_FACE ( 'NONE', ( #55, #944 ), #216, .F. ) ;
#569 = AXIS2_PLACEMENT_3D ( 'NONE', #888, #81, #364 ) ;
#570 = LINE ( 'NONE', #871, #63 ) ;
#571 = VECTOR ( 'NONE', #719, 999.9999999999998863 ) ;
#572 = CARTESIAN_POINT ( 'NONE',  ( -32.74999999999999289, 0.000000000000000000, 0.000000000000000000 ) ) ;
#573 = EDGE_CURVE ( 'NONE', #896, #541, #368, .T. ) ;
#574 = DIRECTION ( 'NONE',  ( 0.000000000000000000, 0.000000000000000000, 1.000000000000000000 ) ) ;
#575 = CARTESIAN_POINT ( 'NONE',  ( -32.74999999999999289, 0.000000000000000000, 5.700000000000000178 ) ) ;
#576 = DIRECTION ( 'NONE',  ( 0.000000000000000000, 0.000000000000000000, -1.000000000000000000 ) ) ;
#577 = PERSON_AND_ORGANIZATION ( #220, #353 ) ;
#578 = ADVANCED_FACE ( 'NONE', ( #60 ), #361, .F. ) ;
#579 = CARTESIAN_POINT ( 'NONE',  ( -12.49999999999999112, -5.500000000000002665, 8.199999999999999289 ) ) ;
#580 = FACE_OUTER_BOUND ( 'NONE', #396, .T. ) ;
#581 = AXIS2_PLACEMENT_3D ( 'NONE', #601, #244, #318 ) ;
#582 = DIRECTION ( 'NONE',  ( -1.000000000000000000, 0.000000000000000000, 0.000000000000000000 ) ) ;
#583 = CIRCLE ( 'NONE', #712, 2.749999999999999112 ) ;
#584 = EDGE_CURVE ( 'NONE', #813, #698, #147, .T. ) ;
#585 = DIRECTION ( 'NONE',  ( 1.000000000000000000, 0.000000000000000000, 0.000000000000000000 ) ) ;
#586 = PLANE ( 'NONE',  #613 ) ;
#587 = APPROVAL_DATE_TIME ( #285, #653 ) ;
#588 = CARTESIAN_POINT ( 'NONE',  ( 32.50000000000000000, 4.133182947122316772E-15, 15.00000000000000000 ) ) ;
#589 = DIRECTION ( 'NONE',  ( 1.000000000000000000, 1.836970198721030181E-16, -0.000000000000000000 ) ) ;
#590 = EDGE_LOOP ( 'NONE', ( #87, #481 ) ) ;
#591 = DIRECTION ( 'NONE',  ( 1.000000000000000000, 0.000000000000000000, 0.000000000000000000 ) ) ;
#592 = CARTESIAN_POINT ( 'NONE',  ( 32.50000000000000000, -3.299999999999993161, 0.000000000000000000 ) ) ;
#593 = DIRECTION ( 'NONE',  ( 1.000000000000000000, 0.000000000000000000, 0.000000000000000000 ) ) ;
#594 = ORIENTED_EDGE ( 'NONE', *, *, #102, .F. ) ;
#595 = EDGE_CURVE ( 'NONE', #839, #177, #648, .T. ) ;
#596 = PERSON_AND_ORGANIZATION ( #220, #353 ) ;
#597 = VECTOR ( 'NONE', #518, 1000.000000000000000 ) ;
#598 = VECTOR ( 'NONE', #392, 1000.000000000000000 ) ;
#599 = CARTESIAN_POINT ( 'NONE',  ( -38.99999999999999289, -7.500000000000000000, 15.00000000000000000 ) ) ;
#600 = CARTESIAN_POINT ( 'NONE',  ( 32.50000000000000000, 4.133182947122316772E-15, 8.199999999999999289 ) ) ;
#601 = CARTESIAN_POINT ( 'NONE',  ( 40.00000000000000711, -6.499999999999999112, 15.00000000000000000 ) ) ;
#602 = ORIENTED_EDGE ( 'NONE', *, *, #500, .F. ) ;
#603 = CARTESIAN_POINT ( 'NONE',  ( -12.49999999999998757, -4.133182947122316772E-15, 15.00000000000000000 ) ) ;
#604 = DIRECTION ( 'NONE',  ( -1.000000000000000000, 0.000000000000000000, -0.000000000000000000 ) ) ;
#605 = ORIENTED_EDGE ( 'NONE', *, *, #144, .F. ) ;
#606 = PERSON_AND_ORGANIZATION_ROLE ( 'design_supplier' ) ;
#607 = ADVANCED_FACE ( 'NONE', ( #514 ), #870, .F. ) ;
#608 = CARTESIAN_POINT ( 'NONE',  ( -12.49999999999998579, -5.500000000000002665, 15.00000000000000000 ) ) ;
#609 = LINE ( 'NONE', #769, #630 ) ;
#610 = ORIENTED_EDGE ( 'NONE', *, *, #199, .T. ) ;
#611 = VERTEX_POINT ( 'NONE', #878 ) ;
#612 = EDGE_LOOP ( 'NONE', ( #474, #830, #394, #118 ) ) ;
#613 = AXIS2_PLACEMENT_3D ( 'NONE', #371, #812, #884 ) ;
#614 = EDGE_CURVE ( 'NONE', #320, #107, #725, .T. ) ;
#615 = VECTOR ( 'NONE', #650, 1000.000000000000000 ) ;
#616 = CARTESIAN_POINT ( 'NONE',  ( 40.00000000000000711, 6.499999999999984901, 0.000000000000000000 ) ) ;
#617 = LINE ( 'NONE', #99, #54 ) ;
#618 = EDGE_LOOP ( 'NONE', ( #310, #685, #622, #700 ) ) ;
#619 = ORIENTED_EDGE ( 'NONE', *, *, #738, .F. ) ;
#620 = VERTEX_POINT ( 'NONE', #511 ) ;
#621 = LINE ( 'NONE', #130, #442 ) ;
#622 = ORIENTED_EDGE ( 'NONE', *, *, #441, .T. ) ;
#623 = ORIENTED_EDGE ( 'NONE', *, *, #441, .F. ) ;
#624 = ORIENTED_EDGE ( 'NONE', *, *, #887, .F. ) ;
#625 = CARTESIAN_POINT ( 'NONE',  ( 32.50000000000000000, 4.133182947122316772E-15, 8.199999999999999289 ) ) ;
#626 = ORIENTED_EDGE ( 'NONE', *, *, #299, .T. ) ;
#627 = EDGE_LOOP ( 'NONE', ( #551, #50, #610, #461 ) ) ;
#628 = EDGE_CURVE ( 'NONE', #320, #52, #952, .T. ) ;
#629 = ORIENTED_EDGE ( 'NONE', *, *, #33, .T. ) ;
#630 = VECTOR ( 'NONE', #901, 1000.000000000000000 ) ;
#631 = DIRECTION ( 'NONE',  ( -0.000000000000000000, -0.000000000000000000, -1.000000000000000000 ) ) ;
#632 = VECTOR ( 'NONE', #352, 1000.000000000000000 ) ;
#633 = VERTEX_POINT ( 'NONE', #133 ) ;
#634 = AXIS2_PLACEMENT_3D ( 'NONE', #444, #83, #663 ) ;
#635 = DIRECTION ( 'NONE',  ( -0.000000000000000000, -0.000000000000000000, -1.000000000000000000 ) ) ;
#636 = DIRECTION ( 'NONE',  ( 0.000000000000000000, 1.000000000000000000, 0.000000000000000000 ) ) ;
#637 = DIRECTION ( 'NONE',  ( 0.7071067811865525687, 0.7071067811865425767, -0.000000000000000000 ) ) ;
#638 = ADVANCED_FACE ( 'NONE', ( #804 ), #75, .F. ) ;
#639 = DIRECTION ( 'NONE',  ( -1.000000000000000000, 0.000000000000000000, 0.000000000000000000 ) ) ;
#640 = LINE ( 'NONE', #945, #915 ) ;
#641 = CARTESIAN_POINT ( 'NONE',  ( -12.49999999999999112, 5.499999999999993783, 15.00000000000000000 ) ) ;
#642 = EDGE_CURVE ( 'NONE', #48, #698, #583, .T. ) ;
#643 = CIRCLE ( 'NONE', #366, 5.000000000000000888 ) ;
#644 = CIRCLE ( 'NONE', #508, 3.299999999999998934 ) ;
#645 = CARTESIAN_POINT ( 'NONE',  ( -25.99999999999999645, 0.000000000000000000, 13.00000000000000000 ) ) ;
#646 = CIRCLE ( 'NONE', #851, 3.299999999999997158 ) ;
#647 = FACE_OUTER_BOUND ( 'NONE', #464, .T. ) ;
#648 = LINE ( 'NONE', #579, #597 ) ;
#649 = DIRECTION ( 'NONE',  ( 1.000000000000000000, 0.000000000000000000, 0.000000000000000000 ) ) ;
#650 = DIRECTION ( 'NONE',  ( 0.000000000000000000, 0.000000000000000000, -1.000000000000000000 ) ) ;
#651 = DIRECTION ( 'NONE',  ( 0.000000000000000000, 0.000000000000000000, 1.000000000000000000 ) ) ;
#652 = COORDINATED_UNIVERSAL_TIME_OFFSET ( 8, 0, .AHEAD. ) ;
#653 = APPROVAL ( #4, '未指定' ) ;
#654 = CARTESIAN_POINT ( 'NONE',  ( -39.99999999999999289, 6.499999999999999112, 15.00000000000000000 ) ) ;
#655 = DIRECTION ( 'NONE',  ( -0.000000000000000000, -0.000000000000000000, -1.000000000000000000 ) ) ;
#656 = VECTOR ( 'NONE', #56, 1000.000000000000000 ) ;
#657 = AXIS2_PLACEMENT_3D ( 'NONE', #794, #125, #274 ) ;
#658 = CARTESIAN_POINT ( 'NONE',  ( -39.99999999999999289, 7.500000000000000000, 0.000000000000000000 ) ) ;
#659 = AXIS2_PLACEMENT_3D ( 'NONE', #23, #841, #911 ) ;
#660 = DIRECTION ( 'NONE',  ( -0.000000000000000000, -0.000000000000000000, 1.000000000000000000 ) ) ;
#661 = CARTESIAN_POINT ( 'NONE',  ( -39.99999999999999289, -7.500000000000000000, 15.00000000000000000 ) ) ;
#662 = ORIENTED_EDGE ( 'NONE', *, *, #852, .T. ) ;
#663 = DIRECTION ( 'NONE',  ( 1.000000000000000000, 0.000000000000000000, 0.000000000000000000 ) ) ;
#664 = EDGE_CURVE ( 'NONE', #917, #858, #424, .T. ) ;
#665 = FACE_OUTER_BOUND ( 'NONE', #339, .T. ) ;
#666 = DIRECTION ( 'NONE',  ( 1.000000000000000000, 0.000000000000000000, 0.000000000000000000 ) ) ;
#667 = ORIENTED_EDGE ( 'NONE', *, *, #423, .T. ) ;
#668 = COORDINATED_UNIVERSAL_TIME_OFFSET ( 8, 0, .AHEAD. ) ;
#669 = CARTESIAN_POINT ( 'NONE',  ( 38.99999999999999289, -7.500000000000000000, 15.00000000000000000 ) ) ;
#670 = CC_DESIGN_DATE_AND_TIME_ASSIGNMENT ( #447, #236, ( #934 ) ) ;
#671 = DIRECTION ( 'NONE',  ( -1.000000000000000000, 0.000000000000000000, 0.000000000000000000 ) ) ;
#672 = CYLINDRICAL_SURFACE ( 'NONE', #415, 2.749999999999999112 ) ;
#673 = EDGE_LOOP ( 'NONE', ( #833, #939, #389, #37 ) ) ;
#674 = VECTOR ( 'NONE', #495, 1000.000000000000000 ) ;
#675 = AXIS2_PLACEMENT_3D ( 'NONE', #198, #636, #485 ) ;
#676 = AXIS2_PLACEMENT_3D ( 'NONE', #501, #959, #797 ) ;
#677 = CARTESIAN_POINT ( 'NONE',  ( -38.99999999999998579, 7.500000000000000000, 15.00000000000000000 ) ) ;
#678 = FACE_OUTER_BOUND ( 'NONE', #693, .T. ) ;
#679 = FACE_BOUND ( 'NONE', #229, .T. ) ;
#680 = ORIENTED_EDGE ( 'NONE', *, *, #953, .T. ) ;
#681 = PERSON_AND_ORGANIZATION ( #220, #353 ) ;
#682 = EDGE_CURVE ( 'NONE', #256, #411, #509, .T. ) ;
#683 = CARTESIAN_POINT ( 'NONE',  ( 32.50000000000000000, 5.500000000000002665, 8.199999999999999289 ) ) ;
#684 = CARTESIAN_POINT ( 'NONE',  ( -12.49999999999999112, 3.299999999999995381, 8.199999999999999289 ) ) ;
#685 = ORIENTED_EDGE ( 'NONE', *, *, #84, .T. ) ;
#686 = ORIENTED_EDGE ( 'NONE', *, *, #199, .F. ) ;
#687 = ORIENTED_EDGE ( 'NONE', *, *, #405, .F. ) ;
#688 = CC_DESIGN_DATE_AND_TIME_ASSIGNMENT ( #815, #157, ( #760 ) ) ;
#689 = DIRECTION ( 'NONE',  ( 0.000000000000000000, -1.000000000000000000, 0.000000000000000000 ) ) ;
#690 = CARTESIAN_POINT ( 'NONE',  ( 32.50000000000000000, -3.299999999999994049, 8.199999999999999289 ) ) ;
#691 = ORIENTED_EDGE ( 'NONE', *, *, #20, .F. ) ;
#692 = ORIENTED_EDGE ( 'NONE', *, *, #431, .T. ) ;
#693 = EDGE_LOOP ( 'NONE', ( #605, #543, #525, #253 ) ) ;
#694 = VECTOR ( 'NONE', #61, 1000.000000000000000 ) ;
#695 = AXIS2_PLACEMENT_3D ( 'NONE', #488, #930, #639 ) ;
#696 = VECTOR ( 'NONE', #370, 1000.000000000000000 ) ;
#697 = FACE_OUTER_BOUND ( 'NONE', #826, .T. ) ;
#698 = VERTEX_POINT ( 'NONE', #575 ) ;
#699 = EDGE_LOOP ( 'NONE', ( #184, #106, #44, #468 ) ) ;
#700 = ORIENTED_EDGE ( 'NONE', *, *, #170, .F. ) ;
#701 = PRODUCT ( 'RM-JJ-00083991-01', 'RM-JJ-00083991-01', '', ( #215 ) ) ;
#702 = CARTESIAN_POINT ( 'NONE',  ( -23.24999999999985434, 23.25000000000001421, -0.000000000000000000 ) ) ;
#703 = EDGE_CURVE ( 'NONE', #386, #932, #142, .T. ) ;
#704 = ORIENTED_EDGE ( 'NONE', *, *, #957, .F. ) ;
#705 = EDGE_LOOP ( 'NONE', ( #771, #252 ) ) ;
#706 = CARTESIAN_POINT ( 'NONE',  ( -33.99999999999999289, 4.898587196589411843E-16, 13.00000000000000000 ) ) ;
#707 = DIRECTION ( 'NONE',  ( -1.000000000000000000, 0.000000000000000000, 0.000000000000000000 ) ) ;
#708 = VERTEX_POINT ( 'NONE', #873 ) ;
#709 = EDGE_CURVE ( 'NONE', #708, #107, #553, .T. ) ;
#710 = DIRECTION ( 'NONE',  ( -0.000000000000000000, -0.000000000000000000, 1.000000000000000000 ) ) ;
#711 = DIRECTION ( 'NONE',  ( 1.000000000000000000, 0.000000000000000000, 0.000000000000000000 ) ) ;
#712 = AXIS2_PLACEMENT_3D ( 'NONE', #948, #807, #430 ) ;
#713 = DIRECTION ( 'NONE',  ( -1.000000000000000000, 0.000000000000000000, 0.000000000000000000 ) ) ;
#714 = DIRECTION ( 'NONE',  ( -0.000000000000000000, -0.000000000000000000, 1.000000000000000000 ) ) ;
#715 = CARTESIAN_POINT ( 'NONE',  ( -29.99999999999999645, 0.000000000000000000, 0.000000000000000000 ) ) ;
#716 = EDGE_CURVE ( 'NONE', #343, #100, #140, .T. ) ;
#717 = CARTESIAN_POINT ( 'NONE',  ( 32.50000000000000000, 4.133182947122316772E-15, 0.000000000000000000 ) ) ;
#718 = DIRECTION ( 'NONE',  ( 0.000000000000000000, 1.000000000000000000, 0.000000000000000000 ) ) ;
#719 = DIRECTION ( 'NONE',  ( 0.7071067811865425767, -0.7071067811865525687, -0.000000000000000000 ) ) ;
#720 = AXIS2_PLACEMENT_3D ( 'NONE', #803, #355, #433 ) ;
#721 = CARTESIAN_POINT ( 'NONE',  ( 32.50000000000000000, 4.133182947122316772E-15, 15.00000000000000000 ) ) ;
#722 = AXIS2_PLACEMENT_3D ( 'NONE', #117, #785, #346 ) ;
#723 = AXIS2_PLACEMENT_3D ( 'NONE', #529, #10, #671 ) ;
#724 = DIRECTION ( 'NONE',  ( 1.000000000000000000, 0.000000000000000000, 0.000000000000000000 ) ) ;
#725 = LINE ( 'NONE', #641, #344 ) ;
#726 = EDGE_CURVE ( 'NONE', #467, #708, #308, .T. ) ;
#727 = DIRECTION ( 'NONE',  ( -0.000000000000000000, -0.000000000000000000, 1.000000000000000000 ) ) ;
#728 = DIRECTION ( 'NONE',  ( -0.000000000000000000, -0.000000000000000000, 1.000000000000000000 ) ) ;
#729 = DIRECTION ( 'NONE',  ( 1.000000000000000000, 0.000000000000000000, 0.000000000000000000 ) ) ;
#730 = CARTESIAN_POINT ( 'NONE',  ( -12.49999999999998757, -4.133182947122316772E-15, 0.000000000000000000 ) ) ;
#731 = ADVANCED_FACE ( 'NONE', ( #733 ), #5, .F. ) ;
#732 = CARTESIAN_POINT ( 'NONE',  ( -29.99999999999999645, 0.000000000000000000, 0.000000000000000000 ) ) ;
#733 = FACE_OUTER_BOUND ( 'NONE', #922, .T. ) ;
#734 = LINE ( 'NONE', #149, #1 ) ;
#735 = AXIS2_PLACEMENT_3D ( 'NONE', #513, #284, #651 ) ;
#736 = APPROVAL_ROLE ( '' ) ;
#737 = VECTOR ( 'NONE', #323, 1000.000000000000000 ) ;
#738 = EDGE_CURVE ( 'NONE', #467, #177, #891, .T. ) ;
#739 = DIRECTION ( 'NONE',  ( -0.000000000000000000, -0.000000000000000000, 1.000000000000000000 ) ) ;
#740 = CYLINDRICAL_SURFACE ( 'NONE', #569, 3.299999999999997158 ) ;
#741 = EDGE_LOOP ( 'NONE', ( #832, #231, #119, #929 ) ) ;
#742 = APPROVAL_DATE_TIME ( #890, #348 ) ;
#743 = ORIENTED_EDGE ( 'NONE', *, *, #859, .T. ) ;
#744 = EDGE_CURVE ( 'NONE', #620, #257, #381, .T. ) ;
#745 = CARTESIAN_POINT ( 'NONE',  ( -27.24999999999999645, 3.367778697655217560E-16, 0.000000000000000000 ) ) ;
#746 = CARTESIAN_POINT ( 'NONE',  ( -39.99999999999999289, -7.500000000000000000, 15.00000000000000000 ) ) ;
#747 = DIRECTION ( 'NONE',  ( 1.000000000000000000, 0.000000000000000000, 0.000000000000000000 ) ) ;
#748 = VERTEX_POINT ( 'NONE', #153 ) ;
#749 = CARTESIAN_POINT ( 'NONE',  ( -12.49999999999998579, -5.500000000000002665, 15.00000000000000000 ) ) ;
#750 = CARTESIAN_POINT ( 'NONE',  ( -29.99999999999999645, 0.000000000000000000, 15.00000000000000000 ) ) ;
#751 = CARTESIAN_POINT ( 'NONE',  ( 32.50000000000000000, 5.500000000000002665, 15.00000000000000000 ) ) ;
#752 = EDGE_CURVE ( 'NONE', #100, #343, #918, .T. ) ;
#753 = ORIENTED_EDGE ( 'NONE', *, *, #709, .F. ) ;
#754 = SECURITY_CLASSIFICATION_LEVEL ( 'unclassified' ) ;
#755 = MANIFOLD_SOLID_BREP ( 'M6 六角圆柱头螺钉的柱形沉头孔1', #958 ) ;
#756 = AXIS2_PLACEMENT_3D ( 'NONE', #881, #800, #208 ) ;
#757 = DIRECTION ( 'NONE',  ( 1.000000000000000000, 0.000000000000000000, 0.000000000000000000 ) ) ;
#758 = CARTESIAN_POINT ( 'NONE',  ( -33.99999999999999289, 4.898587196589410857E-16, 15.00000000000000000 ) ) ;
#759 = ORIENTED_EDGE ( 'NONE', *, *, #584, .T. ) ;
#760 = PRODUCT_DEFINITION ( '未知', '', #62, #97 ) ;
#761 = ORIENTED_EDGE ( 'NONE', *, *, #904, .T. ) ;
#762 = EDGE_LOOP ( 'NONE', ( #336, #189 ) ) ;
#763 = CYLINDRICAL_SURFACE ( 'NONE', #384, 3.299999999999997158 ) ;
#764 = CARTESIAN_POINT ( 'NONE',  ( 32.50000000000000000, 3.300000000000003375, 8.199999999999999289 ) ) ;
#765 = ORIENTED_EDGE ( 'NONE', *, *, #786, .T. ) ;
#766 = VERTEX_POINT ( 'NONE', #9 ) ;
#767 = ORIENTED_EDGE ( 'NONE', *, *, #469, .T. ) ;
#768 = CARTESIAN_POINT ( 'NONE',  ( -32.74999999999999289, 0.000000000000000000, 13.00000000000000000 ) ) ;
#769 = CARTESIAN_POINT ( 'NONE',  ( 32.50000000000000000, 3.300000000000002487, 15.00000000000000000 ) ) ;
#770 = VERTEX_POINT ( 'NONE', #298 ) ;
#771 = ORIENTED_EDGE ( 'NONE', *, *, #845, .T. ) ;
#772 = ORIENTED_EDGE ( 'NONE', *, *, #584, .F. ) ;
#773 = CIRCLE ( 'NONE', #817, 5.499999999999998224 ) ;
#774 = EDGE_CURVE ( 'NONE', #296, #182, #14, .T. ) ;
#775 = VECTOR ( 'NONE', #414, 1000.000000000000000 ) ;
#776 = VECTOR ( 'NONE', #811, 999.9999999999998863 ) ;
#777 = CYLINDRICAL_SURFACE ( 'NONE', #555, 5.000000000000000888 ) ;
#778 = VERTEX_POINT ( 'NONE', #225 ) ;
#779 = VERTEX_POINT ( 'NONE', #305 ) ;
#780 = ORIENTED_EDGE ( 'NONE', *, *, #237, .F. ) ;
#781 = ADVANCED_FACE ( 'NONE', ( #528 ), #448, .F. ) ;
#782 = CYLINDRICAL_SURFACE ( 'NONE', #722, 4.000000000000000000 ) ;
#783 = ORIENTED_EDGE ( 'NONE', *, *, #504, .F. ) ;
#784 = ORIENTED_EDGE ( 'NONE', *, *, #258, .F. ) ;
#785 = DIRECTION ( 'NONE',  ( -0.000000000000000000, -0.000000000000000000, 1.000000000000000000 ) ) ;
#786 = EDGE_CURVE ( 'NONE', #470, #748, #22, .T. ) ;
#787 = CARTESIAN_POINT ( 'NONE',  ( -29.99999999999999645, 0.000000000000000000, 13.00000000000000000 ) ) ;
#788 = CC_DESIGN_SECURITY_CLASSIFICATION ( #934, ( #62 ) ) ;
#789 = CIRCLE ( 'NONE', #695, 5.000000000000000888 ) ;
#790 = CARTESIAN_POINT ( 'NONE',  ( 32.50000000000000000, -5.499999999999976907, 15.00000000000000000 ) ) ;
#791 = AXIS2_PLACEMENT_3D ( 'NONE', #27, #823, #449 ) ;
#792 = EDGE_CURVE ( 'NONE', #779, #48, #377, .T. ) ;
#793 = LINE ( 'NONE', #426, #853 ) ;
#794 = CARTESIAN_POINT ( 'NONE',  ( -29.99999999999999645, 0.000000000000000000, 13.00000000000000000 ) ) ;
#795 = CARTESIAN_POINT ( 'NONE',  ( 32.50000000000000000, 5.500000000000002665, 15.00000000000000000 ) ) ;
#796 = DIRECTION ( 'NONE',  ( -1.000000000000000000, -0.000000000000000000, -0.000000000000000000 ) ) ;
#797 = DIRECTION ( 'NONE',  ( 1.000000000000000000, 0.000000000000000000, 0.000000000000000000 ) ) ;
#798 = LINE ( 'NONE', #347, #674 ) ;
#799 = EDGE_CURVE ( 'NONE', #748, #924, #232, .T. ) ;
#800 = DIRECTION ( 'NONE',  ( -1.836970198721030181E-16, 1.000000000000000000, 0.000000000000000000 ) ) ;
#801 = AXIS2_PLACEMENT_3D ( 'NONE', #730, #292, #450 ) ;
#802 = CARTESIAN_POINT ( 'NONE',  ( 23.24999999999972644, -23.25000000000005329, -0.000000000000000000 ) ) ;
#803 = CARTESIAN_POINT ( 'NONE',  ( 0.000000000000000000, 0.000000000000000000, 0.000000000000000000 ) ) ;
#804 = FACE_OUTER_BOUND ( 'NONE', #29, .T. ) ;
#805 = LINE ( 'NONE', #155, #494 ) ;
#806 = DIRECTION ( 'NONE',  ( 0.7071067811865425767, -0.7071067811865525687, -0.000000000000000000 ) ) ;
#807 = DIRECTION ( 'NONE',  ( -0.000000000000000000, -0.000000000000000000, -1.000000000000000000 ) ) ;
#808 = CYLINDRICAL_SURFACE ( 'NONE', #657, 4.000000000000000000 ) ;
#809 = EDGE_CURVE ( 'NONE', #839, #908, #164, .T. ) ;
#810 = LINE ( 'NONE', #658, #401 ) ;
#811 = DIRECTION ( 'NONE',  ( -0.7071067811865425767, 0.7071067811865525687, -0.000000000000000000 ) ) ;
#812 = DIRECTION ( 'NONE',  ( -0.7071067811865524577, -0.7071067811865425767, -0.000000000000000000 ) ) ;
#813 = VERTEX_POINT ( 'NONE', #768 ) ;
#814 = CIRCLE ( 'NONE', #190, 2.749999999999999112 ) ;
#815 = DATE_AND_TIME ( #885, #482 ) ;
#816 = ADVANCED_FACE ( 'NONE', ( #165, #828 ), #226, .F. ) ;
#817 = AXIS2_PLACEMENT_3D ( 'NONE', #503, #728, #649 ) ;
#818 = DIRECTION ( 'NONE',  ( 0.000000000000000000, 0.000000000000000000, -1.000000000000000000 ) ) ;
#819 = FACE_BOUND ( 'NONE', #933, .T. ) ;
#820 = DIRECTION ( 'NONE',  ( 1.000000000000000000, 0.000000000000000000, 0.000000000000000000 ) ) ;
#821 = VERTEX_POINT ( 'NONE', #592 ) ;
#822 = CARTESIAN_POINT ( 'NONE',  ( -23.25000000000027001, -23.24999999999994671, -0.000000000000000000 ) ) ;
#823 = DIRECTION ( 'NONE',  ( 0.000000000000000000, 0.000000000000000000, -1.000000000000000000 ) ) ;
#824 = APPLICATION_CONTEXT ( 'configuration controlled 3d designs of mechanical parts and assemblies' ) ;
#825 = FACE_BOUND ( 'NONE', #762, .T. ) ;
#826 = EDGE_LOOP ( 'NONE', ( #304, #108, #338, #222 ) ) ;
#827 = ADVANCED_FACE ( 'NONE', ( #180 ), #763, .F. ) ;
#828 = FACE_OUTER_BOUND ( 'NONE', #848, .T. ) ;
#829 = DIRECTION ( 'NONE',  ( 0.000000000000000000, 0.000000000000000000, -1.000000000000000000 ) ) ;
#830 = ORIENTED_EDGE ( 'NONE', *, *, #158, .F. ) ;
#831 = VECTOR ( 'NONE', #710, 1000.000000000000000 ) ;
#832 = ORIENTED_EDGE ( 'NONE', *, *, #136, .F. ) ;
#833 = ORIENTED_EDGE ( 'NONE', *, *, #852, .F. ) ;
#834 = AXIS2_PLACEMENT_3D ( 'NONE', #35, #829, #604 ) ;
#835 = CARTESIAN_POINT ( 'NONE',  ( -12.49999999999999112, -3.300000000000002043, 8.199999999999999289 ) ) ;
#836 = CARTESIAN_POINT ( 'NONE',  ( -38.99999999999998579, 7.500000000000000000, 15.00000000000000000 ) ) ;
#837 = ORIENTED_EDGE ( 'NONE', *, *, #941, .T. ) ;
#838 = SHAPE_DEFINITION_REPRESENTATION ( #404, #882 ) ;
#839 = VERTEX_POINT ( 'NONE', #85 ) ;
#840 = ORIENTED_EDGE ( 'NONE', *, *, #716, .T. ) ;
#841 = DIRECTION ( 'NONE',  ( 0.000000000000000000, 0.000000000000000000, -1.000000000000000000 ) ) ;
#842 = DIRECTION ( 'NONE',  ( 0.000000000000000000, 0.000000000000000000, -1.000000000000000000 ) ) ;
#843 = ORIENTED_EDGE ( 'NONE', *, *, #51, .T. ) ;
#844 = ORIENTED_EDGE ( 'NONE', *, *, #887, .T. ) ;
#845 = EDGE_CURVE ( 'NONE', #633, #259, #186, .T. ) ;
#846 = VERTEX_POINT ( 'NONE', #683 ) ;
#847 = DIRECTION ( 'NONE',  ( 1.000000000000000000, 0.000000000000000000, 0.000000000000000000 ) ) ;
#848 = EDGE_LOOP ( 'NONE', ( #31, #380, #101, #680, #111 ) ) ;
#849 = ORIENTED_EDGE ( 'NONE', *, *, #59, .T. ) ;
#850 = EDGE_LOOP ( 'NONE', ( #550, #261, #341, #456 ) ) ;
#851 = AXIS2_PLACEMENT_3D ( 'NONE', #600, #454, #233 ) ;
#852 = EDGE_CURVE ( 'NONE', #858, #483, #378, .T. ) ;
#853 = VECTOR ( 'NONE', #273, 1000.000000000000000 ) ;
#854 = VECTOR ( 'NONE', #221, 1000.000000000000000 ) ;
#855 = VECTOR ( 'NONE', #373, 1000.000000000000000 ) ;
#856 = DIRECTION ( 'NONE',  ( -0.000000000000000000, -0.000000000000000000, 1.000000000000000000 ) ) ;
#857 = ORIENTED_EDGE ( 'NONE', *, *, #136, .T. ) ;
#858 = VERTEX_POINT ( 'NONE', #538 ) ;
#859 = EDGE_CURVE ( 'NONE', #813, #779, #247, .T. ) ;
#860 = DIRECTION ( 'NONE',  ( 1.000000000000000000, 1.836970198721030181E-16, 0.000000000000000000 ) ) ;
#861 = VERTEX_POINT ( 'NONE', #835 ) ;
#862 = CARTESIAN_POINT ( 'NONE',  ( -27.24999999999999645, 3.367778697655217560E-16, 5.700000000000000178 ) ) ;
#863 = CARTESIAN_POINT ( 'NONE',  ( 39.00000000000000711, 7.500000000000000000, 15.00000000000000000 ) ) ;
#864 = ADVANCED_FACE ( 'NONE', ( #665 ), #893, .F. ) ;
#865 = CARTESIAN_POINT ( 'NONE',  ( -24.99999999999999289, 6.123233995736767268E-16, 0.000000000000000000 ) ) ;
#866 = VECTOR ( 'NONE', #479, 1000.000000000000000 ) ;
#867 = CARTESIAN_POINT ( 'NONE',  ( -29.99999999999999645, 0.000000000000000000, 5.700000000000000178 ) ) ;
#868 = FACE_OUTER_BOUND ( 'NONE', #486, .T. ) ;
#869 =( NAMED_UNIT ( * ) PLANE_ANGLE_UNIT ( ) SI_UNIT ( $, .RADIAN. ) );
#870 = PLANE ( 'NONE',  #756 ) ;
#871 = CARTESIAN_POINT ( 'NONE',  ( -12.49999999999999112, -5.499999999999985789, 15.00000000000000000 ) ) ;
#872 = ADVANCED_FACE ( 'NONE', ( #16, #819, #900 ), #312, .F. ) ;
#873 = CARTESIAN_POINT ( 'NONE',  ( 38.00000000000000000, 4.133182947122316772E-15, 15.00000000000000000 ) ) ;
#874 = CARTESIAN_POINT ( 'NONE',  ( -29.99999999999999645, 0.000000000000000000, 0.000000000000000000 ) ) ;
#875 = APPLICATION_CONTEXT ( 'configuration controlled 3d designs of mechanical parts and assemblies' ) ;
#876 = PERSON_AND_ORGANIZATION ( #220, #353 ) ;
#877 = EDGE_CURVE ( 'NONE', #470, #182, #160, .T. ) ;
#878 = CARTESIAN_POINT ( 'NONE',  ( 35.79999999999999716, 4.133182947122316772E-15, 8.199999999999999289 ) ) ;
#879 = VECTOR ( 'NONE', #283, 1000.000000000000000 ) ;
#880 = DIRECTION ( 'NONE',  ( -0.000000000000000000, -0.000000000000000000, 1.000000000000000000 ) ) ;
#881 = CARTESIAN_POINT ( 'NONE',  ( -12.49999999999999112, 3.299999999999994493, 15.00000000000000000 ) ) ;
#882 = ADVANCED_BREP_SHAPE_REPRESENTATION ( 'RM-JJ-00083991-01', ( #755, #720 ), #116 ) ;
#883 = EDGE_CURVE ( 'NONE', #411, #256, #143, .T. ) ;
#884 = DIRECTION ( 'NONE',  ( 0.000000000000000000, 0.000000000000000000, -1.000000000000000000 ) ) ;
#885 = CALENDAR_DATE ( 2026, 24, 4 ) ;
#886 = DIRECTION ( 'NONE',  ( -0.000000000000000000, -0.000000000000000000, 1.000000000000000000 ) ) ;
#887 = EDGE_CURVE ( 'NONE', #172, #611, #646, .T. ) ;
#888 = CARTESIAN_POINT ( 'NONE',  ( 32.50000000000000000, 4.133182947122316772E-15, 15.00000000000000000 ) ) ;
#889 = ORIENTED_EDGE ( 'NONE', *, *, #792, .F. ) ;
#890 = DATE_AND_TIME ( #79, #112 ) ;
#891 = LINE ( 'NONE', #159, #855 ) ;
#892 = VECTOR ( 'NONE', #532, 1000.000000000000000 ) ;
#893 = CYLINDRICAL_SURFACE ( 'NONE', #425, 5.000000000000000888 ) ;
#894 = CARTESIAN_POINT ( 'NONE',  ( -25.99999999999999645, 0.000000000000000000, 15.00000000000000000 ) ) ;
#895 = CC_DESIGN_APPROVAL ( #348, ( #934 ) ) ;
#896 = VERTEX_POINT ( 'NONE', #104 ) ;
#897 = AXIS2_PLACEMENT_3D ( 'NONE', #268, #57, #860 ) ;
#898 = CC_DESIGN_APPROVAL ( #653, ( #760 ) ) ;
#899 = DIRECTION ( 'NONE',  ( -0.000000000000000000, -0.000000000000000000, -1.000000000000000000 ) ) ;
#900 = FACE_OUTER_BOUND ( 'NONE', #43, .T. ) ;
#901 = DIRECTION ( 'NONE',  ( -0.000000000000000000, -0.000000000000000000, 1.000000000000000000 ) ) ;
#902 = ORIENTED_EDGE ( 'NONE', *, *, #478, .F. ) ;
#903 = APPROVAL_ROLE ( '' ) ;
#904 = EDGE_CURVE ( 'NONE', #100, #411, #91, .T. ) ;
#905 = ADVANCED_FACE ( 'NONE', ( #678 ), #465, .F. ) ;
#906 = DIRECTION ( 'NONE',  ( 0.000000000000000000, 0.000000000000000000, 1.000000000000000000 ) ) ;
#907 = DIRECTION ( 'NONE',  ( 1.000000000000000000, 0.000000000000000000, 0.000000000000000000 ) ) ;
#908 = VERTEX_POINT ( 'NONE', #608 ) ;
#909 = ORIENTED_EDGE ( 'NONE', *, *, #921, .T. ) ;
#910 = EDGE_CURVE ( 'NONE', #861, #172, #243, .T. ) ;
#911 = DIRECTION ( 'NONE',  ( -1.000000000000000000, 0.000000000000000000, -0.000000000000000000 ) ) ;
#912 = DIRECTION ( 'NONE',  ( 0.000000000000000000, 0.000000000000000000, -1.000000000000000000 ) ) ;
#913 = ORIENTED_EDGE ( 'NONE', *, *, #192, .T. ) ;
#914 = APPROVAL_PERSON_ORGANIZATION ( #681, #515, #736 ) ;
#915 = VECTOR ( 'NONE', #276, 1000.000000000000000 ) ;
#916 = ORIENTED_EDGE ( 'NONE', *, *, #33, .F. ) ;
#917 = VERTEX_POINT ( 'NONE', #616 ) ;
#918 = CIRCLE ( 'NONE', #634, 4.000000000000000000 ) ;
#919 = LINE ( 'NONE', #250, #327 ) ;
#920 = CARTESIAN_POINT ( 'NONE',  ( -24.99999999999999289, 6.123233995736767268E-16, 5.700000000000000178 ) ) ;
#921 = EDGE_CURVE ( 'NONE', #766, #917, #919, .T. ) ;
#922 = EDGE_LOOP ( 'NONE', ( #535, #558, #784, #844 ) ) ;
#923 = ORIENTED_EDGE ( 'NONE', *, *, #367, .F. ) ;
#924 = VERTEX_POINT ( 'NONE', #277 ) ;
#925 = PLANE ( 'NONE',  #947 ) ;
#926 = ORIENTED_EDGE ( 'NONE', *, *, #877, .F. ) ;
#927 = ADVANCED_FACE ( 'NONE', ( #146 ), #499, .F. ) ;
#928 = ORIENTED_EDGE ( 'NONE', *, *, #904, .F. ) ;
#929 = ORIENTED_EDGE ( 'NONE', *, *, #192, .F. ) ;
#930 = DIRECTION ( 'NONE',  ( -0.000000000000000000, -0.000000000000000000, -1.000000000000000000 ) ) ;
#931 = ORIENTED_EDGE ( 'NONE', *, *, #949, .F. ) ;
#932 = VERTEX_POINT ( 'NONE', #437 ) ;
#933 = EDGE_LOOP ( 'NONE', ( #314, #42 ) ) ;
#934 = SECURITY_CLASSIFICATION ( '', '', #754 ) ;
#935 = ADVANCED_FACE ( 'NONE', ( #647 ), #204, .F. ) ;
#936 = AXIS2_PLACEMENT_3D ( 'NONE', #625, #330, #847 ) ;
#937 = VECTOR ( 'NONE', #80, 1000.000000000000000 ) ;
#938 = DIRECTION ( 'NONE',  ( -0.7071067811865500152, -0.7071067811865451302, -0.000000000000000000 ) ) ;
#939 = ORIENTED_EDGE ( 'NONE', *, *, #664, .F. ) ;
#940 = LINE ( 'NONE', #865, #113 ) ;
#941 = EDGE_CURVE ( 'NONE', #413, #470, #207, .T. ) ;
#942 = FACE_OUTER_BOUND ( 'NONE', #850, .T. ) ;
#943 = CARTESIAN_POINT ( 'NONE',  ( 40.00000000000000711, -7.500000000000000000, 15.00000000000000000 ) ) ;
#944 = FACE_OUTER_BOUND ( 'NONE', #705, .T. ) ;
#945 = CARTESIAN_POINT ( 'NONE',  ( -39.99999999999999289, 7.500000000000000000, 15.00000000000000000 ) ) ;
#946 = APPLICATION_PROTOCOL_DEFINITION ( 'international standard', 'config_control_design', 1994, #875 ) ;
#947 = AXIS2_PLACEMENT_3D ( 'NONE', #554, #566, #255 ) ;
#948 = CARTESIAN_POINT ( 'NONE',  ( -29.99999999999999645, 0.000000000000000000, 5.700000000000000178 ) ) ;
#949 = EDGE_CURVE ( 'NONE', #320, #908, #773, .T. ) ;
#950 = DIRECTION ( 'NONE',  ( -0.000000000000000000, -0.000000000000000000, -1.000000000000000000 ) ) ;
#951 = APPLICATION_PROTOCOL_DEFINITION ( 'international standard', 'config_control_design', 1994, #824 ) ;
#952 = LINE ( 'NONE', #293, #879 ) ;
#953 = EDGE_CURVE ( 'NONE', #52, #839, #191, .T. ) ;
#954 = CARTESIAN_POINT ( 'NONE',  ( -12.49999999999998757, -4.133182947122316772E-15, 8.199999999999999289 ) ) ;
#955 = DIRECTION ( 'NONE',  ( 0.000000000000000000, 0.000000000000000000, 1.000000000000000000 ) ) ;
#956 = PLANE ( 'NONE',  #325 ) ;
#957 = EDGE_CURVE ( 'NONE', #766, #620, #810, .T. ) ;
#958 = CLOSED_SHELL ( 'NONE', ( #781, #286, #864, #271, #436, #266, #905, #294, #559, #872, #223, #416, #90, #935, #568, #476, #211, #359, #578, #148, #731, #816, #397, #827, #638, #927, #607, #512, #563 ) ) ;
#959 = DIRECTION ( 'NONE',  ( 0.000000000000000000, 0.000000000000000000, 1.000000000000000000 ) ) ;
ENDSEC;
END-ISO-10303-21;
